<?xml version="1.0" standalone="no"?>
<!DOCTYPE svg PUBLIC "-//W3C//DTD SVG 1.1//EN" "http://www.w3.org/Graphics/SVG/1.1/DTD/svg11.dtd" >
<svg xmlns="http://www.w3.org/2000/svg" xmlns:xlink="http://www.w3.org/1999/xlink" version="1.1">
<metadata>
Created by FontForge 20190801 at Mon Sep 23 09:08:29 2013
 By root
</metadata>
<defs>
<font id="Bacana" horiz-adv-x="1930" >
  <font-face 
    font-family="Bacana"
    font-weight="400"
    font-stretch="normal"
    units-per-em="1000"
    panose-1="2 0 5 7 0 0 0 2 0 2"
    ascent="750"
    descent="-250"
    x-height="369"
    cap-height="882"
    bbox="-24 -823.889 3856 1319"
    underline-thickness="50"
    underline-position="-1200"
    unicode-range="U+0020-FB02"
  />
<missing-glyph horiz-adv-x="500" 
 />
    <glyph glyph-name=".notdef" horiz-adv-x="500" 
 />
    <glyph glyph-name=".null" horiz-adv-x="0" 
 />
    <glyph glyph-name="nonmarkingreturn" horiz-adv-x="500" 
 />
    <glyph glyph-name="space" unicode=" " horiz-adv-x="500" 
 />
    <glyph glyph-name="d" unicode="d" horiz-adv-x="1933" 
d="M1933 124q-52 -15 -120.5 -31t-144.5 -31t-155 -28.5t-151.5 -24.5t-134 -19.5t-103.5 -12.5q-25 0 -49.5 6.5t-48.5 27.5q-23 22 -38.5 53t-19.5 66q-11 -20 -25 -40t-31 -37q-38 -35 -89 -56t-103 -21q-60 0 -101 28t-54 78q-11 45 -1.5 89t38.5 86q14 19 34 36t41 31
q-62 -8 -117 -19.5t-106 -26.5t-100 -32.5t-98 -35.5q-55 -20 -117.5 -42t-138.5 -44l-12 41q75 23 135.5 44t117.5 42q68 25 137.5 47.5t141.5 39t146.5 26.5t153.5 10q67 0 109 -33q17 -14 30 -36.5t19 -45.5q11 75 25.5 148t29.5 148q11 52 24.5 112t29 120.5t33.5 119
t39.5 108t46 87t52.5 56.5q21 14 36.5 12.5t23.5 -6.5q20 -11 31.5 -37.5t11.5 -64.5q0 -23 -9.5 -60.5t-24.5 -83t-34 -95t-38.5 -97t-38 -89.5t-31.5 -71q-45 -98 -88.5 -189t-81.5 -162q-2 -19 -3.5 -34t-1.5 -26q0 -21 7 -46t21 -45t34.5 -33t47.5 -10q41 4 102 12
t133 19t150 24.5t153 28t143 30t119 30.5zM1076 546q-11 -57 -25 -113.5t-25 -116.5q30 65 63 139t65.5 149.5t62 148t51.5 133.5t35.5 107t13.5 69q0 7 -1 20t-4.5 23.5t-10.5 16.5t-19 0q-25 -17 -47 -52.5t-41.5 -84t-36.5 -105t-31.5 -115t-27 -115.5t-22.5 -104z
M882 85q20 20 35.5 49t21 60t-2 61t-34.5 52q-32 24 -82 24q-52 0 -96 -23q-15 -8 -39 -26.5t-45 -46t-32.5 -64t-0.5 -78.5q6 -24 20.5 -38.5t31.5 -22t33.5 -9.5t27.5 -2q44 0 87 17t75 47z" />
    <glyph glyph-name="e" unicode="e" horiz-adv-x="1934" 
d="M1934 125q-150 -45 -307.5 -76.5t-305.5 -47.5q-103 -11 -198.5 -17t-184.5 -6h-30q-59 1 -99 28.5t-53 76.5q-11 45 -1.5 89t38.5 86q14 20 30 36t32 28q-106 -11 -206 -29t-197.5 -41.5t-193.5 -51.5t-194 -57l-63 -18l-13 42q17 5 32.5 9t31.5 9q115 34 228 66t229 58
t237 43.5t252 22.5q34 2 65.5 -5.5t56.5 -27.5q22 -17 39.5 -47.5t16.5 -63.5q-2 -44 -40 -72q-29 -19 -67 -24t-75 -7q-14 -1 -26.5 -1.5t-23.5 -2.5q-5 -1 -10 -1.5t-10 -1.5q-16 -2 -33.5 -4.5t-34 -6.5t-30.5 -10.5t-24 -15.5q7 -20 20 -32t28.5 -19t31 -9t27.5 -2
q92 -1 195.5 4.5t212.5 17.5q146 16 301 47.5t304 75.5zM915 309q-13 -6 -34 -21.5t-40.5 -38.5t-33 -52.5t-13.5 -64.5q26 16 59.5 22t64.5 11q5 0 10 0.5t10 1.5q12 2 25.5 3t28.5 2q32 2 65 6t54 18q21 13 22 37q1 18 -10.5 39t-29.5 36q-32 24 -83 24q-25 0 -48 -6
t-47 -17z" />
    <glyph glyph-name="f" unicode="f" horiz-adv-x="1935" 
d="M850 -804h-8q-39 5 -64 50.5t-30 122.5q-3 47 -6.5 127t-2.5 189t7.5 244t23.5 291q-17 24 -28 43.5t-13 33.5q-3 19 0 32.5t8.5 22t12 13t11.5 6.5q10 5 27 5q3 20 5.5 39t5.5 39v1q-63 -45 -137.5 -87t-159.5 -74q-54 -21 -115 -43t-125.5 -44t-131 -43t-130.5 -40
l-12 42q64 19 129.5 40t130 42.5t125 43t113.5 42.5q95 37 176.5 85t147.5 98q13 68 34.5 153.5t50.5 172.5q87 259 176 319q21 14 36.5 12t23.5 -6q20 -11 31.5 -38t11.5 -65q0 -51 -8.5 -98.5t-26.5 -96t-46 -99.5t-68 -107q-23 -32 -67.5 -77t-107.5 -94q-2 -12 -4 -23
l-4 -22q-3 -22 -6 -43t-5 -43q20 -11 35 -30q35 -46 63.5 -108t49.5 -139q10 -7 20 -11q26 -13 54.5 -20.5t58 -11.5t58.5 -5t55 -1q38 -1 109 6.5t164 23.5t201.5 40.5t222.5 59.5l13 -41q-117 -36 -227.5 -61.5t-204.5 -41.5t-166.5 -23.5t-112.5 -6.5q-54 2 -114.5 7
t-117.5 30q10 -45 16.5 -91.5t11.5 -96.5q6 -66 6.5 -132.5t-4 -128t-13 -115.5t-21.5 -95q-26 -85 -62 -129.5t-76 -44.5zM809 173q-14 -147 -20 -274t-6.5 -229t3 -177.5t6.5 -120.5q5 -66 21.5 -98t33.5 -34q20 -2 47 31.5t52 111.5q16 51 25.5 128.5t10 168.5t-9 188.5
t-31.5 188.5q-36 23 -69.5 53.5t-62.5 62.5zM815 233q20 -26 47.5 -53.5t58.5 -53.5q-17 52 -39 97t-51 82q-2 3 -7 8q-2 -20 -4.5 -40t-4.5 -40zM783 332q-4 0 -5 -1q-6 -2 -6 -12.5t1 -15.5q0 -4 5 -14q1 11 2 21.5t3 21.5zM1107 1130q-4 0 -12 -5q-23 -16 -46 -49.5
t-45 -79t-42.5 -100t-38.5 -112t-33.5 -115t-26.5 -109.5q45 38 76.5 71t49.5 59q38 54 65 101.5t44 92.5t24.5 89.5t7.5 91.5q0 26 -6 43t-13 21q-1 1 -4 1z" />
    <glyph glyph-name="g" unicode="g" horiz-adv-x="1932" 
d="M1932 123q-87 -26 -177 -50.5t-193 -50.5q-132 -34 -248 -87t-213 -123q-18 -108 -39 -211.5t-48 -188t-62.5 -143t-83.5 -76.5q-13 -5 -24 -7t-20 -2q-24 0 -38.5 9t-22.5 18q-21 24 -27 64t-0.5 86t21.5 93.5t39 88.5q47 83 113.5 156.5t151.5 136.5q2 12 4 24.5
t4 24.5q8 42 14.5 83t13.5 80q-37 -34 -86.5 -53.5t-100.5 -19.5q-60 0 -101 28t-54 78q-11 45 -2 89t39 86q14 20 39.5 40t54.5 34q-114 -12 -227 -34t-224 -50t-220 -60t-215 -63l-13 42q126 35 247.5 69.5t245 63t253 48.5t271.5 28h5q67 0 109 -34q36 -29 50 -77l24 -8
q-17 -46 -28.5 -94t-20 -97t-16.5 -98.5t-19 -97.5q95 63 206.5 113.5t236.5 82.5q103 26 192.5 50.5t176.5 50.5zM853 -766q37 14 66.5 66.5t54 128.5t44 167t35.5 183q-68 -56 -124 -122t-95 -136q-21 -37 -35.5 -80.5t-19.5 -85.5q-5 -39 -0.5 -70t17.5 -46
q3 -4 15.5 -10t41.5 5zM1071 84q28 26 43.5 61.5t15.5 77.5q-2 26 -11.5 47.5t-27.5 35.5q-29 24 -82 24h-5h-7q-43 -3 -83 -22q-15 -8 -39 -26.5t-45 -46.5t-32.5 -64t-0.5 -79q6 -24 20.5 -38.5t31.5 -22t33.5 -9.5t27.5 -2q44 0 87 17.5t74 46.5z" />
    <glyph glyph-name="h" unicode="h" horiz-adv-x="1932" 
d="M1932 123q-79 -23 -161.5 -46t-162.5 -43.5t-155.5 -35.5t-139.5 -21q-5 -1 -9 -1h-9q-35 0 -68.5 13t-59.5 36q-48 43 -48 103q0 11 1 22t3 22q3 18 4.5 35.5t-1 35t-10.5 33.5t-26 31q-15 12 -36 18t-45 6t-49 -5.5t-48 -17.5q-14 -7 -31.5 -20t-34.5 -31t-31 -40
t-20 -47q-12 -48 -17.5 -87.5t-11.5 -84.5l-43 5q8 68 20.5 136.5t26.5 149.5q4 27 8 53t8 48.5t7 39t5 24.5q-63 -45 -137.5 -87t-159.5 -75q-54 -21 -115 -42.5t-125.5 -43.5t-130.5 -43t-130 -40l-12 42q64 19 129.5 39.5t129.5 42.5t124.5 43.5t113.5 42.5
q97 38 179.5 86.5t148.5 99.5q15 64 32 131t36 132t40.5 125t45 110t49 87t53.5 55q21 14 36.5 12.5t23.5 -6.5q20 -11 31.5 -37.5t11.5 -64.5q0 -51 -8.5 -98.5t-26.5 -96t-46 -99.5t-68 -107q-23 -32 -66 -76t-105 -92q-4 -14 -6.5 -26.5l-4.5 -22.5q-2 -6 -4.5 -22.5
t-6.5 -38.5t-8.5 -47.5t-8.5 -50.5q22 23 43.5 38t36.5 23q24 12 53.5 19.5t60 8t59 -7.5t51.5 -26q25 -21 37 -43.5t15.5 -45.5t2 -45t-4.5 -41q-2 -11 -3 -20.5t-1 -17.5q0 -26 11 -43t22 -28q22 -20 52.5 -29.5t59.5 -7.5q63 6 137 21t153.5 35t161 43t159.5 46zM941 827
q-22 -68 -40.5 -136.5t-32.5 -126.5q42 36 72 68t47 56q38 54 65 101.5t44 92.5t24.5 89.5t7.5 91.5q0 7 -1 19.5t-5 24t-10.5 17.5t-18.5 -1q-12 -8 -28 -26.5t-35.5 -53t-41.5 -87.5t-47 -129z" />
    <glyph glyph-name="i" unicode="i" horiz-adv-x="1781" 
d="M1781 123q-18 -5 -36 -10.5t-36 -11.5q-68 -20 -137 -40t-135.5 -37t-130.5 -29.5t-122 -18.5q-5 -1 -15.5 -1.5t-24.5 -0.5q-21 0 -47.5 2.5t-55 10t-56.5 21t-50 36.5q-65 65 -54 176q3 31 9 59t12 51q-106 -6 -198.5 -20t-179.5 -34t-171 -45t-172 -53
q-44 -14 -88.5 -27.5t-92.5 -27.5l-13 42q48 14 92.5 27.5t88.5 27.5q92 29 180 55t179.5 47t190 35t212.5 18l31 1q-4 -14 -6.5 -22.5t-5.5 -19.5q-6 -22 -13.5 -53t-10.5 -65q-9 -91 41 -141q25 -26 60 -38t67 -16t56.5 -3t30.5 1q56 6 118.5 18.5t128.5 29.5t134 37
l136 40l72 21zM1118 793q-12 0 -23 5.5t-17 15.5q-13 21 -2 42q5 12 16 19t25 7q21 0 33 -14q12 -15 10 -33q-2 -22 -15 -32t-27 -10z" />
    <glyph glyph-name="j" unicode="j" horiz-adv-x="1945" 
d="M1945 123q-88 -26 -178 -51t-194 -51q-141 -36 -277 -90.5t-253 -120.5q-14 -8 -28 -16.5t-28 -17.5q-12 -63 -25.5 -123t-28.5 -117q-43 -158 -89 -243.5t-101 -106.5q-26 -9 -45 -9q-24 0 -38.5 9.5t-22.5 18.5q-21 24 -27.5 64t-0.5 86.5t22 94t39 88.5
q38 68 108 134.5t170 130.5q15 77 28 151t24 142q12 69 22 128.5t20 105.5q-134 -7 -267 -26.5t-264 -47.5t-259 -62.5t-252 -70.5l-12 42q128 38 261 73.5t268.5 64t274 48t277.5 24.5l29 1q-16 -68 -28.5 -137.5t-26.5 -149.5q-10 -60 -22.5 -128t-25.5 -134
q57 36 125.5 70.5t143 65t150.5 56.5t148 44q103 26 193 51t178 51zM890 -453q13 47 26 99t24 103q-81 -56 -140.5 -115.5t-91.5 -116.5q-21 -38 -35.5 -81.5t-19.5 -85.5q-5 -40 -0.5 -71t17.5 -46q3 -4 15.5 -10.5t41.5 4.5q86 33 163 320zM1256 793q-11 0 -22 5.5
t-17 15.5q-13 21 -2 42q5 12 16 19t25 7q20 0 32 -14q13 -14 11 -33q-2 -22 -15.5 -32t-27.5 -10z" />
    <glyph glyph-name="A" unicode="A" horiz-adv-x="1932" 
d="M1931 123q-79 -23 -161.5 -46.5t-162.5 -43.5t-155 -35t-139 -21q-5 -1 -9 -1h-9q-35 0 -68.5 13t-59.5 36q-14 13 -25.5 29.5t-14.5 33.5q-5 -10 -12 -19t-15 -17q-38 -35 -89 -55.5t-103 -20.5q-60 0 -100.5 28t-53.5 77q-12 45 -2.5 89t38.5 86q7 10 18 20.5
t23.5 20.5t26.5 18.5t27 14.5q-106 -11 -211 -30.5t-208.5 -45t-205 -54.5t-198.5 -58q-16 -5 -31.5 -9.5t-31.5 -9.5l-13 42q17 5 32.5 9.5t31.5 9.5q115 34 228 66t229 58t237 43.5t252 22.5h12q66 0 109 -34q37 -29 49 -77l25 -6q-2 -5 -3.5 -11t-3.5 -13
q-7 -21 -14 -48.5t-7 -56.5q0 -26 11 -43t22 -28q22 -20 52.5 -30t59.5 -7q63 6 137 21t153 35t160.5 43t159.5 46zM1070 84q42 41 55 96q0 2 0.5 3.5t0.5 3.5q3 20 2 36q-2 54 -38 83q-30 24 -82 24q-51 0 -95 -22q-15 -8 -39 -26.5t-45 -46t-32.5 -64t-0.5 -78.5
q6 -24 20.5 -38.5t31.5 -22t33 -9.5t27 -2q44 0 87 17t75 46z" />
    <glyph glyph-name="a" unicode="a" horiz-adv-x="1931" 
d="M1931 123q-79 -23 -161.5 -46.5t-162.5 -43.5t-155 -35t-139 -21q-5 -1 -9 -1h-9q-35 0 -68.5 13t-59.5 36q-14 13 -25.5 29.5t-14.5 33.5q-5 -10 -12 -19t-15 -17q-38 -35 -89 -55.5t-103 -20.5q-60 0 -100.5 28t-53.5 77q-12 45 -2.5 89t38.5 86q7 10 18 20.5
t23.5 20.5t26.5 18.5t27 14.5q-106 -11 -211 -30.5t-208.5 -45t-205 -54.5t-198.5 -58q-16 -5 -31.5 -9.5t-31.5 -9.5l-13 42q17 5 32.5 9.5t31.5 9.5q115 34 228 66t229 58t237 43.5t252 22.5h12q66 0 109 -34q37 -29 49 -77l25 -6q-2 -5 -3.5 -11t-3.5 -13
q-7 -21 -14 -48.5t-7 -56.5q0 -26 11 -43t22 -28q22 -20 52.5 -30t59.5 -7q63 6 137 21t153 35t160.5 43t159.5 46zM1070 84q42 41 55 96q0 2 0.5 3.5t0.5 3.5q3 20 2 36q-2 54 -38 83q-30 24 -82 24q-51 0 -95 -22q-15 -8 -39 -26.5t-45 -46t-32.5 -64t-0.5 -78.5
q6 -24 20.5 -38.5t31.5 -22t33 -9.5t27 -2q44 0 87 17t75 46z" />
    <glyph glyph-name="b" unicode="b" horiz-adv-x="1932" 
d="M911 -23q-57 0 -98 26q-13 8 -26 21t-23 32t-15.5 45t-2.5 60q3 40 7.5 73.5t10 63.5t11.5 57.5t13 56.5q2 10 4.5 20.5t5.5 21.5q-63 -45 -138 -87t-160 -75q-53 -21 -114 -42.5t-125.5 -43.5t-131 -43t-130.5 -40l-12 42q64 19 129.5 39.5t130 42.5t125 43.5
t113.5 42.5q97 38 179 86.5t148 99.5q15 64 32 131t36.5 132t41 125t45 110t49.5 87t53 55q21 14 36.5 12.5t23.5 -5.5q20 -11 31.5 -38t11.5 -65q0 -51 -8.5 -98.5t-26.5 -96t-46 -99t-68 -106.5q-23 -32 -66 -76.5t-105 -92.5q-4 -14 -7 -26.5t-5 -22.5q-2 -11 -4.5 -21.5
t-4.5 -21.5q-7 -28 -13 -55t-11.5 -56t-9.5 -61.5t-7 -71.5q-6 -84 46 -118q18 -11 40.5 -15.5t47.5 -3t51.5 9.5t50.5 22q42 24 65 60t34.5 75t14 76t3.5 63q1 9 1 16t1 13l41 7q8 -15 29 -39.5t48 -50t55.5 -49t51.5 -38.5q194 -120 550 -21l12 -42q-191 -54 -342 -46
q-141 9 -243 72q-18 12 -39.5 28.5t-43 35.5t-42 39t-36.5 39q-2 -30 -7.5 -67.5t-20.5 -76t-41 -73.5t-69 -59q-67 -38 -137 -38zM1105 1128q-4 0 -12 -5q-12 -8 -28 -26.5t-35.5 -53t-41.5 -87.5t-47 -129q-22 -68 -40.5 -136.5t-32.5 -126.5q42 36 72 68t47 56
q38 54 65 101.5t44 92.5t24.5 89.5t7.5 91.5q0 26 -6 43t-13 21q-1 1 -4 1z" />
    <glyph glyph-name="c" unicode="c" horiz-adv-x="1933" 
d="M1933 124q-150 -45 -307.5 -76.5t-305.5 -48.5q-103 -11 -198.5 -16.5t-183.5 -5.5h-30q-60 1 -100 28.5t-52 76.5q-12 45 -2.5 89t38.5 86q14 20 34 37.5t38 28.5q-106 -10 -207.5 -29t-200.5 -43t-197 -52t-195 -57l-63 -18l-13 41q17 5 32.5 9.5t31.5 9.5
q115 34 228 66t228.5 58t236 43.5t251.5 22.5h2q33 2 64.5 -5.5t56.5 -27.5q29 -23 45 -56t16 -68h-44q0 26 -11.5 49.5t-32.5 40.5q-35 26 -90 23q-23 0 -45 -6t-42 -16q-15 -8 -39 -26.5t-45 -46t-32.5 -64t-0.5 -78.5q6 -23 19 -37.5t29 -22t32.5 -10t29.5 -2.5
q93 -1 196 4.5t212 17.5q146 16 301 47t303 75z" />
    <glyph glyph-name="k" unicode="k" horiz-adv-x="1933" 
d="M1933 122q-86 -23 -173 -48.5t-171.5 -47t-164.5 -35.5t-152 -14q-23 1 -45 9.5t-41.5 20.5t-37 27t-30.5 29q-11 14 -23.5 28t-26.5 29q-2 -2 -5 -2.5t-5 -1.5q-38 -14 -75 -18.5t-63 -4.5q-9 0 -21 2t-25 7t-24.5 12.5t-18.5 18.5q-16 24 -5 52q18 48 101 50h3
q47 0 83 -19t64 -44q18 10 30.5 22.5t16.5 29.5q6 25 -6 47t-28 35q-14 12 -35 18t-45 6t-49 -5.5t-48 -17.5q-14 -7 -31.5 -20t-34.5 -31t-30.5 -40t-20.5 -47q-12 -42 -18 -84.5t-12 -87.5l-43 5q8 72 22 142t25 144q4 27 8.5 53t8.5 48.5t6.5 39t4.5 24.5
q-63 -45 -137.5 -87t-159.5 -75q-54 -21 -115 -42.5t-125.5 -43.5t-130.5 -43t-130 -40l-13 42q64 19 130 39.5t130 42.5t124.5 43.5t113.5 42.5q97 38 179.5 86.5t148.5 99.5q22 96 49.5 197.5t60 191t69.5 157.5t78 95q21 14 36.5 12.5t23.5 -6.5q20 -11 31.5 -37.5
t11.5 -64.5q0 -51 -8.5 -98.5t-26.5 -96t-46 -99.5t-68 -107q-23 -32 -66.5 -76t-105.5 -93q-3 -14 -6 -26.5t-5 -22.5q-2 -6 -4.5 -22.5t-6.5 -38.5t-8 -47.5t-8 -50.5q21 23 42.5 38t36.5 23q25 13 55 20.5t60 7.5t58.5 -8t51.5 -26q30 -25 43.5 -59t5.5 -67
q-10 -43 -58 -74q11 -11 20.5 -23.5t20.5 -23.5q14 -15 32 -30t38.5 -26t43 -16.5t45.5 -1.5q63 6 137 21t153.5 35t161.5 43t160 46zM941 826q-22 -67 -40 -136t-32 -127q42 36 72 68t47 56q38 54 65 101.5t44 92.5t24.5 89.5t7.5 92.5q0 26 -6 43t-13 21h-4q-5 0 -12 -4
q-12 -9 -28.5 -27.5t-36 -53t-41.5 -87t-47 -129.5zM921 137q22 -1 52 3.5t59 12.5q-21 17 -46.5 27.5t-55.5 10.5h-2q-19 0 -37.5 -4t-23.5 -17q-4 -7 1 -12q6 -9 22.5 -15t30.5 -6z" />
    <glyph glyph-name="l" unicode="l" horiz-adv-x="1935" 
d="M1149 -26q-30 0 -61 7t-59 21t-51 35.5t-37 50.5q-15 33 -21 75.5t-5 92t7 103.5t15 110q-69 -40 -142 -69t-155 -58q-33 -12 -67.5 -24.5t-71.5 -26.5q-53 -21 -114 -42.5t-125.5 -43.5t-131 -43t-130.5 -40l-13 42q64 19 130 39.5t130.5 42.5t125 43.5t113.5 42.5
q36 14 71 26.5t68 24.5q90 32 169 64.5t152 79.5q9 47 23 106.5t32.5 123t41 126.5t48 118t54.5 96.5t60 62.5q21 14 37 12t24 -6q20 -11 31 -38t11 -65q0 -114 -36 -211t-114 -191q-42 -51 -84.5 -90t-87.5 -70q-1 -5 -1.5 -10t-1.5 -10q-6 -35 -13 -84.5t-10 -102.5
t1 -103t20 -84q12 -25 33 -43t47 -29t54.5 -15t54.5 -1q45 4 104 12.5t126.5 20t138.5 25t139.5 28t131 30t112.5 29.5l13 -42q-50 -15 -113.5 -30t-133 -30t-141.5 -28.5t-140 -25t-128 -20t-105 -13.5q-6 0 -12 -0.5t-13 -0.5zM1241 1128q-4 0 -11 -5q-23 -15 -46 -47.5
t-45.5 -76.5t-42.5 -97.5t-38.5 -110.5t-33.5 -115t-26 -112q32 26 63.5 56.5t62.5 68.5q73 88 107 178t34 196q0 26 -6 43t-14 21q-1 1 -4 1z" />
    <glyph glyph-name="m" unicode="m" horiz-adv-x="2717" 
d="M2717 122q-79 -23 -161.5 -46.5t-162.5 -43.5t-155.5 -35t-139.5 -21q-5 -1 -8.5 -1h-8.5q-33 0 -66 12t-58 34q-50 43 -52 105q-1 10 -1.5 31.5t0.5 53.5q1 30 -8.5 54.5t-29.5 40.5q-32 24 -94 24q-56 0 -92.5 -15.5t-61 -42t-40 -62t-28.5 -76.5q-6 -21 -14.5 -43.5
t-17 -43t-15.5 -36.5t-11 -24l-39 18q12 25 29 66t27 84.5t5.5 84t-35.5 66.5q-32 24 -94 24q-56 0 -92.5 -15.5t-60.5 -41.5t-39.5 -62t-28.5 -76q-6 -21 -14.5 -44t-17 -43t-16 -36.5t-11.5 -24.5l-39 18q10 22 20.5 48t20 53.5t16 54.5t8.5 50q2 30 -8.5 54.5t-30.5 39.5
q-16 13 -40 19.5t-53 4.5q-129 -5 -249 -22.5t-235.5 -43t-228 -57.5t-227.5 -66q-15 -5 -30 -9t-29 -9l-13 42q15 5 30 9t29 8q116 34 230 66.5t230.5 58.5t238 44t253.5 23q36 2 67.5 -7.5t53.5 -26.5q36 -27 49 -76q13 20 27 35q68 75 190 75q27 0 61 -6.5t60 -26.5
q37 -29 49 -77q13 20 27 35q66 75 190 75q27 0 61 -6.5t60 -26.5q27 -22 41.5 -56t13.5 -74q-1 -31 -0.5 -51.5t0.5 -30.5q2 -27 13.5 -45t23.5 -29q22 -19 51 -28.5t58 -6.5q63 6 136.5 21t153 35t161 43t159.5 46z" />
    <glyph glyph-name="n" unicode="n" horiz-adv-x="2332" 
d="M2332 122q-79 -23 -161.5 -46.5t-162.5 -43.5t-155.5 -35t-139.5 -22h-17q-33 0 -66 12t-58 34q-50 42 -53 105q0 10 -0.5 31.5t0.5 53.5q1 30 -9 54.5t-30 39.5q-29 24 -93 24h-1q-56 0 -93.5 -16t-62.5 -43t-41.5 -63t-29.5 -77q-6 -21 -13.5 -43t-15 -41.5t-14 -35
t-10.5 -23.5l-39 18q7 15 18 43t21.5 59t18 59.5t7.5 44.5q1 30 -9 54.5t-30 39.5q-16 13 -40 19.5t-53 4.5q-129 -5 -249.5 -22.5t-236 -43t-228 -57.5t-227.5 -66q-15 -5 -30 -9t-29 -9l-13 42q15 5 30 9l30 8q116 34 229.5 66.5t230 58.5t238.5 44t254 23q36 2 67.5 -7
t53.5 -26q37 -29 49 -77q13 20 27 35q69 76 190 76h1q27 0 60.5 -7t59.5 -27q28 -22 42.5 -56t13.5 -74q-2 -62 0 -82q1 -27 13 -45t24 -29q22 -19 51 -28.5t57 -6.5q63 6 137 21t153.5 35t161.5 43t160 46z" />
    <glyph glyph-name="o" unicode="o" horiz-adv-x="1935" 
d="M1934 123q-68 -20 -142 -35.5t-152 -26t-157 -16t-157 -5.5q-127 0 -209 27q-3 -4 -6.5 -8t-8.5 -8q-37 -35 -88.5 -55.5t-103.5 -20.5q-60 0 -100.5 28t-53.5 77q-12 45 -2.5 89.5t38.5 86.5q7 10 18.5 21t25 21t27 18t24.5 13q-106 -11 -211 -30.5t-208.5 -45
t-205 -54.5t-199.5 -58l-63 -18l-13 41q17 5 32.5 9.5t31.5 9.5q115 34 227.5 66t227 58t235 43.5t251.5 22.5h18q68 0 109 -33q26 -20 39.5 -50t15.5 -66q2 -31 -6 -61.5t-24 -58.5q75 -20 182 -20q76 0 154 5.5t154 15.5t149 25t139 35zM1019 231q0 -74 83 -111
q31 47 29 102q-1 20 -6.5 36t-14.5 29q-6 6 -22.5 11.5t-33.5 -2.5q-12 -6 -23.5 -21t-11.5 -44zM910 20q44 0 87 17t75 47q1 0 1 1q-98 49 -98 146q0 17 5.5 33.5t16 30t25.5 21.5t33 8q-13 3 -26.5 4.5t-18.5 1.5q-51 0 -95 -23q-15 -8 -39 -26.5t-45 -46t-32.5 -64
t-0.5 -78.5q6 -24 20.5 -38.5t31.5 -22t33 -9.5t27 -2z" />
    <glyph glyph-name="p" unicode="p" horiz-adv-x="1934" 
d="M1934 122q-38 -12 -103.5 -30.5t-148 -39.5t-177 -41t-190.5 -35q-73 -11 -136.5 -16.5t-117.5 -5.5h-23t-22 1q21 -86 24 -183q4 -102 -10 -207.5t-43 -197.5q-26 -84 -62 -129t-76 -45q-2 0 -4 0.5t-4 0.5q-38 5 -63 50.5t-31 121.5q-4 56 -6.5 127.5t-1.5 161
t6.5 198.5t19.5 240q0 3 2 18.5t5 37.5t6 49t6.5 53t6 48t4.5 36q-33 2 -109.5 -4.5t-185.5 -39.5q-57 -17 -117.5 -38t-120.5 -43q-66 -23 -132.5 -46t-129.5 -42l-13 42q63 19 129 42l132 46q60 21 121 42.5t118 38.5q75 23 136.5 32.5t105 12t68 1t26.5 -1.5l22 -3
l-3 -22q-2 -17 -5 -34t-5 -34q22 24 44 41t39 25q26 13 56 20t60 7q66 0 109 -34q52 -40 55 -116q2 -47 -17 -92.5t-55 -79.5q-19 -18 -42 -32t-49 -25q81 -2 184.5 9.5t220 34t240 54t245.5 68.5zM812 165q-2 -17 -2 -28t1 -19t3.5 -14t4.5 -13q7 -24 24 -42t35.5 -30
t36.5 -18t29 -6q5 0 10.5 0.5t10.5 0.5q-7 20 -17.5 44t-23.5 47.5t-26.5 45.5t-26.5 39q-17 23 -36 20q-6 -2 -13.5 -7.5t-9.5 -19.5zM935 311q-15 -8 -40 -27.5t-46 -48.5q15 -2 30 -11.5t27 -25.5q28 -35 52 -82t41 -95q25 7 52.5 28t50 49.5t37 62t13.5 65.5
q-3 53 -39 83q-30 24 -82 24q-50 0 -96 -22zM945 -620q15 47 28.5 113.5t19.5 143.5t2 159.5t-24 162.5q-52 2 -84 14.5t-51 26.5q-22 16 -33 36q-11 -117 -15.5 -216.5t-5 -182t2 -149t6.5 -118.5q5 -66 21.5 -98.5t33.5 -34.5q20 -2 47.5 31.5t51.5 111.5z" />
    <glyph glyph-name="q" unicode="q" horiz-adv-x="1931" 
d="M1931 122q-118 -29 -216.5 -61.5t-178.5 -65t-143.5 -63.5t-111.5 -57q-70 -38 -125 -65.5t-97 -44.5q31 -60 39.5 -131t-2 -144t-37.5 -142.5t-67 -126.5q-10 -15 -27.5 -25.5t-37.5 -10.5q-11 0 -21 3q-67 28 -45 188q11 81 28 169t40 188q-32 4 -43.5 18t-14.5 22
q-7 22 3 45.5t33 37.5q11 7 25 10t28 0q11 42 24 92.5t24 97.5q-15 -17 -36.5 -31.5t-46.5 -25.5t-52 -17.5t-51 -6.5q-60 0 -101 27.5t-54 77.5q-11 45 -1.5 89t38.5 86q14 20 34 37.5t40 28.5q-81 -9 -155.5 -23t-146 -32.5t-141.5 -40t-141 -43.5q-46 -14 -94 -29.5
t-100 -30.5l-13 42q52 15 100 30t94 30q87 28 170.5 53t170.5 45t181.5 33t205.5 18v-1q5 1 13 1q66 0 109 -34q37 -29 49 -77l24 -6l-17 -67q-24 -94 -45.5 -179t-41.5 -165q3 -3 5 -4q8 -9 17 -20.5t17 -21.5q35 15 87.5 43t133.5 71q49 26 113.5 57.5t146 65t181 66.5
t219.5 62zM984 83q29 28 44.5 64.5t13.5 74.5q-2 54 -38 83q-30 24 -82 24q-50 0 -96 -22q-15 -8 -39 -26.5t-45 -46.5t-32 -64t0 -79q6 -24 20.5 -38.5t31 -22t33 -9.5t27.5 -2q44 0 87 17.5t75 46.5zM986 -209q-2 -7 -3 -13.5t-1 -7.5q8 2 12.5 4t7.5 4l6 3q-2 2 -9 14
t-9 14zM910 -216q2 -4 7.5 -10.5t18.5 -7.5q2 12 7 33t8 33q-5 2 -9 2q-5 0 -10 -1t-11 -6q-9 -7 -12 -20.5t1 -22.5zM1058 -461q4 60 -4.5 114t-31.5 97q-14 -5 -26.5 -9t-21.5 -6q-23 -102 -41 -192.5t-29 -172.5q-10 -71 -2 -103.5t20 -37.5q8 -3 18.5 2.5t16.5 14.5
q43 63 69.5 139t31.5 154z" />
    <glyph glyph-name="r" unicode="r" horiz-adv-x="1933" 
d="M1336 -26q-20 0 -46.5 2.5t-55 10t-56.5 21t-50 36.5q-65 63 -54 174q2 24 7.5 55t11.5 57l-188 -1q-29 -7 -77 -17t-111 -23q-73 -15 -162.5 -33.5t-184 -40t-189.5 -45t-180 -48.5l-13 42q85 25 181 49t191 45.5t185 40t164 33.5q64 13 112.5 23t75.5 17l2 1l250 1
l-7 -28q-3 -10 -6.5 -26t-7 -34.5t-6.5 -37t-4 -34.5q-9 -90 41 -139q25 -26 59.5 -38t67 -16t56.5 -3t30 1q95 10 195 38t206 62q36 11 73 22.5t75 22.5l12 -42q-75 -23 -147 -45q-108 -34 -209.5 -62.5t-200.5 -38.5q-5 -1 -15.5 -1.5t-24.5 -0.5z" />
    <glyph glyph-name="s" unicode="s" horiz-adv-x="1933" 
d="M888 -29q-38 0 -66 15t-42 42q-7 13 -7.5 32t10.5 33q4 5 13.5 12t24.5 12t36.5 6.5t48.5 -3.5q42 -8 77.5 -23t73.5 -26q4 3 7 6t8 7q19 18 33.5 43t22 52t5.5 53t-16 47q-18 27 -44 38.5t-54.5 13.5t-58.5 -1t-55 -4q-63 -4 -123 -13t-117 -19q-89 -15 -173.5 -35.5
t-167 -43.5t-163 -46.5t-161.5 -45.5l-13 42q85 23 168.5 47t166.5 47t167 43t169 35q63 11 123 20t120 13q35 2 71 4t69 -3t62 -20t51 -48q18 -27 22 -62t-7 -73q-8 -32 -25.5 -62.5t-40.5 -52.5q44 -15 93.5 -25t115.5 -8q63 2 139 17t156.5 36t160.5 46t152 46l13 -42
q-75 -23 -155.5 -48t-161 -46.5t-158 -36t-145.5 -16.5q-80 -2 -139 12t-110 33q-36 -26 -76 -37t-97 -13h-3zM816 50q1 -12 10 -19t20.5 -11t23.5 -4.5t20 -0.5q41 1 70 6.5t54 19.5q-29 11 -57.5 21t-58.5 15q-9 2 -23.5 4t-28 0.5t-22.5 -8.5t-8 -23z" />
    <glyph glyph-name="t" unicode="t" horiz-adv-x="1933" 
d="M1932 122q-53 -12 -118.5 -26.5t-137 -29.5t-145.5 -30t-143.5 -27.5t-131.5 -21.5t-108 -13q-30 -3 -61 4t-59 21.5t-51 37t-37 51.5q-15 33 -21 75.5t-5.5 92t6.5 103.5t15 110q-112 -54 -226 -100t-231 -87.5t-236.5 -80.5t-241.5 -79l-13 42q116 39 239 78.5
t246.5 83t243 93t229.5 108.5q7 35 16 77t21 88q-35 7 -73.5 14.5t-79 13t-81 8.5t-77.5 1q-9 0 -25.5 -1.5t-36 -5.5t-39.5 -12t-36 -22l-28 33q21 18 45 28t46.5 15.5t42 7t30.5 1.5q79 2 160 -10.5t164 -27.5q18 65 41 131.5t49.5 124t56.5 102t62 65.5q21 14 37 12.5
t24 -5.5q20 -11 31 -38t11 -65q0 -105 -29.5 -193.5t-94.5 -175.5q45 -10 91 -17t95.5 -9.5t103.5 1.5t114 16l9 -43q-51 -10 -97 -14.5t-89 -4.5q-72 0 -135 9.5t-123 22.5q-41 -49 -82 -86.5t-85 -67.5q-7 -36 -15 -88.5t-11.5 -108t0.5 -108t21 -88.5q12 -25 33 -43
t47 -29t54.5 -15t54.5 -1q45 4 104 12.5t126.5 20t138.5 25t139.5 28t131 29.5t112.5 30zM1228 1122q-26 -18 -52.5 -57.5t-51 -93t-47 -117t-41.5 -129.5q24 -5 48.5 -10.5t50.5 -11.5q66 85 97 171t31 188q0 26 -6 43t-14 21q-1 1 -3 1q-5 0 -12 -5zM1103 665q-19 4 -38 9
t-40 9q-8 -31 -15 -60.5t-13 -58.5q27 21 53.5 46.5t52.5 54.5z" />
    <glyph glyph-name="u" unicode="u" horiz-adv-x="1932" 
d="M1932 122l-166 -48t-162.5 -43.5t-153 -34t-136.5 -20.5q-6 -1 -11.5 -1h-10.5q-74 0 -124 45q-28 25 -41 62q-5 -8 -11.5 -15.5t-14.5 -14.5q-38 -36 -89.5 -56t-102.5 -20q-32 0 -57 7q-38 11 -63 36t-34 62q-9 35 -4 69t19.5 65t34.5 58t40 48q-108 -12 -211 -32.5
t-204.5 -45.5t-201 -53.5t-199.5 -58.5l-29 -9l-13 42l30 9q106 31 209.5 60.5t209.5 55t215 45.5t225 31q5 1 10.5 1.5t10.5 1.5l10 2l15 -41q-18 -9 -43.5 -32t-47 -55t-33.5 -71t-1 -80q12 -49 67 -66q24 -7 52 -6.5t56 8t54 22t45 34.5q21 22 35 51t23 55.5t13 45.5
t5 21l42 -11q-1 -3 -3.5 -12t-5.5 -19.5t-6 -19t-3 -9.5q-3 -13 -5 -27t-2 -31q0 -45 33 -75q20 -19 50 -27.5t62 -5.5q62 6 134.5 20.5t151 34t160.5 43t164 47.5z" />
    <glyph glyph-name="v" unicode="v" horiz-adv-x="1935" 
d="M1083 -28q-44 0 -70 32q-49 57 -25 189q6 34 -6.5 66t-31.5 47q-16 12 -40.5 18.5t-52.5 4.5q-101 -4 -182.5 -15.5t-154.5 -28.5t-142 -39.5t-143 -47.5q-55 -18 -112 -37t-123 -39l-13 42q66 20 123 38.5t111 37.5q72 25 142 47t145 40t159.5 30t187.5 16q36 2 68 -7
t54 -26q31 -25 46 -68.5t8 -85.5q-10 -55 -6 -94.5t21 -59.5q9 -11 19.5 -14t18.5 -2q36 0 59 25q19 21 28.5 55.5t12 72.5t1 74.5t-2.5 62.5q-1 17 -1.5 29t0.5 20l41 7q8 -15 29 -39.5t48 -50t55.5 -49t51.5 -38.5q49 -30 102 -46.5t115.5 -19t135.5 8.5t161 36l12 -42
q-93 -26 -170.5 -37.5t-144 -8.5t-124 21t-110.5 51q-18 11 -38 27t-41 34t-41 37.5t-36 37.5q2 -31 2.5 -68t-4.5 -74.5t-16.5 -71.5t-33.5 -58q-34 -38 -89 -40h-3z" />
    <glyph glyph-name="w" unicode="w" horiz-adv-x="2239" 
d="M1269 -27q-13 0 -25 1t-23 4q-35 8 -61.5 28t-40.5 50q-3 -2 -7 -6q-27 -24 -60 -41.5t-67.5 -26.5t-69 -9t-64.5 9q-79 23 -99 99q-9 35 -5 68.5t17 64t31.5 56.5t38.5 47q-107 -12 -209 -31.5t-201 -44t-197 -52.5t-198 -58l-29 -9l-13 42l30 9q105 31 209 60.5t209 55
t213.5 45t224.5 31.5q11 1 21 2.5t11 1.5l14 -40q-18 -9 -43.5 -32t-47 -55t-33.5 -71t-1 -79q8 -32 29 -47.5t40 -21.5q25 -8 54 -7t58 9t57 22.5t51 34.5l10.5 10.5t10.5 12.5q-4 27 -3 56.5t6 56.5t13 49t19 34q19 19 40 13q6 -2 15 -9t13 -25q3 -16 0.5 -38t-10 -47
t-19.5 -51t-27 -49l3 -12q12 -31 34.5 -44.5t42.5 -18.5q24 -6 51.5 -4t55 10.5t53 23t46.5 34.5q45 44 60 121q2 13 3 32.5t0 39.5t-3 38.5t-5 29.5l40 16q8 -15 29.5 -37.5t49.5 -47t57.5 -47.5t53.5 -38q42 -26 89 -44t106.5 -23.5t135 3.5t174.5 37l12 -42
q-190 -54 -320 -42q-116 9 -221 74q-16 10 -35.5 24.5t-40 31t-41 34.5t-37.5 36q1 -24 -0.5 -46t-3.5 -37q-17 -92 -74 -145q-39 -38 -92 -58.5t-105 -20.5zM1165 263q-5 1 -10 -11.5t-9 -31t-6 -39.5t-1 -39q8 16 15 36.5t10.5 38.5t4 31t-3.5 15z" />
    <glyph glyph-name="x" unicode="x" horiz-adv-x="1936" 
d="M1936 123q-83 -24 -166.5 -48t-163 -43.5t-153 -34t-136.5 -20.5h-1q-35 -3 -63 -3q-57 0 -95.5 8.5t-65.5 26t-45 43.5t-33 61q-2 5 -4 9.5t-4 9.5q-20 -35 -40 -66.5t-42 -53.5q-39 -39 -84 -39q-25 0 -50 12l19 40q24 -11 44.5 -6t40 24t39 51t43.5 74q2 4 4.5 7.5
t4.5 8.5q-7 20 -12 35.5t-10 27.5q-19 43 -54.5 65t-85.5 16q-92 -9 -173 -24t-157.5 -34t-151 -41.5t-153.5 -47.5q-45 -14 -91.5 -28.5t-96.5 -29.5l-13 42q50 15 96.5 29.5t91.5 28.5q76 24 151 47t153 42.5t162 35t177 24.5q65 8 115.5 -22.5t70.5 -88.5q2 -6 4.5 -14
t4.5 -16q5 11 12.5 26t16.5 30q12 20 27 36.5t35.5 28t49 17t68.5 4.5l-1 -44q-40 2 -65.5 -4.5t-42.5 -20t-30 -34.5t-27 -48q-5 -11 -10.5 -20t-12.5 -22q5 -11 9.5 -23t11.5 -26q14 -32 30.5 -55t44 -37t71.5 -19t113 0q62 6 134.5 20.5t151 34t161 43t164.5 47.5z" />
    <glyph glyph-name="y" unicode="y" horiz-adv-x="1933" 
d="M889 -817q-23 0 -37.5 9t-22.5 18q-21 24 -27 64t-0.5 86t21.5 93.5t39 88.5q45 80 113.5 157t151.5 143q2 21 4.5 41t4.5 39q4 29 6.5 55.5t4.5 51.5q-57 -46 -123.5 -55.5t-132.5 22.5q-44 21 -63 58.5t-11 84.5l3 18q4 22 7.5 43.5t4 40.5t-2 34.5t-11.5 26.5
q-21 26 -83 27h-7q-44 0 -99 -11t-117.5 -28.5t-129 -40t-133.5 -45.5q-63 -21 -126 -42.5t-123 -39.5l-12 42q60 18 122 39t125 42q73 25 143 48.5t134 41.5t120.5 28t103.5 9q82 -1 116 -43q13 -17 18.5 -37t5.5 -43t-4 -48.5t-9 -51.5q-1 -5 -1.5 -8.5t-1.5 -8.5
q-12 -66 50 -96q63 -31 127.5 -15t115.5 73q2 23 2.5 43.5t2.5 39.5q3 47 5.5 81t8.5 57q1 5 4.5 15t10.5 19.5t18.5 17.5t29.5 9q28 2 42 -20q12 -19 10 -50t-11 -64.5t-22 -64t-23 -47.5q-17 -30 -36 -54q-3 -35 -6.5 -74.5t-9.5 -84.5q-2 -9 -3 -21t-3 -22
q76 56 157.5 101t161.5 70q53 16 115.5 33.5t126.5 34.5q51 14 98 26.5t89 24.5l12 -42q-42 -12 -89 -24.5t-99 -26.5q-63 -17 -125.5 -34t-114.5 -34q-86 -26 -172 -73.5t-165 -109.5q0 -5 -0.5 -8.5t-1.5 -7.5q-6 -61 -13.5 -125t-18.5 -126.5t-27 -120.5t-40 -105.5
t-56.5 -82.5t-76.5 -52q-13 -5 -24 -7t-21 -2zM1123 -212q-69 -60 -127 -129.5t-96 -138.5q-21 -37 -35.5 -80.5t-19.5 -85.5q-5 -39 -0.5 -70t17.5 -46q3 -4 15.5 -10t41.5 5q54 21 89.5 78.5t58 135t35 167t21.5 174.5zM1215 304q-3 -10 -5.5 -32t-5 -46.5t-4.5 -48.5
t-3 -39q5 10 10.5 26t11 33.5t10 34t7.5 28.5q9 37 13 58.5t-6 24.5q-8 3 -15.5 -8t-12.5 -31z" />
    <glyph glyph-name="z" unicode="z" horiz-adv-x="1935" 
d="M919 -813q-48 33 -43 183q1 28 4 58.5t7.5 59.5t10.5 56t13 49q32 103 73 167.5t92 106.5q-14 44 -36.5 82.5t-58.5 59.5q-38 21 -87.5 14.5t-102.5 -44.5l-26 35q1 0 6.5 5.5l14 14l18 18l18.5 18.5q18 19 40 41.5t46.5 47.5t50.5 50t51 48q8 8 16 15l16 14
q-7 3 -13 6.5t-12 6.5q-22 12 -40 20q-14 5 -32.5 8.5t-42.5 4.5q-72 3 -161.5 -11.5t-187.5 -38.5t-201 -54.5t-202 -60.5q-40 -12 -77 -23t-73 -22l-12 42q35 11 72 22t77 23q100 31 204 62t204.5 55t192 38t165.5 11q55 -1 90 -15q11 -5 22.5 -11t22.5 -11q10 -6 20 -11
l20 -10q44 36 65.5 46t32.5 10q14 -1 23.5 -7.5t14 -16.5t4.5 -21t-4 -20q-5 -12 -16 -21t-24.5 -14.5t-27.5 -8t-24 -2.5q-17 0 -35 6q-11 -10 -23 -20.5t-26 -24.5q-21 -20 -44 -42t-46 -45l-44.5 -44.5l-39.5 -39.5q37 16 74.5 13t63.5 -18q73 -42 111 -153
q34 23 70.5 40t75.5 32q102 41 215.5 73.5t228.5 63.5q55 15 110.5 30t109.5 31l12 -42q-54 -16 -110 -31.5t-110 -29.5q-119 -32 -229 -64t-210 -71q-42 -17 -79.5 -34.5t-70.5 -41.5q7 -29 12 -65q5 -38 7 -78.5t0.5 -82t-6 -82t-12.5 -77.5q-8 -36 -17 -73.5t-23.5 -73.5
t-36 -68t-53.5 -56q-17 -13 -39.5 -17t-38.5 10zM1089 -176q-41 -38 -75 -97t-61 -147q-6 -21 -11.5 -46.5t-10 -53t-7.5 -56.5t-4 -56q-3 -70 5.5 -104t18.5 -42q5 -3 13 -3t14 5q27 20 45.5 49.5t31.5 63t21 69t15 68.5q6 27 10.5 62t6.5 75t0.5 82.5t-7.5 85.5
q-1 10 -2 22t-3 23zM1183 334q-4 3 -10.5 1t-15 -6.5t-17 -10.5t-15.5 -11q4 0 15.5 1t22 4t17.5 8.5t3 13.5z" />
    <glyph glyph-name="B" unicode="B" horiz-adv-x="1932" 
d="M911 -23q-57 0 -98 26q-13 8 -26 21t-23 32t-15.5 45t-2.5 60q3 40 7.5 73.5t10 63.5t11.5 57.5t13 56.5q2 10 4.5 20.5t5.5 21.5q-63 -45 -138 -87t-160 -75q-53 -21 -114 -42.5t-125.5 -43.5t-131 -43t-130.5 -40l-12 42q64 19 129.5 39.5t130 42.5t125 43.5
t113.5 42.5q97 38 179 86.5t148 99.5q15 64 32 131t36.5 132t41 125t45 110t49.5 87t53 55q21 14 36.5 12.5t23.5 -5.5q20 -11 31.5 -38t11.5 -65q0 -51 -8.5 -98.5t-26.5 -96t-46 -99t-68 -106.5q-23 -32 -66 -76.5t-105 -92.5q-4 -14 -7 -26.5t-5 -22.5q-2 -11 -4.5 -21.5
t-4.5 -21.5q-7 -28 -13 -55t-11.5 -56t-9.5 -61.5t-7 -71.5q-6 -84 46 -118q18 -11 40.5 -15.5t47.5 -3t51.5 9.5t50.5 22q42 24 65 60t34.5 75t14 76t3.5 63q1 9 1 16t1 13l41 7q8 -15 29 -39.5t48 -50t55.5 -49t51.5 -38.5q194 -120 550 -21l12 -42q-191 -54 -342 -46
q-141 9 -243 72q-18 12 -39.5 28.5t-43 35.5t-42 39t-36.5 39q-2 -30 -7.5 -67.5t-20.5 -76t-41 -73.5t-69 -59q-67 -38 -137 -38zM1105 1128q-4 0 -12 -5q-12 -8 -28 -26.5t-35.5 -53t-41.5 -87.5t-47 -129q-22 -68 -40.5 -136.5t-32.5 -126.5q42 36 72 68t47 56
q38 54 65 101.5t44 92.5t24.5 89.5t7.5 91.5q0 26 -6 43t-13 21q-1 1 -4 1z" />
    <glyph glyph-name="C" unicode="C" horiz-adv-x="1933" 
d="M1933 124q-150 -45 -307.5 -76.5t-305.5 -48.5q-103 -11 -198.5 -16.5t-183.5 -5.5h-30q-60 1 -100 28.5t-52 76.5q-12 45 -2.5 89t38.5 86q14 20 34 37.5t38 28.5q-106 -10 -207.5 -29t-200.5 -43t-197 -52t-195 -57l-63 -18l-13 41q17 5 32.5 9.5t31.5 9.5
q115 34 228 66t228.5 58t236 43.5t251.5 22.5h2q33 2 64.5 -5.5t56.5 -27.5q29 -23 45 -56t16 -68h-44q0 26 -11.5 49.5t-32.5 40.5q-35 26 -90 23q-23 0 -45 -6t-42 -16q-15 -8 -39 -26.5t-45 -46t-32.5 -64t-0.5 -78.5q6 -23 19 -37.5t29 -22t32.5 -10t29.5 -2.5
q93 -1 196 4.5t212 17.5q146 16 301 47t303 75z" />
    <glyph glyph-name="D" unicode="D" horiz-adv-x="1933" 
d="M1933 124q-52 -15 -120.5 -31t-144.5 -31t-155 -28.5t-151.5 -24.5t-134 -19.5t-103.5 -12.5q-25 0 -49.5 6.5t-48.5 27.5q-23 22 -38.5 53t-19.5 66q-11 -20 -25 -40t-31 -37q-38 -35 -89 -56t-103 -21q-60 0 -101 28t-54 78q-11 45 -1.5 89t38.5 86q14 19 34 36t41 31
q-62 -8 -117 -19.5t-106 -26.5t-100 -32.5t-98 -35.5q-55 -20 -117.5 -42t-138.5 -44l-12 41q75 23 135.5 44t117.5 42q68 25 137.5 47.5t141.5 39t146.5 26.5t153.5 10q67 0 109 -33q17 -14 30 -36.5t19 -45.5q11 75 25.5 148t29.5 148q11 52 24.5 112t29 120.5t33.5 119
t39.5 108t46 87t52.5 56.5q21 14 36.5 12.5t23.5 -6.5q20 -11 31.5 -37.5t11.5 -64.5q0 -23 -9.5 -60.5t-24.5 -83t-34 -95t-38.5 -97t-38 -89.5t-31.5 -71q-45 -98 -88.5 -189t-81.5 -162q-2 -19 -3.5 -34t-1.5 -26q0 -21 7 -46t21 -45t34.5 -33t47.5 -10q41 4 102 12
t133 19t150 24.5t153 28t143 30t119 30.5zM1076 546q-11 -57 -25 -113.5t-25 -116.5q30 65 63 139t65.5 149.5t62 148t51.5 133.5t35.5 107t13.5 69q0 7 -1 20t-4.5 23.5t-10.5 16.5t-19 0q-25 -17 -47 -52.5t-41.5 -84t-36.5 -105t-31.5 -115t-27 -115.5t-22.5 -104z
M882 85q20 20 35.5 49t21 60t-2 61t-34.5 52q-32 24 -82 24q-52 0 -96 -23q-15 -8 -39 -26.5t-45 -46t-32.5 -64t-0.5 -78.5q6 -24 20.5 -38.5t31.5 -22t33.5 -9.5t27.5 -2q44 0 87 17t75 47z" />
    <glyph glyph-name="E" unicode="E" horiz-adv-x="1934" 
d="M1934 125q-150 -45 -307.5 -76.5t-305.5 -47.5q-103 -11 -198.5 -17t-184.5 -6h-30q-59 1 -99 28.5t-53 76.5q-11 45 -1.5 89t38.5 86q14 20 30 36t32 28q-106 -11 -206 -29t-197.5 -41.5t-193.5 -51.5t-194 -57l-63 -18l-13 42q17 5 32.5 9t31.5 9q115 34 228 66t229 58
t237 43.5t252 22.5q34 2 65.5 -5.5t56.5 -27.5q22 -17 39.5 -47.5t16.5 -63.5q-2 -44 -40 -72q-29 -19 -67 -24t-75 -7q-14 -1 -26.5 -1.5t-23.5 -2.5q-5 -1 -10 -1.5t-10 -1.5q-16 -2 -33.5 -4.5t-34 -6.5t-30.5 -10.5t-24 -15.5q7 -20 20 -32t28.5 -19t31 -9t27.5 -2
q92 -1 195.5 4.5t212.5 17.5q146 16 301 47.5t304 75.5zM915 309q-13 -6 -34 -21.5t-40.5 -38.5t-33 -52.5t-13.5 -64.5q26 16 59.5 22t64.5 11q5 0 10 0.5t10 1.5q12 2 25.5 3t28.5 2q32 2 65 6t54 18q21 13 22 37q1 18 -10.5 39t-29.5 36q-32 24 -83 24q-25 0 -48 -6
t-47 -17z" />
    <glyph glyph-name="F" unicode="F" horiz-adv-x="1935" 
d="M850 -804h-8q-39 5 -64 50.5t-30 122.5q-3 47 -6.5 127t-2.5 189t7.5 244t23.5 291q-17 24 -28 43.5t-13 33.5q-3 19 0 32.5t8.5 22t12 13t11.5 6.5q10 5 27 5q3 20 5.5 39t5.5 39v1q-63 -45 -137.5 -87t-159.5 -74q-54 -21 -115 -43t-125.5 -44t-131 -43t-130.5 -40
l-12 42q64 19 129.5 40t130 42.5t125 43t113.5 42.5q95 37 176.5 85t147.5 98q13 68 34.5 153.5t50.5 172.5q87 259 176 319q21 14 36.5 12t23.5 -6q20 -11 31.5 -38t11.5 -65q0 -51 -8.5 -98.5t-26.5 -96t-46 -99.5t-68 -107q-23 -32 -67.5 -77t-107.5 -94q-2 -12 -4 -23
l-4 -22q-3 -22 -6 -43t-5 -43q20 -11 35 -30q35 -46 63.5 -108t49.5 -139q10 -7 20 -11q26 -13 54.5 -20.5t58 -11.5t58.5 -5t55 -1q38 -1 109 6.5t164 23.5t201.5 40.5t222.5 59.5l13 -41q-117 -36 -227.5 -61.5t-204.5 -41.5t-166.5 -23.5t-112.5 -6.5q-54 2 -114.5 7
t-117.5 30q10 -45 16.5 -91.5t11.5 -96.5q6 -66 6.5 -132.5t-4 -128t-13 -115.5t-21.5 -95q-26 -85 -62 -129.5t-76 -44.5zM809 173q-14 -147 -20 -274t-6.5 -229t3 -177.5t6.5 -120.5q5 -66 21.5 -98t33.5 -34q20 -2 47 31.5t52 111.5q16 51 25.5 128.5t10 168.5t-9 188.5
t-31.5 188.5q-36 23 -69.5 53.5t-62.5 62.5zM815 233q20 -26 47.5 -53.5t58.5 -53.5q-17 52 -39 97t-51 82q-2 3 -7 8q-2 -20 -4.5 -40t-4.5 -40zM783 332q-4 0 -5 -1q-6 -2 -6 -12.5t1 -15.5q0 -4 5 -14q1 11 2 21.5t3 21.5zM1107 1130q-4 0 -12 -5q-23 -16 -46 -49.5
t-45 -79t-42.5 -100t-38.5 -112t-33.5 -115t-26.5 -109.5q45 38 76.5 71t49.5 59q38 54 65 101.5t44 92.5t24.5 89.5t7.5 91.5q0 26 -6 43t-13 21q-1 1 -4 1z" />
    <glyph glyph-name="G" unicode="G" horiz-adv-x="1932" 
d="M1932 123q-87 -26 -177 -50.5t-193 -50.5q-132 -34 -248 -87t-213 -123q-18 -108 -39 -211.5t-48 -188t-62.5 -143t-83.5 -76.5q-13 -5 -24 -7t-20 -2q-24 0 -38.5 9t-22.5 18q-21 24 -27 64t-0.5 86t21.5 93.5t39 88.5q47 83 113.5 156.5t151.5 136.5q2 12 4 24.5
t4 24.5q8 42 14.5 83t13.5 80q-37 -34 -86.5 -53.5t-100.5 -19.5q-60 0 -101 28t-54 78q-11 45 -2 89t39 86q14 20 39.5 40t54.5 34q-114 -12 -227 -34t-224 -50t-220 -60t-215 -63l-13 42q126 35 247.5 69.5t245 63t253 48.5t271.5 28h5q67 0 109 -34q36 -29 50 -77l24 -8
q-17 -46 -28.5 -94t-20 -97t-16.5 -98.5t-19 -97.5q95 63 206.5 113.5t236.5 82.5q103 26 192.5 50.5t176.5 50.5zM853 -766q37 14 66.5 66.5t54 128.5t44 167t35.5 183q-68 -56 -124 -122t-95 -136q-21 -37 -35.5 -80.5t-19.5 -85.5q-5 -39 -0.5 -70t17.5 -46
q3 -4 15.5 -10t41.5 5zM1071 84q28 26 43.5 61.5t15.5 77.5q-2 26 -11.5 47.5t-27.5 35.5q-29 24 -82 24h-5h-7q-43 -3 -83 -22q-15 -8 -39 -26.5t-45 -46.5t-32.5 -64t-0.5 -79q6 -24 20.5 -38.5t31.5 -22t33.5 -9.5t27.5 -2q44 0 87 17.5t74 46.5z" />
    <glyph glyph-name="H" unicode="H" horiz-adv-x="1932" 
d="M1932 123q-79 -23 -161.5 -46t-162.5 -43.5t-155.5 -35.5t-139.5 -21q-5 -1 -9 -1h-9q-35 0 -68.5 13t-59.5 36q-48 43 -48 103q0 11 1 22t3 22q3 18 4.5 35.5t-1 35t-10.5 33.5t-26 31q-15 12 -36 18t-45 6t-49 -5.5t-48 -17.5q-14 -7 -31.5 -20t-34.5 -31t-31 -40
t-20 -47q-12 -48 -17.5 -87.5t-11.5 -84.5l-43 5q8 68 20.5 136.5t26.5 149.5q4 27 8 53t8 48.5t7 39t5 24.5q-63 -45 -137.5 -87t-159.5 -75q-54 -21 -115 -42.5t-125.5 -43.5t-130.5 -43t-130 -40l-12 42q64 19 129.5 39.5t129.5 42.5t124.5 43.5t113.5 42.5
q97 38 179.5 86.5t148.5 99.5q15 64 32 131t36 132t40.5 125t45 110t49 87t53.5 55q21 14 36.5 12.5t23.5 -6.5q20 -11 31.5 -37.5t11.5 -64.5q0 -51 -8.5 -98.5t-26.5 -96t-46 -99.5t-68 -107q-23 -32 -66 -76t-105 -92q-4 -14 -6.5 -26.5l-4.5 -22.5q-2 -6 -4.5 -22.5
t-6.5 -38.5t-8.5 -47.5t-8.5 -50.5q22 23 43.5 38t36.5 23q24 12 53.5 19.5t60 8t59 -7.5t51.5 -26q25 -21 37 -43.5t15.5 -45.5t2 -45t-4.5 -41q-2 -11 -3 -20.5t-1 -17.5q0 -26 11 -43t22 -28q22 -20 52.5 -29.5t59.5 -7.5q63 6 137 21t153.5 35t161 43t159.5 46zM941 827
q-22 -68 -40.5 -136.5t-32.5 -126.5q42 36 72 68t47 56q38 54 65 101.5t44 92.5t24.5 89.5t7.5 91.5q0 7 -1 19.5t-5 24t-10.5 17.5t-18.5 -1q-12 -8 -28 -26.5t-35.5 -53t-41.5 -87.5t-47 -129z" />
    <glyph glyph-name="J" unicode="J" horiz-adv-x="1945" 
d="M1945 123q-88 -26 -178 -51t-194 -51q-141 -36 -277 -90.5t-253 -120.5q-14 -8 -28 -16.5t-28 -17.5q-12 -63 -25.5 -123t-28.5 -117q-43 -158 -89 -243.5t-101 -106.5q-26 -9 -45 -9q-24 0 -38.5 9.5t-22.5 18.5q-21 24 -27.5 64t-0.5 86.5t22 94t39 88.5
q38 68 108 134.5t170 130.5q15 77 28 151t24 142q12 69 22 128.5t20 105.5q-134 -7 -267 -26.5t-264 -47.5t-259 -62.5t-252 -70.5l-12 42q128 38 261 73.5t268.5 64t274 48t277.5 24.5l29 1q-16 -68 -28.5 -137.5t-26.5 -149.5q-10 -60 -22.5 -128t-25.5 -134
q57 36 125.5 70.5t143 65t150.5 56.5t148 44q103 26 193 51t178 51zM890 -453q13 47 26 99t24 103q-81 -56 -140.5 -115.5t-91.5 -116.5q-21 -38 -35.5 -81.5t-19.5 -85.5q-5 -40 -0.5 -71t17.5 -46q3 -4 15.5 -10.5t41.5 4.5q86 33 163 320zM1256 793q-11 0 -22 5.5
t-17 15.5q-13 21 -2 42q5 12 16 19t25 7q20 0 32 -14q13 -14 11 -33q-2 -22 -15.5 -32t-27.5 -10z" />
    <glyph glyph-name="K" unicode="K" horiz-adv-x="1933" 
d="M1933 122q-86 -23 -173 -48.5t-171.5 -47t-164.5 -35.5t-152 -14q-23 1 -45 9.5t-41.5 20.5t-37 27t-30.5 29q-11 14 -23.5 28t-26.5 29q-2 -2 -5 -2.5t-5 -1.5q-38 -14 -75 -18.5t-63 -4.5q-9 0 -21 2t-25 7t-24.5 12.5t-18.5 18.5q-16 24 -5 52q18 48 101 50h3
q47 0 83 -19t64 -44q18 10 30.5 22.5t16.5 29.5q6 25 -6 47t-28 35q-14 12 -35 18t-45 6t-49 -5.5t-48 -17.5q-14 -7 -31.5 -20t-34.5 -31t-30.5 -40t-20.5 -47q-12 -42 -18 -84.5t-12 -87.5l-43 5q8 72 22 142t25 144q4 27 8.5 53t8.5 48.5t6.5 39t4.5 24.5
q-63 -45 -137.5 -87t-159.5 -75q-54 -21 -115 -42.5t-125.5 -43.5t-130.5 -43t-130 -40l-13 42q64 19 130 39.5t130 42.5t124.5 43.5t113.5 42.5q97 38 179.5 86.5t148.5 99.5q22 96 49.5 197.5t60 191t69.5 157.5t78 95q21 14 36.5 12.5t23.5 -6.5q20 -11 31.5 -37.5
t11.5 -64.5q0 -51 -8.5 -98.5t-26.5 -96t-46 -99.5t-68 -107q-23 -32 -66.5 -76t-105.5 -93q-3 -14 -6 -26.5t-5 -22.5q-2 -6 -4.5 -22.5t-6.5 -38.5t-8 -47.5t-8 -50.5q21 23 42.5 38t36.5 23q25 13 55 20.5t60 7.5t58.5 -8t51.5 -26q30 -25 43.5 -59t5.5 -67
q-10 -43 -58 -74q11 -11 20.5 -23.5t20.5 -23.5q14 -15 32 -30t38.5 -26t43 -16.5t45.5 -1.5q63 6 137 21t153.5 35t161.5 43t160 46zM941 826q-22 -67 -40 -136t-32 -127q42 36 72 68t47 56q38 54 65 101.5t44 92.5t24.5 89.5t7.5 92.5q0 26 -6 43t-13 21h-4q-5 0 -12 -4
q-12 -9 -28.5 -27.5t-36 -53t-41.5 -87t-47 -129.5zM921 137q22 -1 52 3.5t59 12.5q-21 17 -46.5 27.5t-55.5 10.5h-2q-19 0 -37.5 -4t-23.5 -17q-4 -7 1 -12q6 -9 22.5 -15t30.5 -6z" />
    <glyph glyph-name="I" unicode="I" horiz-adv-x="1781" 
d="M1781 123q-18 -5 -36 -10.5t-36 -11.5q-68 -20 -137 -40t-135.5 -37t-130.5 -29.5t-122 -18.5q-5 -1 -15.5 -1.5t-24.5 -0.5q-21 0 -47.5 2.5t-55 10t-56.5 21t-50 36.5q-65 65 -54 176q3 31 9 59t12 51q-106 -6 -198.5 -20t-179.5 -34t-171 -45t-172 -53
q-44 -14 -88.5 -27.5t-92.5 -27.5l-13 42q48 14 92.5 27.5t88.5 27.5q92 29 180 55t179.5 47t190 35t212.5 18l31 1q-4 -14 -6.5 -22.5t-5.5 -19.5q-6 -22 -13.5 -53t-10.5 -65q-9 -91 41 -141q25 -26 60 -38t67 -16t56.5 -3t30.5 1q56 6 118.5 18.5t128.5 29.5t134 37
l136 40l72 21zM1118 793q-12 0 -23 5.5t-17 15.5q-13 21 -2 42q5 12 16 19t25 7q21 0 33 -14q12 -15 10 -33q-2 -22 -15 -32t-27 -10z" />
    <glyph glyph-name="L" unicode="L" horiz-adv-x="1935" 
d="M1149 -26q-30 0 -61 7t-59 21t-51 35.5t-37 50.5q-15 33 -21 75.5t-5 92t7 103.5t15 110q-69 -40 -142 -69t-155 -58q-33 -12 -67.5 -24.5t-71.5 -26.5q-53 -21 -114 -42.5t-125.5 -43.5t-131 -43t-130.5 -40l-13 42q64 19 130 39.5t130.5 42.5t125 43.5t113.5 42.5
q36 14 71 26.5t68 24.5q90 32 169 64.5t152 79.5q9 47 23 106.5t32.5 123t41 126.5t48 118t54.5 96.5t60 62.5q21 14 37 12t24 -6q20 -11 31 -38t11 -65q0 -114 -36 -211t-114 -191q-42 -51 -84.5 -90t-87.5 -70q-1 -5 -1.5 -10t-1.5 -10q-6 -35 -13 -84.5t-10 -102.5
t1 -103t20 -84q12 -25 33 -43t47 -29t54.5 -15t54.5 -1q45 4 104 12.5t126.5 20t138.5 25t139.5 28t131 30t112.5 29.5l13 -42q-50 -15 -113.5 -30t-133 -30t-141.5 -28.5t-140 -25t-128 -20t-105 -13.5q-6 0 -12 -0.5t-13 -0.5zM1241 1128q-4 0 -11 -5q-23 -15 -46 -47.5
t-45.5 -76.5t-42.5 -97.5t-38.5 -110.5t-33.5 -115t-26 -112q32 26 63.5 56.5t62.5 68.5q73 88 107 178t34 196q0 26 -6 43t-14 21q-1 1 -4 1z" />
    <glyph glyph-name="M" unicode="M" horiz-adv-x="2717" 
d="M2717 122q-79 -23 -161.5 -46.5t-162.5 -43.5t-155.5 -35t-139.5 -21q-5 -1 -8.5 -1h-8.5q-33 0 -66 12t-58 34q-50 43 -52 105q-1 10 -1.5 31.5t0.5 53.5q1 30 -8.5 54.5t-29.5 40.5q-32 24 -94 24q-56 0 -92.5 -15.5t-61 -42t-40 -62t-28.5 -76.5q-6 -21 -14.5 -43.5
t-17 -43t-15.5 -36.5t-11 -24l-39 18q12 25 29 66t27 84.5t5.5 84t-35.5 66.5q-32 24 -94 24q-56 0 -92.5 -15.5t-60.5 -41.5t-39.5 -62t-28.5 -76q-6 -21 -14.5 -44t-17 -43t-16 -36.5t-11.5 -24.5l-39 18q10 22 20.5 48t20 53.5t16 54.5t8.5 50q2 30 -8.5 54.5t-30.5 39.5
q-16 13 -40 19.5t-53 4.5q-129 -5 -249 -22.5t-235.5 -43t-228 -57.5t-227.5 -66q-15 -5 -30 -9t-29 -9l-13 42q15 5 30 9t29 8q116 34 230 66.5t230.5 58.5t238 44t253.5 23q36 2 67.5 -7.5t53.5 -26.5q36 -27 49 -76q13 20 27 35q68 75 190 75q27 0 61 -6.5t60 -26.5
q37 -29 49 -77q13 20 27 35q66 75 190 75q27 0 61 -6.5t60 -26.5q27 -22 41.5 -56t13.5 -74q-1 -31 -0.5 -51.5t0.5 -30.5q2 -27 13.5 -45t23.5 -29q22 -19 51 -28.5t58 -6.5q63 6 136.5 21t153 35t161 43t159.5 46z" />
    <glyph glyph-name="N" unicode="N" horiz-adv-x="2332" 
d="M2332 122q-79 -23 -161.5 -46.5t-162.5 -43.5t-155.5 -35t-139.5 -22h-17q-33 0 -66 12t-58 34q-50 42 -53 105q0 10 -0.5 31.5t0.5 53.5q1 30 -9 54.5t-30 39.5q-29 24 -93 24h-1q-56 0 -93.5 -16t-62.5 -43t-41.5 -63t-29.5 -77q-6 -21 -13.5 -43t-15 -41.5t-14 -35
t-10.5 -23.5l-39 18q7 15 18 43t21.5 59t18 59.5t7.5 44.5q1 30 -9 54.5t-30 39.5q-16 13 -40 19.5t-53 4.5q-129 -5 -249.5 -22.5t-236 -43t-228 -57.5t-227.5 -66q-15 -5 -30 -9t-29 -9l-13 42q15 5 30 9l30 8q116 34 229.5 66.5t230 58.5t238.5 44t254 23q36 2 67.5 -7
t53.5 -26q37 -29 49 -77q13 20 27 35q69 76 190 76h1q27 0 60.5 -7t59.5 -27q28 -22 42.5 -56t13.5 -74q-2 -62 0 -82q1 -27 13 -45t24 -29q22 -19 51 -28.5t57 -6.5q63 6 137 21t153.5 35t161.5 43t160 46z" />
    <glyph glyph-name="O" unicode="O" horiz-adv-x="1934" 
d="M1934 123q-68 -20 -142 -35.5t-152 -26t-157 -16t-157 -5.5q-127 0 -209 27q-3 -4 -6.5 -8t-8.5 -8q-37 -35 -88.5 -55.5t-103.5 -20.5q-60 0 -100.5 28t-53.5 77q-12 45 -2.5 89.5t38.5 86.5q7 10 18.5 21t25 21t27 18t24.5 13q-106 -11 -211 -30.5t-208.5 -45
t-205 -54.5t-199.5 -58l-63 -18l-13 41q17 5 32.5 9.5t31.5 9.5q115 34 227.5 66t227 58t235 43.5t251.5 22.5h18q68 0 109 -33q26 -20 39.5 -50t15.5 -66q2 -31 -6 -61.5t-24 -58.5q75 -20 182 -20q76 0 154 5.5t154 15.5t149 25t139 35zM1019 231q0 -74 83 -111
q31 47 29 102q-1 20 -6.5 36t-14.5 29q-6 6 -22.5 11.5t-33.5 -2.5q-12 -6 -23.5 -21t-11.5 -44zM910 20q44 0 87 17t75 47q1 0 1 1q-98 49 -98 146q0 17 5.5 33.5t16 30t25.5 21.5t33 8q-13 3 -26.5 4.5t-18.5 1.5q-51 0 -95 -23q-15 -8 -39 -26.5t-45 -46t-32.5 -64
t-0.5 -78.5q6 -24 20.5 -38.5t31.5 -22t33 -9.5t27 -2z" />
    <glyph glyph-name="P" unicode="P" horiz-adv-x="1934" 
d="M1934 122q-38 -12 -103.5 -30.5t-148 -39.5t-177 -41t-190.5 -35q-73 -11 -136.5 -16.5t-117.5 -5.5h-23t-22 1q21 -86 24 -183q4 -102 -10 -207.5t-43 -197.5q-26 -84 -62 -129t-76 -45q-2 0 -4 0.5t-4 0.5q-38 5 -63 50.5t-31 121.5q-4 56 -6.5 127.5t-1.5 161
t6.5 198.5t19.5 240q0 3 2 18.5t5 37.5t6 49t6.5 53t6 48t4.5 36q-33 2 -109.5 -4.5t-185.5 -39.5q-57 -17 -117.5 -38t-120.5 -43q-66 -23 -132.5 -46t-129.5 -42l-13 42q63 19 129 42l132 46q60 21 121 42.5t118 38.5q75 23 136.5 32.5t105 12t68 1t26.5 -1.5l22 -3
l-3 -22q-2 -17 -5 -34t-5 -34q22 24 44 41t39 25q26 13 56 20t60 7q66 0 109 -34q52 -40 55 -116q2 -47 -17 -92.5t-55 -79.5q-19 -18 -42 -32t-49 -25q81 -2 184.5 9.5t220 34t240 54t245.5 68.5zM812 165q-2 -17 -2 -28t1 -19t3.5 -14t4.5 -13q7 -24 24 -42t35.5 -30
t36.5 -18t29 -6q5 0 10.5 0.5t10.5 0.5q-7 20 -17.5 44t-23.5 47.5t-26.5 45.5t-26.5 39q-17 23 -36 20q-6 -2 -13.5 -7.5t-9.5 -19.5zM935 311q-15 -8 -40 -27.5t-46 -48.5q15 -2 30 -11.5t27 -25.5q28 -35 52 -82t41 -95q25 7 52.5 28t50 49.5t37 62t13.5 65.5
q-3 53 -39 83q-30 24 -82 24q-50 0 -96 -22zM945 -620q15 47 28.5 113.5t19.5 143.5t2 159.5t-24 162.5q-52 2 -84 14.5t-51 26.5q-22 16 -33 36q-11 -117 -15.5 -216.5t-5 -182t2 -149t6.5 -118.5q5 -66 21.5 -98.5t33.5 -34.5q20 -2 47.5 31.5t51.5 111.5z" />
    <glyph glyph-name="Q" unicode="Q" horiz-adv-x="1931" 
d="M1931 122q-118 -29 -216.5 -61.5t-178.5 -65t-143.5 -63.5t-111.5 -57q-70 -38 -125 -65.5t-97 -44.5q31 -60 39.5 -131t-2 -144t-37.5 -142.5t-67 -126.5q-10 -15 -27.5 -25.5t-37.5 -10.5q-11 0 -21 3q-67 28 -45 188q11 81 28 169t40 188q-32 4 -43.5 18t-14.5 22
q-7 22 3 45.5t33 37.5q11 7 25 10t28 0q11 42 24 92.5t24 97.5q-15 -17 -36.5 -31.5t-46.5 -25.5t-52 -17.5t-51 -6.5q-60 0 -101 27.5t-54 77.5q-11 45 -1.5 89t38.5 86q14 20 34 37.5t40 28.5q-81 -9 -155.5 -23t-146 -32.5t-141.5 -40t-141 -43.5q-46 -14 -94 -29.5
t-100 -30.5l-13 42q52 15 100 30t94 30q87 28 170.5 53t170.5 45t181.5 33t205.5 18v-1q5 1 13 1q66 0 109 -34q37 -29 49 -77l24 -6l-17 -67q-24 -94 -45.5 -179t-41.5 -165q3 -3 5 -4q8 -9 17 -20.5t17 -21.5q35 15 87.5 43t133.5 71q49 26 113.5 57.5t146 65t181 66.5
t219.5 62zM984 83q29 28 44.5 64.5t13.5 74.5q-2 54 -38 83q-30 24 -82 24q-50 0 -96 -22q-15 -8 -39 -26.5t-45 -46.5t-32 -64t0 -79q6 -24 20.5 -38.5t31 -22t33 -9.5t27.5 -2q44 0 87 17.5t75 46.5zM986 -209q-2 -7 -3 -13.5t-1 -7.5q8 2 12.5 4t7.5 4l6 3q-2 2 -9 14
t-9 14zM910 -216q2 -4 7.5 -10.5t18.5 -7.5q2 12 7 33t8 33q-5 2 -9 2q-5 0 -10 -1t-11 -6q-9 -7 -12 -20.5t1 -22.5zM1058 -461q4 60 -4.5 114t-31.5 97q-14 -5 -26.5 -9t-21.5 -6q-23 -102 -41 -192.5t-29 -172.5q-10 -71 -2 -103.5t20 -37.5q8 -3 18.5 2.5t16.5 14.5
q43 63 69.5 139t31.5 154z" />
    <glyph glyph-name="R" unicode="R" horiz-adv-x="1933" 
d="M1336 -26q-20 0 -46.5 2.5t-55 10t-56.5 21t-50 36.5q-65 63 -54 174q2 24 7.5 55t11.5 57l-188 -1q-29 -7 -77 -17t-111 -23q-73 -15 -162.5 -33.5t-184 -40t-189.5 -45t-180 -48.5l-13 42q85 25 181 49t191 45.5t185 40t164 33.5q64 13 112.5 23t75.5 17l2 1l250 1
l-7 -28q-3 -10 -6.5 -26t-7 -34.5t-6.5 -37t-4 -34.5q-9 -90 41 -139q25 -26 59.5 -38t67 -16t56.5 -3t30 1q95 10 195 38t206 62q36 11 73 22.5t75 22.5l12 -42q-75 -23 -147 -45q-108 -34 -209.5 -62.5t-200.5 -38.5q-5 -1 -15.5 -1.5t-24.5 -0.5z" />
    <glyph glyph-name="S" unicode="S" horiz-adv-x="1934" 
d="M888 -29q-38 0 -66 15t-42 42q-7 13 -7.5 32t10.5 33q4 5 13.5 12t24.5 12t36.5 6.5t48.5 -3.5q42 -8 77.5 -23t73.5 -26q4 3 7 6t8 7q19 18 33.5 43t22 52t5.5 53t-16 47q-18 27 -44 38.5t-54.5 13.5t-58.5 -1t-55 -4q-63 -4 -123 -13t-117 -19q-89 -15 -173.5 -35.5
t-167 -43.5t-163 -46.5t-161.5 -45.5l-13 42q85 23 168.5 47t166.5 47t167 43t169 35q63 11 123 20t120 13q35 2 71 4t69 -3t62 -20t51 -48q18 -27 22 -62t-7 -73q-8 -32 -25.5 -62.5t-40.5 -52.5q44 -15 93.5 -25t115.5 -8q63 2 139 17t156.5 36t160.5 46t152 46l13 -42
q-75 -23 -155.5 -48t-161 -46.5t-158 -36t-145.5 -16.5q-80 -2 -139 12t-110 33q-36 -26 -76 -37t-97 -13h-3zM816 50q1 -12 10 -19t20.5 -11t23.5 -4.5t20 -0.5q41 1 70 6.5t54 19.5q-29 11 -57.5 21t-58.5 15q-9 2 -23.5 4t-28 0.5t-22.5 -8.5t-8 -23z" />
    <glyph glyph-name="T" unicode="T" horiz-adv-x="1931" 
d="M1932 122q-53 -12 -118.5 -26.5t-137 -29.5t-145.5 -30t-143.5 -27.5t-131.5 -21.5t-108 -13q-30 -3 -61 4t-59 21.5t-51 37t-37 51.5q-15 33 -21 75.5t-5.5 92t6.5 103.5t15 110q-112 -54 -226 -100t-231 -87.5t-236.5 -80.5t-241.5 -79l-13 42q116 39 239 78.5
t246.5 83t243 93t229.5 108.5q7 35 16 77t21 88q-35 7 -73.5 14.5t-79 13t-81 8.5t-77.5 1q-9 0 -25.5 -1.5t-36 -5.5t-39.5 -12t-36 -22l-28 33q21 18 45 28t46.5 15.5t42 7t30.5 1.5q79 2 160 -10.5t164 -27.5q18 65 41 131.5t49.5 124t56.5 102t62 65.5q21 14 37 12.5
t24 -5.5q20 -11 31 -38t11 -65q0 -105 -29.5 -193.5t-94.5 -175.5q45 -10 91 -17t95.5 -9.5t103.5 1.5t114 16l9 -43q-51 -10 -97 -14.5t-89 -4.5q-72 0 -135 9.5t-123 22.5q-41 -49 -82 -86.5t-85 -67.5q-7 -36 -15 -88.5t-11.5 -108t0.5 -108t21 -88.5q12 -25 33 -43
t47 -29t54.5 -15t54.5 -1q45 4 104 12.5t126.5 20t138.5 25t139.5 28t131 29.5t112.5 30zM1228 1122q-26 -18 -52.5 -57.5t-51 -93t-47 -117t-41.5 -129.5q24 -5 48.5 -10.5t50.5 -11.5q66 85 97 171t31 188q0 26 -6 43t-14 21q-1 1 -3 1q-5 0 -12 -5zM1103 665q-19 4 -38 9
t-40 9q-8 -31 -15 -60.5t-13 -58.5q27 21 53.5 46.5t52.5 54.5z" />
    <glyph glyph-name="U" unicode="U" horiz-adv-x="1932" 
d="M1932 122l-166 -48t-162.5 -43.5t-153 -34t-136.5 -20.5q-6 -1 -11.5 -1h-10.5q-74 0 -124 45q-28 25 -41 62q-5 -8 -11.5 -15.5t-14.5 -14.5q-38 -36 -89.5 -56t-102.5 -20q-32 0 -57 7q-38 11 -63 36t-34 62q-9 35 -4 69t19.5 65t34.5 58t40 48q-108 -12 -211 -32.5
t-204.5 -45.5t-201 -53.5t-199.5 -58.5l-29 -9l-13 42l30 9q106 31 209.5 60.5t209.5 55t215 45.5t225 31q5 1 10.5 1.5t10.5 1.5l10 2l15 -41q-18 -9 -43.5 -32t-47 -55t-33.5 -71t-1 -80q12 -49 67 -66q24 -7 52 -6.5t56 8t54 22t45 34.5q21 22 35 51t23 55.5t13 45.5
t5 21l42 -11q-1 -3 -3.5 -12t-5.5 -19.5t-6 -19t-3 -9.5q-3 -13 -5 -27t-2 -31q0 -45 33 -75q20 -19 50 -27.5t62 -5.5q62 6 134.5 20.5t151 34t160.5 43t164 47.5z" />
    <glyph glyph-name="V" unicode="V" horiz-adv-x="1932" 
d="M1083 -28q-44 0 -70 32q-49 57 -25 189q6 34 -6.5 66t-31.5 47q-16 12 -40.5 18.5t-52.5 4.5q-101 -4 -182.5 -15.5t-154.5 -28.5t-142 -39.5t-143 -47.5q-55 -18 -112 -37t-123 -39l-13 42q66 20 123 38.5t111 37.5q72 25 142 47t145 40t159.5 30t187.5 16q36 2 68 -7
t54 -26q31 -25 46 -68.5t8 -85.5q-10 -55 -6 -94.5t21 -59.5q9 -11 19.5 -14t18.5 -2q36 0 59 25q19 21 28.5 55.5t12 72.5t1 74.5t-2.5 62.5q-1 17 -1.5 29t0.5 20l41 7q8 -15 29 -39.5t48 -50t55.5 -49t51.5 -38.5q49 -30 102 -46.5t115.5 -19t135.5 8.5t161 36l12 -42
q-93 -26 -170.5 -37.5t-144 -8.5t-124 21t-110.5 51q-18 11 -38 27t-41 34t-41 37.5t-36 37.5q2 -31 2.5 -68t-4.5 -74.5t-16.5 -71.5t-33.5 -58q-34 -38 -89 -40h-3z" />
    <glyph glyph-name="W" unicode="W" horiz-adv-x="2239" 
d="M1269 -27q-13 0 -25 1t-23 4q-35 8 -61.5 28t-40.5 50q-3 -2 -7 -6q-27 -24 -60 -41.5t-67.5 -26.5t-69 -9t-64.5 9q-79 23 -99 99q-9 35 -5 68.5t17 64t31.5 56.5t38.5 47q-107 -12 -209 -31.5t-201 -44t-197 -52.5t-198 -58l-29 -9l-13 42l30 9q105 31 209 60.5t209 55
t213.5 45t224.5 31.5q11 1 21 2.5t11 1.5l14 -40q-18 -9 -43.5 -32t-47 -55t-33.5 -71t-1 -79q8 -32 29 -47.5t40 -21.5q25 -8 54 -7t58 9t57 22.5t51 34.5l10.5 10.5t10.5 12.5q-4 27 -3 56.5t6 56.5t13 49t19 34q19 19 40 13q6 -2 15 -9t13 -25q3 -16 0.5 -38t-10 -47
t-19.5 -51t-27 -49l3 -12q12 -31 34.5 -44.5t42.5 -18.5q24 -6 51.5 -4t55 10.5t53 23t46.5 34.5q45 44 60 121q2 13 3 32.5t0 39.5t-3 38.5t-5 29.5l40 16q8 -15 29.5 -37.5t49.5 -47t57.5 -47.5t53.5 -38q42 -26 89 -44t106.5 -23.5t135 3.5t174.5 37l12 -42
q-190 -54 -320 -42q-116 9 -221 74q-16 10 -35.5 24.5t-40 31t-41 34.5t-37.5 36q1 -24 -0.5 -46t-3.5 -37q-17 -92 -74 -145q-39 -38 -92 -58.5t-105 -20.5zM1165 263q-5 1 -10 -11.5t-9 -31t-6 -39.5t-1 -39q8 16 15 36.5t10.5 38.5t4 31t-3.5 15z" />
    <glyph glyph-name="X" unicode="X" horiz-adv-x="1936" 
d="M1936 123q-83 -24 -166.5 -48t-163 -43.5t-153 -34t-136.5 -20.5h-1q-35 -3 -63 -3q-57 0 -95.5 8.5t-65.5 26t-45 43.5t-33 61q-2 5 -4 9.5t-4 9.5q-20 -35 -40 -66.5t-42 -53.5q-39 -39 -84 -39q-25 0 -50 12l19 40q24 -11 44.5 -6t40 24t39 51t43.5 74q2 4 4.5 7.5
t4.5 8.5q-7 20 -12 35.5t-10 27.5q-19 43 -54.5 65t-85.5 16q-92 -9 -173 -24t-157.5 -34t-151 -41.5t-153.5 -47.5q-45 -14 -91.5 -28.5t-96.5 -29.5l-13 42q50 15 96.5 29.5t91.5 28.5q76 24 151 47t153 42.5t162 35t177 24.5q65 8 115.5 -22.5t70.5 -88.5q2 -6 4.5 -14
t4.5 -16q5 11 12.5 26t16.5 30q12 20 27 36.5t35.5 28t49 17t68.5 4.5l-1 -44q-40 2 -65.5 -4.5t-42.5 -20t-30 -34.5t-27 -48q-5 -11 -10.5 -20t-12.5 -22q5 -11 9.5 -23t11.5 -26q14 -32 30.5 -55t44 -37t71.5 -19t113 0q62 6 134.5 20.5t151 34t161 43t164.5 47.5z" />
    <glyph glyph-name="Y" unicode="Y" horiz-adv-x="1933" 
d="M889 -817q-23 0 -37.5 9t-22.5 18q-21 24 -27 64t-0.5 86t21.5 93.5t39 88.5q45 80 113.5 157t151.5 143q2 21 4.5 41t4.5 39q4 29 6.5 55.5t4.5 51.5q-57 -46 -123.5 -55.5t-132.5 22.5q-44 21 -63 58.5t-11 84.5l3 18q4 22 7.5 43.5t4 40.5t-2 34.5t-11.5 26.5
q-21 26 -83 27h-7q-44 0 -99 -11t-117.5 -28.5t-129 -40t-133.5 -45.5q-63 -21 -126 -42.5t-123 -39.5l-12 42q60 18 122 39t125 42q73 25 143 48.5t134 41.5t120.5 28t103.5 9q82 -1 116 -43q13 -17 18.5 -37t5.5 -43t-4 -48.5t-9 -51.5q-1 -5 -1.5 -8.5t-1.5 -8.5
q-12 -66 50 -96q63 -31 127.5 -15t115.5 73q2 23 2.5 43.5t2.5 39.5q3 47 5.5 81t8.5 57q1 5 4.5 15t10.5 19.5t18.5 17.5t29.5 9q28 2 42 -20q12 -19 10 -50t-11 -64.5t-22 -64t-23 -47.5q-17 -30 -36 -54q-3 -35 -6.5 -74.5t-9.5 -84.5q-2 -9 -3 -21t-3 -22
q76 56 157.5 101t161.5 70q53 16 115.5 33.5t126.5 34.5q51 14 98 26.5t89 24.5l12 -42q-42 -12 -89 -24.5t-99 -26.5q-63 -17 -125.5 -34t-114.5 -34q-86 -26 -172 -73.5t-165 -109.5q0 -5 -0.5 -8.5t-1.5 -7.5q-6 -61 -13.5 -125t-18.5 -126.5t-27 -120.5t-40 -105.5
t-56.5 -82.5t-76.5 -52q-13 -5 -24 -7t-21 -2zM1123 -212q-69 -60 -127 -129.5t-96 -138.5q-21 -37 -35.5 -80.5t-19.5 -85.5q-5 -39 -0.5 -70t17.5 -46q3 -4 15.5 -10t41.5 5q54 21 89.5 78.5t58 135t35 167t21.5 174.5zM1215 304q-3 -10 -5.5 -32t-5 -46.5t-4.5 -48.5
t-3 -39q5 10 10.5 26t11 33.5t10 34t7.5 28.5q9 37 13 58.5t-6 24.5q-8 3 -15.5 -8t-12.5 -31z" />
    <glyph glyph-name="Z" unicode="Z" horiz-adv-x="1935" 
d="M919 -813q-48 33 -43 183q1 28 4 58.5t7.5 59.5t10.5 56t13 49q32 103 73 167.5t92 106.5q-14 44 -36.5 82.5t-58.5 59.5q-38 21 -87.5 14.5t-102.5 -44.5l-26 35q1 0 6.5 5.5l14 14l18 18l18.5 18.5q18 19 40 41.5t46.5 47.5t50.5 50t51 48q8 8 16 15l16 14
q-7 3 -13 6.5t-12 6.5q-22 12 -40 20q-14 5 -32.5 8.5t-42.5 4.5q-72 3 -161.5 -11.5t-187.5 -38.5t-201 -54.5t-202 -60.5q-40 -12 -77 -23t-73 -22l-12 42q35 11 72 22t77 23q100 31 204 62t204.5 55t192 38t165.5 11q55 -1 90 -15q11 -5 22.5 -11t22.5 -11q10 -6 20 -11
l20 -10q44 36 65.5 46t32.5 10q14 -1 23.5 -7.5t14 -16.5t4.5 -21t-4 -20q-5 -12 -16 -21t-24.5 -14.5t-27.5 -8t-24 -2.5q-17 0 -35 6q-11 -10 -23 -20.5t-26 -24.5q-21 -20 -44 -42t-46 -45l-44.5 -44.5l-39.5 -39.5q37 16 74.5 13t63.5 -18q73 -42 111 -153
q34 23 70.5 40t75.5 32q102 41 215.5 73.5t228.5 63.5q55 15 110.5 30t109.5 31l12 -42q-54 -16 -110 -31.5t-110 -29.5q-119 -32 -229 -64t-210 -71q-42 -17 -79.5 -34.5t-70.5 -41.5q7 -29 12 -65q5 -38 7 -78.5t0.5 -82t-6 -82t-12.5 -77.5q-8 -36 -17 -73.5t-23.5 -73.5
t-36 -68t-53.5 -56q-17 -13 -39.5 -17t-38.5 10zM1089 -176q-41 -38 -75 -97t-61 -147q-6 -21 -11.5 -46.5t-10 -53t-7.5 -56.5t-4 -56q-3 -70 5.5 -104t18.5 -42q5 -3 13 -3t14 5q27 20 45.5 49.5t31.5 63t21 69t15 68.5q6 27 10.5 62t6.5 75t0.5 82.5t-7.5 85.5
q-1 10 -2 22t-3 23zM1183 334q-4 3 -10.5 1t-15 -6.5t-17 -10.5t-15.5 -11q4 0 15.5 1t22 4t17.5 8.5t3 13.5z" />
    <glyph glyph-name="acute" unicode="&#xb4;" horiz-adv-x="833" 
d="M551 868l-7 -11q-12 -18 -28.5 -38.5t-35 -41t-39 -40t-39.5 -35.5l-11 -8l-9 11l-9 11l-9 11l11 9q37 30 73.5 70t58.5 74l8 12l12 -8l12 -8z" />
    <glyph glyph-name="dieresis" unicode="&#xa8;" horiz-adv-x="833" 
d="M298 871q14 0 24 -10q11 -11 10 -27q0 -15 -13 -28q-12 -12 -29 -12q-10 0 -18 4q-14 8 -16 25q-3 22 13 37l1 1l1 1q12 9 27 9zM594 857q13 -18 3 -41q-10 -21 -30 -24h-5q-15 0 -24 12q-14 14 -11 36l1 1v1q5 14 14 22q10 9 23 9q18 0 29 -16z" />
    <glyph glyph-name="comma" unicode="," horiz-adv-x="833" 
d="M289 66q5 -11 6.5 -26t0.5 -32q-2 -39 -16 -68q-14 -27 -36.5 -48t-48.5 -31l-13 -5l-6 13l-5 14l-5 13l13 5q40 16 62 59q6 12 8.5 25.5t3 26.5t-0.5 23t-3 15l-5 13l13 5l14 6l13 5z" />
    <glyph glyph-name="period" unicode="." horiz-adv-x="833" 
d="M263 59q11 -13 11 -29q-2 -17 -15 -30t-31 -13q-12 0 -19 5q-15 8 -17 25q-3 25 14 41l1 1q16 11 30 11q15 0 26 -11z" />
    <glyph glyph-name="tilde" unicode="&#x2dc;" horiz-adv-x="833" 
d="M727 832l-9 -11q-17 -19 -41 -34.5t-52 -24.5q-36 -11 -68 -11q-26 0 -53 8q-18 5 -34 13.5t-32 16.5q-21 12 -41.5 21.5t-43.5 11.5q-3 0 -6 0.5t-6 0.5q-29 0 -52 -12.5t-43 -27.5l-11 -9l-8 11l-10 12l-8 11l11 8q10 8 22.5 17t29.5 17q34 15 69 15h16q29 -3 53.5 -14
t47.5 -24q14 -8 29 -15t30 -12q19 -6 40 -6q36 0 72 15.5t56 39.5l9 11l11 -9l11 -10z" />
    <glyph glyph-name="grave" unicode="`" horiz-adv-x="833" 
d="M269 727l-9 -11l-9 -11l-9 -11l-11 8q-20 16 -40 35.5t-39 40t-35 41t-28 38.5l-8 11l12 8l13 8l11 8l8 -12q22 -34 59 -74t74 -70z" />
    <glyph glyph-name="asciitilde" unicode="~" horiz-adv-x="833" 
d="M715 832l-9 -11q-17 -19 -41 -34.5t-52 -24.5q-36 -11 -68 -11q-26 0 -53 8q-18 5 -34 13.5t-32 16.5q-21 12 -41.5 21.5t-43.5 11.5q-3 0 -6 0.5t-6 0.5q-29 0 -52 -12.5t-43 -27.5l-11 -9l-8 11l-10 12l-8 11l11 8q10 8 22.5 17t29.5 17q34 15 69 15h16q29 -3 53.5 -14
t47.5 -24q14 -8 29 -15t30 -12q19 -6 40 -6q36 0 72 15.5t56 39.5l9 11l11 -9l11 -10z" />
    <glyph glyph-name="asciicircum" unicode="^" horiz-adv-x="833" 
d="M601 694l-12 -9l-12 -9l-10 -8l-9 10q-8 9 -19 24.5t-25 35.5q-17 23 -34 45t-35 46q-11 -13 -28.5 -33.5t-35.5 -42.5q-32 -40 -41 -53.5t-10 -15.5l-5 -13l-13 5l-14 5l-13 5l5 13q1 3 4 8.5t9.5 15t18 24.5t29.5 37q21 26 40 48.5t30 33.5q12 11 22 13t24 -13
q4 -5 14 -16.5t22 -26.5t24.5 -32t23.5 -32q12 -17 22.5 -31.5t18.5 -22.5z" />
    <glyph glyph-name="circumflex" unicode="&#x2c6;" horiz-adv-x="833" 
d="M593 693l-11 -9l-12 -9l-10 -9l-9 11q-8 8 -18.5 23t-23.5 33t-26.5 37t-26.5 34q-13 18 -19 24q-14 -17 -31 -36.5t-33 -39.5q-32 -38 -41 -52.5t-10 -16.5l-5 -14l-13 6l-14 5l-13 5l5 13q1 2 3 7t9.5 15.5t21.5 28.5t38 47q12 14 23 27t19.5 23.5t14.5 17t7 7.5l3 3
l5 6l7 -1h4q10 -2 21 -11.5t31 -34.5q13 -17 27 -36.5t28 -38.5q13 -17 23 -31.5t17 -22.5z" />
    <glyph glyph-name="agrave" unicode="&#xe0;" 
d="M1931 123q-79 -23 -161.5 -46.5t-162.5 -43.5t-155 -35t-139 -21q-5 -1 -9 -1h-9q-35 0 -68.5 13t-59.5 36q-14 13 -25.5 29.5t-14.5 33.5q-5 -10 -12 -19t-15 -17q-38 -35 -89 -55.5t-103 -20.5q-60 0 -100.5 28t-53.5 77q-12 45 -2.5 89t38.5 86q7 10 18 20.5
t23.5 20.5t26.5 18.5t27 14.5q-106 -11 -211 -30.5t-208.5 -45t-205 -54.5t-198.5 -58q-16 -5 -31.5 -9.5t-31.5 -9.5l-13 42q17 5 32.5 9.5t31.5 9.5q115 34 228 66t229 58t237 43.5t252 22.5h12q66 0 109 -34q37 -29 49 -77l25 -6q-2 -5 -3.5 -11t-3.5 -13
q-7 -21 -14 -48.5t-7 -56.5q0 -26 11 -43t22 -28q22 -20 52.5 -30t59.5 -7q63 6 137 21t153 35t160.5 43t159.5 46zM1070 84q42 41 55 96q0 2 0.5 3.5t0.5 3.5q3 20 2 36q-2 54 -38 83q-30 24 -82 24q-51 0 -95 -22q-15 -8 -39 -26.5t-45 -46t-32.5 -64t-0.5 -78.5
q6 -24 20.5 -38.5t31.5 -22t33 -9.5t27 -2q44 0 87 17t75 46zM1173 727l-9 -11l-9 -11l-9 -11l-11 8q-20 16 -40 35.5t-39 40t-35 41t-28 38.5l-8 11l12 8l13 8l11 8l8 -12q22 -34 59 -74t74 -70z" />
    <glyph glyph-name="aacute" unicode="&#xe1;" 
d="M1931 123q-79 -23 -161.5 -46.5t-162.5 -43.5t-155 -35t-139 -21q-5 -1 -9 -1h-9q-35 0 -68.5 13t-59.5 36q-14 13 -25.5 29.5t-14.5 33.5q-5 -10 -12 -19t-15 -17q-38 -35 -89 -55.5t-103 -20.5q-60 0 -100.5 28t-53.5 77q-12 45 -2.5 89t38.5 86q7 10 18 20.5
t23.5 20.5t26.5 18.5t27 14.5q-106 -11 -211 -30.5t-208.5 -45t-205 -54.5t-198.5 -58q-16 -5 -31.5 -9.5t-31.5 -9.5l-13 42q17 5 32.5 9.5t31.5 9.5q115 34 228 66t229 58t237 43.5t252 22.5h12q66 0 109 -34q37 -29 49 -77l25 -6q-2 -5 -3.5 -11t-3.5 -13
q-7 -21 -14 -48.5t-7 -56.5q0 -26 11 -43t22 -28q22 -20 52.5 -30t59.5 -7q63 6 137 21t153 35t160.5 43t159.5 46zM1070 84q42 41 55 96q0 2 0.5 3.5t0.5 3.5q3 20 2 36q-2 54 -38 83q-30 24 -82 24q-51 0 -95 -22q-15 -8 -39 -26.5t-45 -46t-32.5 -64t-0.5 -78.5
q6 -24 20.5 -38.5t31.5 -22t33 -9.5t27 -2q44 0 87 17t75 46zM1318 868l-7 -11q-12 -18 -28.5 -38.5t-35 -41t-39 -40t-39.5 -35.5l-11 -8l-9 11l-9 11l-9 11l11 9q37 30 73.5 70t58.5 74l8 12l12 -8l12 -8z" />
    <glyph glyph-name="acircumflex" unicode="&#xe2;" 
d="M1931 123q-79 -23 -161.5 -46.5t-162.5 -43.5t-155 -35t-139 -21q-5 -1 -9 -1h-9q-35 0 -68.5 13t-59.5 36q-14 13 -25.5 29.5t-14.5 33.5q-5 -10 -12 -19t-15 -17q-38 -35 -89 -55.5t-103 -20.5q-60 0 -100.5 28t-53.5 77q-12 45 -2.5 89t38.5 86q7 10 18 20.5
t23.5 20.5t26.5 18.5t27 14.5q-106 -11 -211 -30.5t-208.5 -45t-205 -54.5t-198.5 -58q-16 -5 -31.5 -9.5t-31.5 -9.5l-13 42q17 5 32.5 9.5t31.5 9.5q115 34 228 66t229 58t237 43.5t252 22.5h12q66 0 109 -34q37 -29 49 -77l25 -6q-2 -5 -3.5 -11t-3.5 -13
q-7 -21 -14 -48.5t-7 -56.5q0 -26 11 -43t22 -28q22 -20 52.5 -30t59.5 -7q63 6 137 21t153 35t160.5 43t159.5 46zM1070 84q42 41 55 96q0 2 0.5 3.5t0.5 3.5q3 20 2 36q-2 54 -38 83q-30 24 -82 24q-51 0 -95 -22q-15 -8 -39 -26.5t-45 -46t-32.5 -64t-0.5 -78.5
q6 -24 20.5 -38.5t31.5 -22t33 -9.5t27 -2q44 0 87 17t75 46zM1169 693l-11 -9l-12 -9l-10 -9l-9 11q-8 8 -18.5 23t-23.5 33t-26.5 37t-26.5 34q-13 18 -19 24q-14 -17 -31 -36.5t-33 -39.5q-32 -38 -41 -52.5t-10 -16.5l-5 -14l-13 6l-14 5l-13 5l5 13q1 2 3 7t9.5 15.5
t21.5 28.5t38 47q12 14 23 27t19.5 23.5t14.5 17t7 7.5l3 3l5 6l7 -1h4q10 -2 21 -11.5t31 -34.5q13 -17 27 -36.5t28 -38.5q13 -17 23 -31.5t17 -22.5z" />
    <glyph glyph-name="atilde" unicode="&#xe3;" 
d="M1931 123q-79 -23 -161.5 -46.5t-162.5 -43.5t-155 -35t-139 -21q-5 -1 -9 -1h-9q-35 0 -68.5 13t-59.5 36q-14 13 -25.5 29.5t-14.5 33.5q-5 -10 -12 -19t-15 -17q-38 -35 -89 -55.5t-103 -20.5q-60 0 -100.5 28t-53.5 77q-12 45 -2.5 89t38.5 86q7 10 18 20.5
t23.5 20.5t26.5 18.5t27 14.5q-106 -11 -211 -30.5t-208.5 -45t-205 -54.5t-198.5 -58q-16 -5 -31.5 -9.5t-31.5 -9.5l-13 42q17 5 32.5 9.5t31.5 9.5q115 34 228 66t229 58t237 43.5t252 22.5h12q66 0 109 -34q37 -29 49 -77l25 -6q-2 -5 -3.5 -11t-3.5 -13
q-7 -21 -14 -48.5t-7 -56.5q0 -26 11 -43t22 -28q22 -20 52.5 -30t59.5 -7q63 6 137 21t153 35t160.5 43t159.5 46zM1070 84q42 41 55 96q0 2 0.5 3.5t0.5 3.5q3 20 2 36q-2 54 -38 83q-30 24 -82 24q-51 0 -95 -22q-15 -8 -39 -26.5t-45 -46t-32.5 -64t-0.5 -78.5
q6 -24 20.5 -38.5t31.5 -22t33 -9.5t27 -2q44 0 87 17t75 46zM1334 832l-9 -11q-17 -19 -41 -34.5t-52 -24.5q-36 -11 -68 -11q-26 0 -53 8q-18 5 -34 13.5t-32 16.5q-21 12 -41.5 21.5t-43.5 11.5q-3 0 -6 0.5t-6 0.5q-29 0 -52 -12.5t-43 -27.5l-11 -9l-8 11l-10 12l-8 11
l11 8q10 8 22.5 17t29.5 17q34 15 69 15h16q29 -3 53.5 -14t47.5 -24q14 -8 29 -15t30 -12q19 -6 40 -6q36 0 72 15.5t56 39.5l9 11l11 -9l11 -10z" />
    <glyph glyph-name="adieresis" unicode="&#xe4;" 
d="M1931 123q-79 -23 -161.5 -46.5t-162.5 -43.5t-155 -35t-139 -21q-5 -1 -9 -1h-9q-35 0 -68.5 13t-59.5 36q-14 13 -25.5 29.5t-14.5 33.5q-5 -10 -12 -19t-15 -17q-38 -35 -89 -55.5t-103 -20.5q-60 0 -100.5 28t-53.5 77q-12 45 -2.5 89t38.5 86q7 10 18 20.5
t23.5 20.5t26.5 18.5t27 14.5q-106 -11 -211 -30.5t-208.5 -45t-205 -54.5t-198.5 -58q-16 -5 -31.5 -9.5t-31.5 -9.5l-13 42q17 5 32.5 9.5t31.5 9.5q115 34 228 66t229 58t237 43.5t252 22.5h12q66 0 109 -34q37 -29 49 -77l25 -6q-2 -5 -3.5 -11t-3.5 -13
q-7 -21 -14 -48.5t-7 -56.5q0 -26 11 -43t22 -28q22 -20 52.5 -30t59.5 -7q63 6 137 21t153 35t160.5 43t159.5 46zM1070 84q42 41 55 96q0 2 0.5 3.5t0.5 3.5q3 20 2 36q-2 54 -38 83q-30 24 -82 24q-51 0 -95 -22q-15 -8 -39 -26.5t-45 -46t-32.5 -64t-0.5 -78.5
q6 -24 20.5 -38.5t31.5 -22t33 -9.5t27 -2q44 0 87 17t75 46zM930 871q14 0 24 -10q11 -11 10 -27q0 -15 -13 -28q-12 -12 -29 -12q-10 0 -18 4q-14 8 -16 25q-3 22 13 37l1 1l1 1q12 9 27 9zM1226 857q13 -18 3 -41q-10 -21 -30 -24h-5q-15 0 -24 12q-14 14 -11 36l1 1v1
q5 14 14 22q10 9 23 9q18 0 29 -16z" />
    <glyph glyph-name="egrave" unicode="&#xe8;" 
d="M1934 125q-150 -45 -307.5 -76.5t-305.5 -47.5q-103 -11 -198.5 -17t-184.5 -6h-30q-59 1 -99 28.5t-53 76.5q-11 45 -1.5 89t38.5 86q14 20 30 36t32 28q-106 -11 -206 -29t-197.5 -41.5t-193.5 -51.5t-194 -57l-63 -18l-13 42q17 5 32.5 9t31.5 9q115 34 228 66t229 58
t237 43.5t252 22.5q34 2 65.5 -5.5t56.5 -27.5q22 -17 39.5 -47.5t16.5 -63.5q-2 -44 -40 -72q-29 -19 -67 -24t-75 -7q-14 -1 -26.5 -1.5t-23.5 -2.5q-5 -1 -10 -1.5t-10 -1.5q-16 -2 -33.5 -4.5t-34 -6.5t-30.5 -10.5t-24 -15.5q7 -20 20 -32t28.5 -19t31 -9t27.5 -2
q92 -1 195.5 4.5t212.5 17.5q146 16 301 47.5t304 75.5zM915 309q-13 -6 -34 -21.5t-40.5 -38.5t-33 -52.5t-13.5 -64.5q26 16 59.5 22t64.5 11q5 0 10 0.5t10 1.5q12 2 25.5 3t28.5 2q32 2 65 6t54 18q21 13 22 37q1 18 -10.5 39t-29.5 36q-32 24 -83 24q-25 0 -48 -6
t-47 -17zM1142 727l-9 -11l-9 -11l-9 -11l-11 8q-20 16 -40 35.5t-39 40t-35 41t-28 38.5l-8 11l12 8l13 8l11 8l8 -12q22 -34 59 -74t74 -70z" />
    <glyph glyph-name="eacute" unicode="&#xe9;" 
d="M1934 125q-150 -45 -307.5 -76.5t-305.5 -47.5q-103 -11 -198.5 -17t-184.5 -6h-30q-59 1 -99 28.5t-53 76.5q-11 45 -1.5 89t38.5 86q14 20 30 36t32 28q-106 -11 -206 -29t-197.5 -41.5t-193.5 -51.5t-194 -57l-63 -18l-13 42q17 5 32.5 9t31.5 9q115 34 228 66t229 58
t237 43.5t252 22.5q34 2 65.5 -5.5t56.5 -27.5q22 -17 39.5 -47.5t16.5 -63.5q-2 -44 -40 -72q-29 -19 -67 -24t-75 -7q-14 -1 -26.5 -1.5t-23.5 -2.5q-5 -1 -10 -1.5t-10 -1.5q-16 -2 -33.5 -4.5t-34 -6.5t-30.5 -10.5t-24 -15.5q7 -20 20 -32t28.5 -19t31 -9t27.5 -2
q92 -1 195.5 4.5t212.5 17.5q146 16 301 47.5t304 75.5zM915 309q-13 -6 -34 -21.5t-40.5 -38.5t-33 -52.5t-13.5 -64.5q26 16 59.5 22t64.5 11q5 0 10 0.5t10 1.5q12 2 25.5 3t28.5 2q32 2 65 6t54 18q21 13 22 37q1 18 -10.5 39t-29.5 36q-32 24 -83 24q-25 0 -48 -6
t-47 -17zM1367 868l-7 -11q-12 -18 -28.5 -38.5t-35 -41t-39 -40t-39.5 -35.5l-11 -8l-9 11l-9 11l-9 11l11 9q37 30 73.5 70t58.5 74l8 12l12 -8l12 -8z" />
    <glyph glyph-name="ecircumflex" unicode="&#xea;" 
d="M1934 125q-150 -45 -307.5 -76.5t-305.5 -47.5q-103 -11 -198.5 -17t-184.5 -6h-30q-59 1 -99 28.5t-53 76.5q-11 45 -1.5 89t38.5 86q14 20 30 36t32 28q-106 -11 -206 -29t-197.5 -41.5t-193.5 -51.5t-194 -57l-63 -18l-13 42q17 5 32.5 9t31.5 9q115 34 228 66t229 58
t237 43.5t252 22.5q34 2 65.5 -5.5t56.5 -27.5q22 -17 39.5 -47.5t16.5 -63.5q-2 -44 -40 -72q-29 -19 -67 -24t-75 -7q-14 -1 -26.5 -1.5t-23.5 -2.5q-5 -1 -10 -1.5t-10 -1.5q-16 -2 -33.5 -4.5t-34 -6.5t-30.5 -10.5t-24 -15.5q7 -20 20 -32t28.5 -19t31 -9t27.5 -2
q92 -1 195.5 4.5t212.5 17.5q146 16 301 47.5t304 75.5zM915 309q-13 -6 -34 -21.5t-40.5 -38.5t-33 -52.5t-13.5 -64.5q26 16 59.5 22t64.5 11q5 0 10 0.5t10 1.5q12 2 25.5 3t28.5 2q32 2 65 6t54 18q21 13 22 37q1 18 -10.5 39t-29.5 36q-32 24 -83 24q-25 0 -48 -6
t-47 -17zM1131 693l-11 -9l-12 -9l-10 -9l-9 11q-8 8 -18.5 23t-23.5 33t-26.5 37t-26.5 34q-13 18 -19 24q-14 -17 -31 -36.5t-33 -39.5q-32 -38 -41 -52.5t-10 -16.5l-5 -14l-13 6l-14 5l-13 5l5 13q1 2 3 7t9.5 15.5t21.5 28.5t38 47q12 14 23 27t19.5 23.5t14.5 17
t7 7.5l3 3l5 6l7 -1h4q10 -2 21 -11.5t31 -34.5q13 -17 27 -36.5t28 -38.5q13 -17 23 -31.5t17 -22.5z" />
    <glyph glyph-name="edieresis" unicode="&#xeb;" 
d="M1934 125q-150 -45 -307.5 -76.5t-305.5 -47.5q-103 -11 -198.5 -17t-184.5 -6h-30q-59 1 -99 28.5t-53 76.5q-11 45 -1.5 89t38.5 86q14 20 30 36t32 28q-106 -11 -206 -29t-197.5 -41.5t-193.5 -51.5t-194 -57l-63 -18l-13 42q17 5 32.5 9t31.5 9q115 34 228 66t229 58
t237 43.5t252 22.5q34 2 65.5 -5.5t56.5 -27.5q22 -17 39.5 -47.5t16.5 -63.5q-2 -44 -40 -72q-29 -19 -67 -24t-75 -7q-14 -1 -26.5 -1.5t-23.5 -2.5q-5 -1 -10 -1.5t-10 -1.5q-16 -2 -33.5 -4.5t-34 -6.5t-30.5 -10.5t-24 -15.5q7 -20 20 -32t28.5 -19t31 -9t27.5 -2
q92 -1 195.5 4.5t212.5 17.5q146 16 301 47.5t304 75.5zM915 309q-13 -6 -34 -21.5t-40.5 -38.5t-33 -52.5t-13.5 -64.5q26 16 59.5 22t64.5 11q5 0 10 0.5t10 1.5q12 2 25.5 3t28.5 2q32 2 65 6t54 18q21 13 22 37q1 18 -10.5 39t-29.5 36q-32 24 -83 24q-25 0 -48 -6
t-47 -17zM905 871q14 0 24 -10q11 -11 10 -27q0 -15 -13 -28q-12 -12 -29 -12q-10 0 -18 4q-14 8 -16 25q-3 22 13 37l1 1l1 1q12 9 27 9zM1201 857q13 -18 3 -41q-10 -21 -30 -24h-5q-15 0 -24 12q-14 14 -11 36l1 1v1q5 14 14 22q10 9 23 9q18 0 29 -16z" />
    <glyph glyph-name="igrave" unicode="&#xec;" horiz-adv-x="1785" 
d="M1781 123q-18 -5 -36 -10.5t-36 -11.5q-68 -20 -137 -40t-135.5 -37t-130.5 -29.5t-122 -18.5q-5 -1 -15.5 -1.5t-24.5 -0.5q-21 0 -47.5 2.5t-55 10t-56.5 21t-50 36.5q-65 65 -54 176q3 31 9 59t12 51q-106 -6 -198.5 -20t-179.5 -34t-171 -45t-172 -53
q-44 -14 -88.5 -27.5t-92.5 -27.5l-13 42q48 14 92.5 27.5t88.5 27.5q92 29 180 55t179.5 47t190 35t212.5 18l31 1q-4 -14 -6.5 -22.5t-5.5 -19.5q-6 -22 -13.5 -53t-10.5 -65q-9 -91 41 -141q25 -26 60 -38t67 -16t56.5 -3t30.5 1q56 6 118.5 18.5t128.5 29.5t134 37
l136 40l72 21zM1089 727l-9 -11l-9 -11l-9 -11l-11 8q-20 16 -40 35.5t-39 40t-35 41t-28 38.5l-8 11l12 8l13 8l11 8l8 -12q22 -34 59 -74t74 -70z" />
    <glyph glyph-name="iacute" unicode="&#xed;" horiz-adv-x="1782" 
d="M1781 123q-18 -5 -36 -10.5t-36 -11.5q-68 -20 -137 -40t-135.5 -37t-130.5 -29.5t-122 -18.5q-5 -1 -15.5 -1.5t-24.5 -0.5q-21 0 -47.5 2.5t-55 10t-56.5 21t-50 36.5q-65 65 -54 176q3 31 9 59t12 51q-106 -6 -198.5 -20t-179.5 -34t-171 -45t-172 -53
q-44 -14 -88.5 -27.5t-92.5 -27.5l-13 42q48 14 92.5 27.5t88.5 27.5q92 29 180 55t179.5 47t190 35t212.5 18l31 1q-4 -14 -6.5 -22.5t-5.5 -19.5q-6 -22 -13.5 -53t-10.5 -65q-9 -91 41 -141q25 -26 60 -38t67 -16t56.5 -3t30.5 1q56 6 118.5 18.5t128.5 29.5t134 37
l136 40l72 21zM1218 868l-7 -11q-12 -18 -28.5 -38.5t-35 -41t-39 -40t-39.5 -35.5l-11 -8l-9 11l-9 11l-9 11l11 9q37 30 73.5 70t58.5 74l8 12l12 -8l12 -8z" />
    <glyph glyph-name="icircumflex" unicode="&#xee;" horiz-adv-x="1782" 
d="M1781 123q-18 -5 -36 -10.5t-36 -11.5q-68 -20 -137 -40t-135.5 -37t-130.5 -29.5t-122 -18.5q-5 -1 -15.5 -1.5t-24.5 -0.5q-21 0 -47.5 2.5t-55 10t-56.5 21t-50 36.5q-65 65 -54 176q3 31 9 59t12 51q-106 -6 -198.5 -20t-179.5 -34t-171 -45t-172 -53
q-44 -14 -88.5 -27.5t-92.5 -27.5l-13 42q48 14 92.5 27.5t88.5 27.5q92 29 180 55t179.5 47t190 35t212.5 18l31 1q-4 -14 -6.5 -22.5t-5.5 -19.5q-6 -22 -13.5 -53t-10.5 -65q-9 -91 41 -141q25 -26 60 -38t67 -16t56.5 -3t30.5 1q56 6 118.5 18.5t128.5 29.5t134 37
l136 40l72 21zM1118 693l-11 -9l-12 -9l-10 -9l-9 11q-8 8 -18.5 23t-23.5 33t-26.5 37t-26.5 34q-13 18 -19 24q-14 -17 -31 -36.5t-33 -39.5q-32 -38 -41 -52.5t-10 -16.5l-5 -14l-13 6l-14 5l-13 5l5 13q1 2 3 7t9.5 15.5t21.5 28.5t38 47q12 14 23 27t19.5 23.5t14.5 17
t7 7.5l3 3l5 6l7 -1h4q10 -2 21 -11.5t31 -34.5q13 -17 27 -36.5t28 -38.5q13 -17 23 -31.5t17 -22.5z" />
    <glyph glyph-name="idieresis" unicode="&#xef;" horiz-adv-x="1782" 
d="M1781 123q-18 -5 -36 -10.5t-36 -11.5q-68 -20 -137 -40t-135.5 -37t-130.5 -29.5t-122 -18.5q-5 -1 -15.5 -1.5t-24.5 -0.5q-21 0 -47.5 2.5t-55 10t-56.5 21t-50 36.5q-65 65 -54 176q3 31 9 59t12 51q-106 -6 -198.5 -20t-179.5 -34t-171 -45t-172 -53
q-44 -14 -88.5 -27.5t-92.5 -27.5l-13 42q48 14 92.5 27.5t88.5 27.5q92 29 180 55t179.5 47t190 35t212.5 18l31 1q-4 -14 -6.5 -22.5t-5.5 -19.5q-6 -22 -13.5 -53t-10.5 -65q-9 -91 41 -141q25 -26 60 -38t67 -16t56.5 -3t30.5 1q56 6 118.5 18.5t128.5 29.5t134 37
l136 40l72 21zM846 871q14 0 24 -10q11 -11 10 -27q0 -15 -13 -28q-12 -12 -29 -12q-10 0 -18 4q-14 8 -16 25q-3 22 13 37l1 1l1 1q12 9 27 9zM1142 857q13 -18 3 -41q-10 -21 -30 -24h-5q-15 0 -24 12q-14 14 -11 36l1 1v1q5 14 14 22q10 9 23 9q18 0 29 -16z" />
    <glyph glyph-name="ntilde" unicode="&#xf1;" horiz-adv-x="2324" 
d="M2332 122q-79 -23 -161.5 -46.5t-162.5 -43.5t-155.5 -35t-139.5 -22h-17q-33 0 -66 12t-58 34q-50 42 -53 105q0 10 -0.5 31.5t0.5 53.5q1 30 -9 54.5t-30 39.5q-29 24 -93 24h-1q-56 0 -93.5 -16t-62.5 -43t-41.5 -63t-29.5 -77q-6 -21 -13.5 -43t-15 -41.5t-14 -35
t-10.5 -23.5l-39 18q7 15 18 43t21.5 59t18 59.5t7.5 44.5q1 30 -9 54.5t-30 39.5q-16 13 -40 19.5t-53 4.5q-129 -5 -249.5 -22.5t-236 -43t-228 -57.5t-227.5 -66q-15 -5 -30 -9t-29 -9l-13 42q15 5 30 9l30 8q116 34 229.5 66.5t230 58.5t238.5 44t254 23q36 2 67.5 -7
t53.5 -26q37 -29 49 -77q13 20 27 35q69 76 190 76h1q27 0 60.5 -7t59.5 -27q28 -22 42.5 -56t13.5 -74q-2 -62 0 -82q1 -27 13 -45t24 -29q22 -19 51 -28.5t57 -6.5q63 6 137 21t153.5 35t161.5 43t160 46zM1532 832l-9 -11q-17 -19 -41 -34.5t-52 -24.5q-36 -11 -68 -11
q-26 0 -53 8q-18 5 -34 13.5t-32 16.5q-21 12 -41.5 21.5t-43.5 11.5q-3 0 -6 0.5t-6 0.5q-29 0 -52 -12.5t-43 -27.5l-11 -9l-8 11l-10 12l-8 11l11 8q10 8 22.5 17t29.5 17q34 15 69 15h16q29 -3 53.5 -14t47.5 -24q14 -8 29 -15t30 -12q19 -6 40 -6q36 0 72 15.5t56 39.5
l9 11l11 -9l11 -10z" />
    <glyph glyph-name="ograve" unicode="&#xf2;" 
d="M1934 123q-68 -20 -142 -35.5t-152 -26t-157 -16t-157 -5.5q-127 0 -209 27q-3 -4 -6.5 -8t-8.5 -8q-37 -35 -88.5 -55.5t-103.5 -20.5q-60 0 -100.5 28t-53.5 77q-12 45 -2.5 89.5t38.5 86.5q7 10 18.5 21t25 21t27 18t24.5 13q-106 -11 -211 -30.5t-208.5 -45
t-205 -54.5t-199.5 -58l-63 -18l-13 41q17 5 32.5 9.5t31.5 9.5q115 34 227.5 66t227 58t235 43.5t251.5 22.5h18q68 0 109 -33q26 -20 39.5 -50t15.5 -66q2 -31 -6 -61.5t-24 -58.5q75 -20 182 -20q76 0 154 5.5t154 15.5t149 25t139 35zM1019 231q0 -74 83 -111
q31 47 29 102q-1 20 -6.5 36t-14.5 29q-6 6 -22.5 11.5t-33.5 -2.5q-12 -6 -23.5 -21t-11.5 -44zM910 20q44 0 87 17t75 47q1 0 1 1q-98 49 -98 146q0 17 5.5 33.5t16 30t25.5 21.5t33 8q-13 3 -26.5 4.5t-18.5 1.5q-51 0 -95 -23q-15 -8 -39 -26.5t-45 -46t-32.5 -64
t-0.5 -78.5q6 -24 20.5 -38.5t31.5 -22t33 -9.5t27 -2zM1142 727l-9 -11l-9 -11l-9 -11l-11 8q-20 16 -40 35.5t-39 40t-35 41t-28 38.5l-8 11l12 8l13 8l11 8l8 -12q22 -34 59 -74t74 -70z" />
    <glyph glyph-name="oacute" unicode="&#xf3;" 
d="M1934 123q-68 -20 -142 -35.5t-152 -26t-157 -16t-157 -5.5q-127 0 -209 27q-3 -4 -6.5 -8t-8.5 -8q-37 -35 -88.5 -55.5t-103.5 -20.5q-60 0 -100.5 28t-53.5 77q-12 45 -2.5 89.5t38.5 86.5q7 10 18.5 21t25 21t27 18t24.5 13q-106 -11 -211 -30.5t-208.5 -45
t-205 -54.5t-199.5 -58l-63 -18l-13 41q17 5 32.5 9.5t31.5 9.5q115 34 227.5 66t227 58t235 43.5t251.5 22.5h18q68 0 109 -33q26 -20 39.5 -50t15.5 -66q2 -31 -6 -61.5t-24 -58.5q75 -20 182 -20q76 0 154 5.5t154 15.5t149 25t139 35zM1019 231q0 -74 83 -111
q31 47 29 102q-1 20 -6.5 36t-14.5 29q-6 6 -22.5 11.5t-33.5 -2.5q-12 -6 -23.5 -21t-11.5 -44zM910 20q44 0 87 17t75 47q1 0 1 1q-98 49 -98 146q0 17 5.5 33.5t16 30t25.5 21.5t33 8q-13 3 -26.5 4.5t-18.5 1.5q-51 0 -95 -23q-15 -8 -39 -26.5t-45 -46t-32.5 -64
t-0.5 -78.5q6 -24 20.5 -38.5t31.5 -22t33 -9.5t27 -2zM1297 868l-7 -11q-12 -18 -28.5 -38.5t-35 -41t-39 -40t-39.5 -35.5l-11 -8l-9 11l-9 11l-9 11l11 9q37 30 73.5 70t58.5 74l8 12l12 -8l12 -8z" />
    <glyph glyph-name="ocircumflex" unicode="&#xf4;" 
d="M1934 123q-68 -20 -142 -35.5t-152 -26t-157 -16t-157 -5.5q-127 0 -209 27q-3 -4 -6.5 -8t-8.5 -8q-37 -35 -88.5 -55.5t-103.5 -20.5q-60 0 -100.5 28t-53.5 77q-12 45 -2.5 89.5t38.5 86.5q7 10 18.5 21t25 21t27 18t24.5 13q-106 -11 -211 -30.5t-208.5 -45
t-205 -54.5t-199.5 -58l-63 -18l-13 41q17 5 32.5 9.5t31.5 9.5q115 34 227.5 66t227 58t235 43.5t251.5 22.5h18q68 0 109 -33q26 -20 39.5 -50t15.5 -66q2 -31 -6 -61.5t-24 -58.5q75 -20 182 -20q76 0 154 5.5t154 15.5t149 25t139 35zM1019 231q0 -74 83 -111
q31 47 29 102q-1 20 -6.5 36t-14.5 29q-6 6 -22.5 11.5t-33.5 -2.5q-12 -6 -23.5 -21t-11.5 -44zM910 20q44 0 87 17t75 47q1 0 1 1q-98 49 -98 146q0 17 5.5 33.5t16 30t25.5 21.5t33 8q-13 3 -26.5 4.5t-18.5 1.5q-51 0 -95 -23q-15 -8 -39 -26.5t-45 -46t-32.5 -64
t-0.5 -78.5q6 -24 20.5 -38.5t31.5 -22t33 -9.5t27 -2zM1201 693l-11 -9l-12 -9l-10 -9l-9 11q-8 8 -18.5 23t-23.5 33t-26.5 37t-26.5 34q-13 18 -19 24q-14 -17 -31 -36.5t-33 -39.5q-32 -38 -41 -52.5t-10 -16.5l-5 -14l-13 6l-14 5l-13 5l5 13q1 2 3 7t9.5 15.5
t21.5 28.5t38 47q12 14 23 27t19.5 23.5t14.5 17t7 7.5l3 3l5 6l7 -1h4q10 -2 21 -11.5t31 -34.5q13 -17 27 -36.5t28 -38.5q13 -17 23 -31.5t17 -22.5z" />
    <glyph glyph-name="otilde" unicode="&#xf5;" 
d="M1934 123q-68 -20 -142 -35.5t-152 -26t-157 -16t-157 -5.5q-127 0 -209 27q-3 -4 -6.5 -8t-8.5 -8q-37 -35 -88.5 -55.5t-103.5 -20.5q-60 0 -100.5 28t-53.5 77q-12 45 -2.5 89.5t38.5 86.5q7 10 18.5 21t25 21t27 18t24.5 13q-106 -11 -211 -30.5t-208.5 -45
t-205 -54.5t-199.5 -58l-63 -18l-13 41q17 5 32.5 9.5t31.5 9.5q115 34 227.5 66t227 58t235 43.5t251.5 22.5h18q68 0 109 -33q26 -20 39.5 -50t15.5 -66q2 -31 -6 -61.5t-24 -58.5q75 -20 182 -20q76 0 154 5.5t154 15.5t149 25t139 35zM1019 231q0 -74 83 -111
q31 47 29 102q-1 20 -6.5 36t-14.5 29q-6 6 -22.5 11.5t-33.5 -2.5q-12 -6 -23.5 -21t-11.5 -44zM910 20q44 0 87 17t75 47q1 0 1 1q-98 49 -98 146q0 17 5.5 33.5t16 30t25.5 21.5t33 8q-13 3 -26.5 4.5t-18.5 1.5q-51 0 -95 -23q-15 -8 -39 -26.5t-45 -46t-32.5 -64
t-0.5 -78.5q6 -24 20.5 -38.5t31.5 -22t33 -9.5t27 -2zM1293 832l-9 -11q-17 -19 -41 -34.5t-52 -24.5q-36 -11 -68 -11q-26 0 -53 8q-18 5 -34 13.5t-32 16.5q-21 12 -41.5 21.5t-43.5 11.5q-3 0 -6 0.5t-6 0.5q-29 0 -52 -12.5t-43 -27.5l-11 -9l-8 11l-10 12l-8 11l11 8
q10 8 22.5 17t29.5 17q34 15 69 15h16q29 -3 53.5 -14t47.5 -24q14 -8 29 -15t30 -12q19 -6 40 -6q36 0 72 15.5t56 39.5l9 11l11 -9l11 -10z" />
    <glyph glyph-name="odieresis" unicode="&#xf6;" 
d="M1934 123q-68 -20 -142 -35.5t-152 -26t-157 -16t-157 -5.5q-127 0 -209 27q-3 -4 -6.5 -8t-8.5 -8q-37 -35 -88.5 -55.5t-103.5 -20.5q-60 0 -100.5 28t-53.5 77q-12 45 -2.5 89.5t38.5 86.5q7 10 18.5 21t25 21t27 18t24.5 13q-106 -11 -211 -30.5t-208.5 -45
t-205 -54.5t-199.5 -58l-63 -18l-13 41q17 5 32.5 9.5t31.5 9.5q115 34 227.5 66t227 58t235 43.5t251.5 22.5h18q68 0 109 -33q26 -20 39.5 -50t15.5 -66q2 -31 -6 -61.5t-24 -58.5q75 -20 182 -20q76 0 154 5.5t154 15.5t149 25t139 35zM1019 231q0 -74 83 -111
q31 47 29 102q-1 20 -6.5 36t-14.5 29q-6 6 -22.5 11.5t-33.5 -2.5q-12 -6 -23.5 -21t-11.5 -44zM910 20q44 0 87 17t75 47q1 0 1 1q-98 49 -98 146q0 17 5.5 33.5t16 30t25.5 21.5t33 8q-13 3 -26.5 4.5t-18.5 1.5q-51 0 -95 -23q-15 -8 -39 -26.5t-45 -46t-32.5 -64
t-0.5 -78.5q6 -24 20.5 -38.5t31.5 -22t33 -9.5t27 -2zM880 871q14 0 24 -10q11 -11 10 -27q0 -15 -13 -28q-12 -12 -29 -12q-10 0 -18 4q-14 8 -16 25q-3 22 13 37l1 1l1 1q12 9 27 9zM1176 857q13 -18 3 -41q-10 -21 -30 -24h-5q-15 0 -24 12q-14 14 -11 36l1 1v1
q5 14 14 22q10 9 23 9q18 0 29 -16z" />
    <glyph glyph-name="ugrave" unicode="&#xf9;" 
d="M1932 122l-166 -48t-162.5 -43.5t-153 -34t-136.5 -20.5q-6 -1 -11.5 -1h-10.5q-74 0 -124 45q-28 25 -41 62q-5 -8 -11.5 -15.5t-14.5 -14.5q-38 -36 -89.5 -56t-102.5 -20q-32 0 -57 7q-38 11 -63 36t-34 62q-9 35 -4 69t19.5 65t34.5 58t40 48q-108 -12 -211 -32.5
t-204.5 -45.5t-201 -53.5t-199.5 -58.5l-29 -9l-13 42l30 9q106 31 209.5 60.5t209.5 55t215 45.5t225 31q5 1 10.5 1.5t10.5 1.5l10 2l15 -41q-18 -9 -43.5 -32t-47 -55t-33.5 -71t-1 -80q12 -49 67 -66q24 -7 52 -6.5t56 8t54 22t45 34.5q21 22 35 51t23 55.5t13 45.5
t5 21l42 -11q-1 -3 -3.5 -12t-5.5 -19.5t-6 -19t-3 -9.5q-3 -13 -5 -27t-2 -31q0 -45 33 -75q20 -19 50 -27.5t62 -5.5q62 6 134.5 20.5t151 34t160.5 43t164 47.5zM1162 727l-9 -11l-9 -11l-9 -11l-11 8q-20 16 -40 35.5t-39 40t-35 41t-28 38.5l-8 11l12 8l13 8l11 8
l8 -12q22 -34 59 -74t74 -70z" />
    <glyph glyph-name="uacute" unicode="&#xfa;" 
d="M1932 122l-166 -48t-162.5 -43.5t-153 -34t-136.5 -20.5q-6 -1 -11.5 -1h-10.5q-74 0 -124 45q-28 25 -41 62q-5 -8 -11.5 -15.5t-14.5 -14.5q-38 -36 -89.5 -56t-102.5 -20q-32 0 -57 7q-38 11 -63 36t-34 62q-9 35 -4 69t19.5 65t34.5 58t40 48q-108 -12 -211 -32.5
t-204.5 -45.5t-201 -53.5t-199.5 -58.5l-29 -9l-13 42l30 9q106 31 209.5 60.5t209.5 55t215 45.5t225 31q5 1 10.5 1.5t10.5 1.5l10 2l15 -41q-18 -9 -43.5 -32t-47 -55t-33.5 -71t-1 -80q12 -49 67 -66q24 -7 52 -6.5t56 8t54 22t45 34.5q21 22 35 51t23 55.5t13 45.5
t5 21l42 -11q-1 -3 -3.5 -12t-5.5 -19.5t-6 -19t-3 -9.5q-3 -13 -5 -27t-2 -31q0 -45 33 -75q20 -19 50 -27.5t62 -5.5q62 6 134.5 20.5t151 34t160.5 43t164 47.5zM1343 868l-7 -11q-12 -18 -28.5 -38.5t-35 -41t-39 -40t-39.5 -35.5l-11 -8l-9 11l-9 11l-9 11l11 9
q37 30 73.5 70t58.5 74l8 12l12 -8l12 -8z" />
    <glyph glyph-name="ucircumflex" unicode="&#xfb;" 
d="M1932 122l-166 -48t-162.5 -43.5t-153 -34t-136.5 -20.5q-6 -1 -11.5 -1h-10.5q-74 0 -124 45q-28 25 -41 62q-5 -8 -11.5 -15.5t-14.5 -14.5q-38 -36 -89.5 -56t-102.5 -20q-32 0 -57 7q-38 11 -63 36t-34 62q-9 35 -4 69t19.5 65t34.5 58t40 48q-108 -12 -211 -32.5
t-204.5 -45.5t-201 -53.5t-199.5 -58.5l-29 -9l-13 42l30 9q106 31 209.5 60.5t209.5 55t215 45.5t225 31q5 1 10.5 1.5t10.5 1.5l10 2l15 -41q-18 -9 -43.5 -32t-47 -55t-33.5 -71t-1 -80q12 -49 67 -66q24 -7 52 -6.5t56 8t54 22t45 34.5q21 22 35 51t23 55.5t13 45.5
t5 21l42 -11q-1 -3 -3.5 -12t-5.5 -19.5t-6 -19t-3 -9.5q-3 -13 -5 -27t-2 -31q0 -45 33 -75q20 -19 50 -27.5t62 -5.5q62 6 134.5 20.5t151 34t160.5 43t164 47.5zM1248 693l-11 -9l-12 -9l-10 -9l-9 11q-8 8 -18.5 23t-23.5 33t-26.5 37t-26.5 34q-13 18 -19 24
q-14 -17 -31 -36.5t-33 -39.5q-32 -38 -41 -52.5t-10 -16.5l-5 -14l-13 6l-14 5l-13 5l5 13q1 2 3 7t9.5 15.5t21.5 28.5t38 47q12 14 23 27t19.5 23.5t14.5 17t7 7.5l3 3l5 6l7 -1h4q10 -2 21 -11.5t31 -34.5q13 -17 27 -36.5t28 -38.5q13 -17 23 -31.5t17 -22.5z" />
    <glyph glyph-name="udieresis" unicode="&#xfc;" 
d="M1932 122l-166 -48t-162.5 -43.5t-153 -34t-136.5 -20.5q-6 -1 -11.5 -1h-10.5q-74 0 -124 45q-28 25 -41 62q-5 -8 -11.5 -15.5t-14.5 -14.5q-38 -36 -89.5 -56t-102.5 -20q-32 0 -57 7q-38 11 -63 36t-34 62q-9 35 -4 69t19.5 65t34.5 58t40 48q-108 -12 -211 -32.5
t-204.5 -45.5t-201 -53.5t-199.5 -58.5l-29 -9l-13 42l30 9q106 31 209.5 60.5t209.5 55t215 45.5t225 31q5 1 10.5 1.5t10.5 1.5l10 2l15 -41q-18 -9 -43.5 -32t-47 -55t-33.5 -71t-1 -80q12 -49 67 -66q24 -7 52 -6.5t56 8t54 22t45 34.5q21 22 35 51t23 55.5t13 45.5
t5 21l42 -11q-1 -3 -3.5 -12t-5.5 -19.5t-6 -19t-3 -9.5q-3 -13 -5 -27t-2 -31q0 -45 33 -75q20 -19 50 -27.5t62 -5.5q62 6 134.5 20.5t151 34t160.5 43t164 47.5zM962 871q14 0 24 -10q11 -11 10 -27q0 -15 -13 -28q-12 -12 -29 -12q-10 0 -18 4q-14 8 -16 25q-3 22 13 37
l1 1l1 1q12 9 27 9zM1258 857q13 -18 3 -41q-10 -21 -30 -24h-5q-15 0 -24 12q-14 14 -11 36l1 1v1q5 14 14 22q10 9 23 9q18 0 29 -16z" />
    <glyph glyph-name="yacute" unicode="&#xfd;" 
d="M889 -817q-23 0 -37.5 9t-22.5 18q-21 24 -27 64t-0.5 86t21.5 93.5t39 88.5q45 80 113.5 157t151.5 143q2 21 4.5 41t4.5 39q4 29 6.5 55.5t4.5 51.5q-57 -46 -123.5 -55.5t-132.5 22.5q-44 21 -63 58.5t-11 84.5l3 18q4 22 7.5 43.5t4 40.5t-2 34.5t-11.5 26.5
q-21 26 -83 27h-7q-44 0 -99 -11t-117.5 -28.5t-129 -40t-133.5 -45.5q-63 -21 -126 -42.5t-123 -39.5l-12 42q60 18 122 39t125 42q73 25 143 48.5t134 41.5t120.5 28t103.5 9q82 -1 116 -43q13 -17 18.5 -37t5.5 -43t-4 -48.5t-9 -51.5q-1 -5 -1.5 -8.5t-1.5 -8.5
q-12 -66 50 -96q63 -31 127.5 -15t115.5 73q2 23 2.5 43.5t2.5 39.5q3 47 5.5 81t8.5 57q1 5 4.5 15t10.5 19.5t18.5 17.5t29.5 9q28 2 42 -20q12 -19 10 -50t-11 -64.5t-22 -64t-23 -47.5q-17 -30 -36 -54q-3 -35 -6.5 -74.5t-9.5 -84.5q-2 -9 -3 -21t-3 -22
q76 56 157.5 101t161.5 70q53 16 115.5 33.5t126.5 34.5q51 14 98 26.5t89 24.5l12 -42q-42 -12 -89 -24.5t-99 -26.5q-63 -17 -125.5 -34t-114.5 -34q-86 -26 -172 -73.5t-165 -109.5q0 -5 -0.5 -8.5t-1.5 -7.5q-6 -61 -13.5 -125t-18.5 -126.5t-27 -120.5t-40 -105.5
t-56.5 -82.5t-76.5 -52q-13 -5 -24 -7t-21 -2zM1123 -212q-69 -60 -127 -129.5t-96 -138.5q-21 -37 -35.5 -80.5t-19.5 -85.5q-5 -39 -0.5 -70t17.5 -46q3 -4 15.5 -10t41.5 5q54 21 89.5 78.5t58 135t35 167t21.5 174.5zM1215 304q-3 -10 -5.5 -32t-5 -46.5t-4.5 -48.5
t-3 -39q5 10 10.5 26t11 33.5t10 34t7.5 28.5q9 37 13 58.5t-6 24.5q-8 3 -15.5 -8t-12.5 -31zM1300 868l-7 -11q-12 -18 -28.5 -38.5t-35 -41t-39 -40t-39.5 -35.5l-11 -8l-9 11l-9 11l-9 11l11 9q37 30 73.5 70t58.5 74l8 12l12 -8l12 -8z" />
    <glyph glyph-name="ydieresis" unicode="&#xff;" 
d="M889 -817q-23 0 -37.5 9t-22.5 18q-21 24 -27 64t-0.5 86t21.5 93.5t39 88.5q45 80 113.5 157t151.5 143q2 21 4.5 41t4.5 39q4 29 6.5 55.5t4.5 51.5q-57 -46 -123.5 -55.5t-132.5 22.5q-44 21 -63 58.5t-11 84.5l3 18q4 22 7.5 43.5t4 40.5t-2 34.5t-11.5 26.5
q-21 26 -83 27h-7q-44 0 -99 -11t-117.5 -28.5t-129 -40t-133.5 -45.5q-63 -21 -126 -42.5t-123 -39.5l-12 42q60 18 122 39t125 42q73 25 143 48.5t134 41.5t120.5 28t103.5 9q82 -1 116 -43q13 -17 18.5 -37t5.5 -43t-4 -48.5t-9 -51.5q-1 -5 -1.5 -8.5t-1.5 -8.5
q-12 -66 50 -96q63 -31 127.5 -15t115.5 73q2 23 2.5 43.5t2.5 39.5q3 47 5.5 81t8.5 57q1 5 4.5 15t10.5 19.5t18.5 17.5t29.5 9q28 2 42 -20q12 -19 10 -50t-11 -64.5t-22 -64t-23 -47.5q-17 -30 -36 -54q-3 -35 -6.5 -74.5t-9.5 -84.5q-2 -9 -3 -21t-3 -22
q76 56 157.5 101t161.5 70q53 16 115.5 33.5t126.5 34.5q51 14 98 26.5t89 24.5l12 -42q-42 -12 -89 -24.5t-99 -26.5q-63 -17 -125.5 -34t-114.5 -34q-86 -26 -172 -73.5t-165 -109.5q0 -5 -0.5 -8.5t-1.5 -7.5q-6 -61 -13.5 -125t-18.5 -126.5t-27 -120.5t-40 -105.5
t-56.5 -82.5t-76.5 -52q-13 -5 -24 -7t-21 -2zM1123 -212q-69 -60 -127 -129.5t-96 -138.5q-21 -37 -35.5 -80.5t-19.5 -85.5q-5 -39 -0.5 -70t17.5 -46q3 -4 15.5 -10t41.5 5q54 21 89.5 78.5t58 135t35 167t21.5 174.5zM1215 304q-3 -10 -5.5 -32t-5 -46.5t-4.5 -48.5
t-3 -39q5 10 10.5 26t11 33.5t10 34t7.5 28.5q9 37 13 58.5t-6 24.5q-8 3 -15.5 -8t-12.5 -31zM884 871q14 0 24 -10q11 -11 10 -27q0 -15 -13 -28q-12 -12 -29 -12q-10 0 -18 4q-14 8 -16 25q-3 22 13 37l1 1l1 1q12 9 27 9zM1180 857q13 -18 3 -41q-10 -21 -30 -24h-5
q-15 0 -24 12q-14 14 -11 36l1 1v1q5 14 14 22q10 9 23 9q18 0 29 -16z" />
    <glyph glyph-name="Agrave" unicode="&#xc0;" 
d="M1931 123q-79 -23 -161.5 -46.5t-162.5 -43.5t-155 -35t-139 -21q-5 -1 -9 -1h-9q-35 0 -68.5 13t-59.5 36q-14 13 -25.5 29.5t-14.5 33.5q-5 -10 -12 -19t-15 -17q-38 -35 -89 -55.5t-103 -20.5q-60 0 -100.5 28t-53.5 77q-12 45 -2.5 89t38.5 86q7 10 18 20.5
t23.5 20.5t26.5 18.5t27 14.5q-106 -11 -211 -30.5t-208.5 -45t-205 -54.5t-198.5 -58q-16 -5 -31.5 -9.5t-31.5 -9.5l-13 42q17 5 32.5 9.5t31.5 9.5q115 34 228 66t229 58t237 43.5t252 22.5h12q66 0 109 -34q37 -29 49 -77l25 -6q-2 -5 -3.5 -11t-3.5 -13
q-7 -21 -14 -48.5t-7 -56.5q0 -26 11 -43t22 -28q22 -20 52.5 -30t59.5 -7q63 6 137 21t153 35t160.5 43t159.5 46zM1070 84q42 41 55 96q0 2 0.5 3.5t0.5 3.5q3 20 2 36q-2 54 -38 83q-30 24 -82 24q-51 0 -95 -22q-15 -8 -39 -26.5t-45 -46t-32.5 -64t-0.5 -78.5
q6 -24 20.5 -38.5t31.5 -22t33 -9.5t27 -2q44 0 87 17t75 46zM1173 727l-9 -11l-9 -11l-9 -11l-11 8q-20 16 -40 35.5t-39 40t-35 41t-28 38.5l-8 11l12 8l13 8l11 8l8 -12q22 -34 59 -74t74 -70z" />
    <glyph glyph-name="Aacute" unicode="&#xc1;" 
d="M1931 123q-79 -23 -161.5 -46.5t-162.5 -43.5t-155 -35t-139 -21q-5 -1 -9 -1h-9q-35 0 -68.5 13t-59.5 36q-14 13 -25.5 29.5t-14.5 33.5q-5 -10 -12 -19t-15 -17q-38 -35 -89 -55.5t-103 -20.5q-60 0 -100.5 28t-53.5 77q-12 45 -2.5 89t38.5 86q7 10 18 20.5
t23.5 20.5t26.5 18.5t27 14.5q-106 -11 -211 -30.5t-208.5 -45t-205 -54.5t-198.5 -58q-16 -5 -31.5 -9.5t-31.5 -9.5l-13 42q17 5 32.5 9.5t31.5 9.5q115 34 228 66t229 58t237 43.5t252 22.5h12q66 0 109 -34q37 -29 49 -77l25 -6q-2 -5 -3.5 -11t-3.5 -13
q-7 -21 -14 -48.5t-7 -56.5q0 -26 11 -43t22 -28q22 -20 52.5 -30t59.5 -7q63 6 137 21t153 35t160.5 43t159.5 46zM1070 84q42 41 55 96q0 2 0.5 3.5t0.5 3.5q3 20 2 36q-2 54 -38 83q-30 24 -82 24q-51 0 -95 -22q-15 -8 -39 -26.5t-45 -46t-32.5 -64t-0.5 -78.5
q6 -24 20.5 -38.5t31.5 -22t33 -9.5t27 -2q44 0 87 17t75 46zM1318 868l-7 -11q-12 -18 -28.5 -38.5t-35 -41t-39 -40t-39.5 -35.5l-11 -8l-9 11l-9 11l-9 11l11 9q37 30 73.5 70t58.5 74l8 12l12 -8l12 -8z" />
    <glyph glyph-name="Acircumflex" unicode="&#xc2;" 
d="M1931 123q-79 -23 -161.5 -46.5t-162.5 -43.5t-155 -35t-139 -21q-5 -1 -9 -1h-9q-35 0 -68.5 13t-59.5 36q-14 13 -25.5 29.5t-14.5 33.5q-5 -10 -12 -19t-15 -17q-38 -35 -89 -55.5t-103 -20.5q-60 0 -100.5 28t-53.5 77q-12 45 -2.5 89t38.5 86q7 10 18 20.5
t23.5 20.5t26.5 18.5t27 14.5q-106 -11 -211 -30.5t-208.5 -45t-205 -54.5t-198.5 -58q-16 -5 -31.5 -9.5t-31.5 -9.5l-13 42q17 5 32.5 9.5t31.5 9.5q115 34 228 66t229 58t237 43.5t252 22.5h12q66 0 109 -34q37 -29 49 -77l25 -6q-2 -5 -3.5 -11t-3.5 -13
q-7 -21 -14 -48.5t-7 -56.5q0 -26 11 -43t22 -28q22 -20 52.5 -30t59.5 -7q63 6 137 21t153 35t160.5 43t159.5 46zM1070 84q42 41 55 96q0 2 0.5 3.5t0.5 3.5q3 20 2 36q-2 54 -38 83q-30 24 -82 24q-51 0 -95 -22q-15 -8 -39 -26.5t-45 -46t-32.5 -64t-0.5 -78.5
q6 -24 20.5 -38.5t31.5 -22t33 -9.5t27 -2q44 0 87 17t75 46zM1169 693l-11 -9l-12 -9l-10 -9l-9 11q-8 8 -18.5 23t-23.5 33t-26.5 37t-26.5 34q-13 18 -19 24q-14 -17 -31 -36.5t-33 -39.5q-32 -38 -41 -52.5t-10 -16.5l-5 -14l-13 6l-14 5l-13 5l5 13q1 2 3 7t9.5 15.5
t21.5 28.5t38 47q12 14 23 27t19.5 23.5t14.5 17t7 7.5l3 3l5 6l7 -1h4q10 -2 21 -11.5t31 -34.5q13 -17 27 -36.5t28 -38.5q13 -17 23 -31.5t17 -22.5z" />
    <glyph glyph-name="Atilde" unicode="&#xc3;" 
d="M1931 123q-79 -23 -161.5 -46.5t-162.5 -43.5t-155 -35t-139 -21q-5 -1 -9 -1h-9q-35 0 -68.5 13t-59.5 36q-14 13 -25.5 29.5t-14.5 33.5q-5 -10 -12 -19t-15 -17q-38 -35 -89 -55.5t-103 -20.5q-60 0 -100.5 28t-53.5 77q-12 45 -2.5 89t38.5 86q7 10 18 20.5
t23.5 20.5t26.5 18.5t27 14.5q-106 -11 -211 -30.5t-208.5 -45t-205 -54.5t-198.5 -58q-16 -5 -31.5 -9.5t-31.5 -9.5l-13 42q17 5 32.5 9.5t31.5 9.5q115 34 228 66t229 58t237 43.5t252 22.5h12q66 0 109 -34q37 -29 49 -77l25 -6q-2 -5 -3.5 -11t-3.5 -13
q-7 -21 -14 -48.5t-7 -56.5q0 -26 11 -43t22 -28q22 -20 52.5 -30t59.5 -7q63 6 137 21t153 35t160.5 43t159.5 46zM1070 84q42 41 55 96q0 2 0.5 3.5t0.5 3.5q3 20 2 36q-2 54 -38 83q-30 24 -82 24q-51 0 -95 -22q-15 -8 -39 -26.5t-45 -46t-32.5 -64t-0.5 -78.5
q6 -24 20.5 -38.5t31.5 -22t33 -9.5t27 -2q44 0 87 17t75 46zM1334 832l-9 -11q-17 -19 -41 -34.5t-52 -24.5q-36 -11 -68 -11q-26 0 -53 8q-18 5 -34 13.5t-32 16.5q-21 12 -41.5 21.5t-43.5 11.5q-3 0 -6 0.5t-6 0.5q-29 0 -52 -12.5t-43 -27.5l-11 -9l-8 11l-10 12l-8 11
l11 8q10 8 22.5 17t29.5 17q34 15 69 15h16q29 -3 53.5 -14t47.5 -24q14 -8 29 -15t30 -12q19 -6 40 -6q36 0 72 15.5t56 39.5l9 11l11 -9l11 -10z" />
    <glyph glyph-name="question" unicode="?" horiz-adv-x="833" 
d="M324 74q18 0 29 -12q12 -12 12 -31q0 -20 -16 -34q-15 -15 -35 -15q-11 0 -21 5q-17 9 -20 29q-2 12 3 24.5t13 20.5l1 1l1 1q17 11 33 11zM637 1024q6 -48 -3 -115q-5 -36 -20 -69t-35.5 -63.5t-44.5 -58t-48 -53.5q-19 -20 -36 -39t-31 -38q-44 -59 -70.5 -114
t-36 -108.5t-1.5 -106.5t33 -109l6 -13l-13 -6l-14 -6l-13 -5l-5 12q-58 131 -33 253q11 56 38.5 111.5t74.5 117.5q15 20 32.5 40t36.5 40q23 25 46 51t42 53.5t32 56t17 60.5q9 66 3 111q-6 42 -26 65q-26 31 -78 32h-2q-26 0 -55.5 -13.5t-49.5 -36.5q-28 -31 -25 -58
l1 -13l-14 -2l-15 -1l-14 -2l-1 14q-5 46 36 91q28 29 64 46q36 18 73 18h4q72 -3 109 -47q30 -34 36 -95z" />
    <glyph glyph-name="questiondown" unicode="&#xbf;" horiz-adv-x="833" 
d="M557 1066q-17 0 -29 12t-12 32q2 19 16 33q15 15 36 15q12 0 21 -5q16 -10 19 -29q2 -11 -2.5 -24t-13.5 -21l-1 -1h-1q-17 -12 -33 -12zM428 447q-23 -26 -45.5 -52t-41.5 -53t-32.5 -56.5t-18.5 -60.5q-10 -61 -4 -109q6 -45 27 -67q25 -31 78 -31q30 0 59.5 12.5
t49.5 35.5q27 30 24 59l-2 14l14 1l15 2l14 1l1 -14q3 -23 -6 -47t-28 -45q-28 -29 -64 -46q-36 -16 -77 -16h-1q-71 0 -110 46q-29 33 -36 87q-7 52 3 124q6 36 21 69t36 63t45 57.5t47 53.5q19 20 35.5 39t30.5 38q45 59 71.5 114t35.5 108.5t1 107t-33 109.5l-5 12l12 6
l14 6l13 6l6 -13q57 -132 32 -253q-11 -55 -38 -110.5t-75 -118.5q-14 -20 -31.5 -39.5t-36.5 -39.5z" />
    <glyph glyph-name="bracketleft" unicode="[" horiz-adv-x="833" 
d="M616 -226h-14q-24 0 -48 -1t-47 -3q-25 -2 -50 -3t-50 -1h-20t-18 1h-7l-14 1l1 14v7v52t-0.5 79.5t-1 101t-0.5 116.5q-1 67 -1.5 138.5t-1 142.5t-0.5 139.5v131.5q-1 97 -0.5 160t1.5 98q1 30 2 38t3 12q10 18 50 25q17 2 39.5 3.5t54.5 1.5q15 0 33 -0.5t41 -0.5
q10 -1 18.5 -1h14.5h14v-14v-15v-14h-14h-14.5t-19.5 1h-1q-15 0 -33.5 0.5t-37.5 0.5h-25t-22 -1q-28 -2 -41 -4t-18 -4q0 -6 -0.5 -22.5t-1 -49.5t-0.5 -86.5v-133.5v-130t0.5 -138.5t1 -140.5t1.5 -137q0 -54 0.5 -103.5t1 -92t0.5 -77v-56.5h15q24 0 48.5 1t48.5 3
t48.5 3t48.5 1h14v-14v-15z" />
    <glyph glyph-name="bracketright" unicode="]" horiz-adv-x="833" 
d="M462 104q1 -97 0.5 -160t-1.5 -98q-1 -30 -2 -38t-3 -12q-10 -19 -50 -25q-17 -2 -39.5 -3.5t-54.5 -1.5h-33t-41 1q-10 1 -19 1h-15h-14v14v15v14h14h15.5t19.5 -1h1q15 0 33.5 -0.5t37.5 -0.5h25t22 1q28 2 41 4t18 4q0 6 0.5 22.5t1 49.5t0.5 86.5v133.5v130t-0.5 138
t-1 140.5t-1.5 137.5q0 54 -0.5 103.5t-1 92t-0.5 76.5v57h-15q-24 0 -48.5 -1t-48.5 -3t-48.5 -3t-48.5 -2h-14l-1 14v15v14h14l48 2t47 3q25 2 50 3t50 1q11 0 20 -0.5t18 -0.5l7 -1h14l-1 -14v-7v-52t0.5 -79.5t1 -101t0.5 -116.5q1 -68 1.5 -139l1 -142t0.5 -139.5
v-131.5z" />
    <glyph glyph-name="parenleft" unicode="(" horiz-adv-x="833" 
d="M583 -303l-11 -9l-11 -10l-11 -9l-9 11q-24 28 -42 64t-35 73q-5 13 -10.5 25t-11.5 23q-65 131 -98 262q-18 69 -26.5 138t-10.5 141q-1 79 11.5 152t33 143.5t47.5 139.5t56 139l6 14l6 13l13 -5l13 -6l13 -5l-5 -13l-6 -14q-29 -69 -55.5 -136t-46.5 -135.5
t-32 -139.5t-11 -146q2 -136 34 -263.5t97 -259.5q5 -12 11 -24t12 -26q15 -35 32 -68t38 -58z" />
    <glyph glyph-name="parenright" unicode=")" horiz-adv-x="833" 
d="M496 274q1 -79 -11.5 -152.5t-33 -143.5t-47.5 -139t-56 -139l-6 -14l-6 -13l-13 5l-14 6l-12 5l5 13l6 14q28 69 54.5 136t47 135.5t32.5 139.5t11 146q-2 136 -34 263.5t-97 259.5q-6 12 -11.5 24t-11.5 26q-15 35 -32 68t-38 58l-9 11l11 9l11 9l11 10l9 -11
q24 -28 42 -64t35 -73q5 -13 10.5 -25t11.5 -23q65 -131 98 -262q18 -69 26.5 -138t10.5 -141z" />
    <glyph glyph-name="dollar" unicode="$" horiz-adv-x="989" 
d="M761 340q9 -64 -21 -126q-32 -66 -105 -126q-50 -40 -110 -51q2 -57 0.5 -112.5t-6.5 -109.5l-2 -14l-14 1l-14 2l-14 1l1 14q5 53 6.5 106.5t-0.5 107.5q-58 0 -113 26q-64 30 -101.5 82.5t-37.5 111.5v14h14h15h14v-14q0 -46 31 -88t83 -67q23 -11 46.5 -16.5
t47.5 -5.5q-2 42 -5 83.5t-5 83.5q-5 58 -8 116.5t-5 115.5q0 30 -0.5 59.5t-0.5 59.5q-1 1 -1.5 1t-1.5 1q-45 19 -82 48.5t-63 67.5q-50 71 -53 154q-3 63 25 116q29 55 86 85q30 16 86 16q-1 17 -1 32.5v31.5v20t-1 23q-1 35 -1 67t3 48l2 14l14 -2l14 -3l14 -2l-2 -14
q-1 -6 -1.5 -18.5t-0.5 -27.5t0.5 -31t0.5 -30q1 -12 1 -23v-20v-33.5t1 -33.5q45 -6 79 -21q56 -26 67 -71l3 -14l-14 -3l-14 -4l-14 -3l-3 14q-4 16 -17 26t-26 16t-28.5 10t-32.5 7v-26q1 -97 1.5 -194t1.5 -196q94 -45 162 -108q40 -39 66 -81q28 -47 34 -93zM453 1040
q-21 0 -38.5 -3t-27.5 -8q-45 -23 -67.5 -65t-20.5 -96q1 -35 12.5 -68t32 -62.5t49 -54t63.5 -41.5q-1 94 -1.5 186t-1.5 183v29zM513 246q3 -42 5.5 -83t4.5 -83q47 11 85 41q126 105 110 213q-11 76 -87 149q-26 25 -59.5 48t-71.5 43q0 -25 0.5 -49.5t0.5 -49.5
q2 -56 5 -114t7 -115z" />
    <glyph glyph-name="ampersand" unicode="&#x26;" horiz-adv-x="833" 
d="M669 131q-14 -19 -29.5 -36.5t-32.5 -32.5q6 -31 11 -64t8 -68q4 -41 6 -84t2 -90v-14h-14h-15h-14v14q0 78 -5.5 146t-16.5 128q-55 -43 -115 -63q-63 -20 -121 -20q-43 0 -76 10q-36 10 -65 30q-33 24 -51 62q-17 35 -17 84q0 115 72 188q32 32 70 55t76 44
q-13 11 -23.5 22.5t-18.5 24.5q-27 35 -34 80q-12 70 28 120q20 24 47.5 37.5t59.5 15.5h5q58 0 94 -41q20 -23 28 -57t1 -75q-9 -51 -47 -87q-15 -15 -32.5 -27t-34.5 -22q23 -20 47 -45.5t48 -59.5q28 -41 49.5 -89t36.5 -106q11 11 20.5 22.5t18.5 23.5q38 52 59 105.5
t21 100.5q-2 92 -84 117l-14 4l4 14l5 14l4 13l13 -4q59 -19 87 -61t28 -97q0 -54 -23 -114.5t-66 -117.5zM363 382q-38 -20 -73.5 -41t-62.5 -49t-43.5 -66.5t-16.5 -92.5q0 -75 51 -111q43 -32 115 -32q54 0 107 18q62 20 120 69q-16 68 -38 117t-46.5 85t-50.5 62t-50 48
q-3 -2 -6 -3.5t-6 -3.5zM402 677q-46 -2 -75 -37q-10 -12 -17 -33t-2 -53q7 -36 26 -61.5t48 -51.5q45 26 71.5 51t32.5 62q11 63 -19 97q-21 26 -61 26h-4z" />
    <glyph glyph-name="asterisk" unicode="*" horiz-adv-x="833" 
d="M574 704q0 -3 1 -7q0 -3 0.5 -6t0.5 -6v-13q-28 -1 -56 2t-51 3q14 -12 34 -27t43 -37l-9 -10l-9 -11l-10 -12q-22 22 -39.5 42.5t-33.5 34.5q0 -17 2 -42.5t5 -54.5l-14 -2l-15 -2l-13 -1q-4 27 -1.5 53t2.5 48q-10 -12 -24.5 -34.5t-33.5 -50.5l-12 10l-11 10l-9 7
q14 25 34.5 43.5t34.5 33.5q-22 1 -52 1t-50 2l2 14l2 15l2 14q17 -2 45 -5.5t52 -4.5q-14 15 -35 35t-38 46l12 7l16 10l12 7q14 -23 29.5 -47.5t26.5 -37.5q-1 20 -4.5 49t-3.5 59h14h15h14q0 -31 -0.5 -56.5t-0.5 -54.5q19 16 36.5 40t37.5 49l11 -8l12 -10l11 -8
q-20 -26 -43 -44.5t-37 -32.5q20 0 42 1t54 3z" />
    <glyph glyph-name="colon" unicode=":" horiz-adv-x="699" 
d="M306 350q-15 8 -17 26q-2 11 2 21.5t12 18.5l1 1l1 1q15 10 29 10q17 0 26 -11q6 -5 8.5 -12.5t2.5 -15.5q-2 -17 -14 -31q-15 -13 -32 -13q-9 0 -19 5zM334 70q17 0 26 -11q11 -11 11 -29q-2 -16 -14 -30q-15 -13 -32 -13q-12 0 -19 5q-15 8 -17 25q-3 25 14 41l1 1h1
q14 11 29 11z" />
    <glyph glyph-name="semicolon" unicode=";" horiz-adv-x="594" 
d="M345 416q12 -12 10 -27q0 -18 -14 -30q-12 -13 -31 -13q-11 0 -19 4q-14 9 -17 26q-2 11 2 21.5t12 18.5l1 1h1q13 10 29 10q15 0 26 -11zM329 66q4 -11 6 -26t1 -32q-2 -40 -17 -68q-14 -27 -36.5 -48t-48.5 -31l-13 -5l-5 13l-5 14l-5 13l13 5q40 16 62 59
q6 12 8.5 25.5t3 26.5t-0.5 23t-3 15l-5 13l13 5l14 6l13 5z" />
    <glyph glyph-name="exclamdown" unicode="&#xa1;" horiz-adv-x="672" 
d="M390 1000l13 -4l-4 -13q-5 -13 -11 -49.5t-13 -92.5t-14.5 -129t-15.5 -158q-8 -83 -14 -164t-11 -153.5t-8.5 -133.5t-4.5 -104v-14l-14 1h-15h-14v14q1 44 4.5 106t8.5 135t11.5 154.5t14.5 165.5q2 22 5.5 59t8 81t10 90.5t11 87.5t10.5 72.5t10 45.5l5 13l13 -5z
M445 1118q2 -12 -2.5 -24.5t-13.5 -20.5l-1 -1l-1 -1q-16 -11 -33 -11t-29 12q-13 13 -11 31q0 18 16 34q15 15 35 15q9 0 21 -5q16 -9 19 -29z" />
    <glyph glyph-name="exclam" unicode="!" horiz-adv-x="608" 
d="M410 1147v-14q-1 -44 -4.5 -105.5t-8.5 -134.5t-11.5 -154.5t-14.5 -165.5q-2 -22 -5.5 -59t-8 -81t-10 -90.5t-11 -87.5t-10.5 -72.5t-10 -45.5l-5 -13l-13 4l-14 5l-13 5l4 13q4 13 10.5 49.5t13.5 92.5t14.5 129t15.5 158q7 83 13.5 164t11.5 153.5t8.5 133t4.5 103.5
v14h14h15zM279 74q18 0 30 -12q13 -13 11 -31q0 -20 -16 -34q-14 -15 -35 -15q-9 0 -21 5q-18 10 -19 29q-2 12 2.5 24.5t13.5 20.5l1 1v1q17 11 33 11z" />
    <glyph glyph-name="Adieresis" unicode="&#xc4;" 
d="M1931 123q-79 -23 -161.5 -46.5t-162.5 -43.5t-155 -35t-139 -21q-5 -1 -9 -1h-9q-35 0 -68.5 13t-59.5 36q-14 13 -25.5 29.5t-14.5 33.5q-5 -10 -12 -19t-15 -17q-38 -35 -89 -55.5t-103 -20.5q-60 0 -100.5 28t-53.5 77q-12 45 -2.5 89t38.5 86q7 10 18 20.5
t23.5 20.5t26.5 18.5t27 14.5q-106 -11 -211 -30.5t-208.5 -45t-205 -54.5t-198.5 -58q-16 -5 -31.5 -9.5t-31.5 -9.5l-13 42q17 5 32.5 9.5t31.5 9.5q115 34 228 66t229 58t237 43.5t252 22.5h12q66 0 109 -34q37 -29 49 -77l25 -6q-2 -5 -3.5 -11t-3.5 -13
q-7 -21 -14 -48.5t-7 -56.5q0 -26 11 -43t22 -28q22 -20 52.5 -30t59.5 -7q63 6 137 21t153 35t160.5 43t159.5 46zM1070 84q42 41 55 96q0 2 0.5 3.5t0.5 3.5q3 20 2 36q-2 54 -38 83q-30 24 -82 24q-51 0 -95 -22q-15 -8 -39 -26.5t-45 -46t-32.5 -64t-0.5 -78.5
q6 -24 20.5 -38.5t31.5 -22t33 -9.5t27 -2q44 0 87 17t75 46zM930 871q14 0 24 -10q11 -11 10 -27q0 -15 -13 -28q-12 -12 -29 -12q-10 0 -18 4q-14 8 -16 25q-3 22 13 37l1 1l1 1q12 9 27 9zM1226 857q13 -18 3 -41q-10 -21 -30 -24h-5q-15 0 -24 12q-14 14 -11 36l1 1v1
q5 14 14 22q10 9 23 9q18 0 29 -16z" />
    <glyph glyph-name="Edieresis" unicode="&#xcb;" horiz-adv-x="1916" 
d="M1922 125q-150 -45 -307.5 -76.5t-305.5 -47.5q-103 -11 -198.5 -17t-184.5 -6h-30q-59 1 -99 28.5t-53 76.5q-11 45 -1.5 89t38.5 86q14 20 30 36t32 28q-106 -11 -206 -29t-197.5 -41.5t-193.5 -51.5t-194 -57l-63 -18l-13 42q17 5 32.5 9t31.5 9q115 34 228 66t229 58
t237 43.5t252 22.5q34 2 65.5 -5.5t56.5 -27.5q22 -17 39.5 -47.5t16.5 -63.5q-2 -44 -40 -72q-29 -19 -67 -24t-75 -7q-14 -1 -26.5 -1.5t-23.5 -2.5q-5 -1 -10 -1.5t-10 -1.5q-16 -2 -33.5 -4.5t-34 -6.5t-30.5 -10.5t-24 -15.5q7 -20 20 -32t28.5 -19t31 -9t27.5 -2
q92 -1 195.5 4.5t212.5 17.5q146 16 301 47.5t304 75.5zM903 309q-13 -6 -34 -21.5t-40.5 -38.5t-33 -52.5t-13.5 -64.5q26 16 59.5 22t64.5 11q5 0 10 0.5t10 1.5q12 2 25.5 3t28.5 2q32 2 65 6t54 18q21 13 22 37q1 18 -10.5 39t-29.5 36q-32 24 -83 24q-25 0 -48 -6
t-47 -17zM905 871q14 0 24 -10q11 -11 10 -27q0 -15 -13 -28q-12 -12 -29 -12q-10 0 -18 4q-14 8 -16 25q-3 22 13 37l1 1l1 1q12 9 27 9zM1201 857q13 -18 3 -41q-10 -21 -30 -24h-5q-15 0 -24 12q-14 14 -11 36l1 1v1q5 14 14 22q10 9 23 9q18 0 29 -16z" />
    <glyph glyph-name="Egrave" unicode="&#xc8;" 
d="M1934 125q-150 -45 -307.5 -76.5t-305.5 -47.5q-103 -11 -198.5 -17t-184.5 -6h-30q-59 1 -99 28.5t-53 76.5q-11 45 -1.5 89t38.5 86q14 20 30 36t32 28q-106 -11 -206 -29t-197.5 -41.5t-193.5 -51.5t-194 -57l-63 -18l-13 42q17 5 32.5 9t31.5 9q115 34 228 66t229 58
t237 43.5t252 22.5q34 2 65.5 -5.5t56.5 -27.5q22 -17 39.5 -47.5t16.5 -63.5q-2 -44 -40 -72q-29 -19 -67 -24t-75 -7q-14 -1 -26.5 -1.5t-23.5 -2.5q-5 -1 -10 -1.5t-10 -1.5q-16 -2 -33.5 -4.5t-34 -6.5t-30.5 -10.5t-24 -15.5q7 -20 20 -32t28.5 -19t31 -9t27.5 -2
q92 -1 195.5 4.5t212.5 17.5q146 16 301 47.5t304 75.5zM915 309q-13 -6 -34 -21.5t-40.5 -38.5t-33 -52.5t-13.5 -64.5q26 16 59.5 22t64.5 11q5 0 10 0.5t10 1.5q12 2 25.5 3t28.5 2q32 2 65 6t54 18q21 13 22 37q1 18 -10.5 39t-29.5 36q-32 24 -83 24q-25 0 -48 -6
t-47 -17zM1142 727l-9 -11l-9 -11l-9 -11l-11 8q-20 16 -40 35.5t-39 40t-35 41t-28 38.5l-8 11l12 8l13 8l11 8l8 -12q22 -34 59 -74t74 -70z" />
    <glyph glyph-name="Eacute" unicode="&#xc9;" 
d="M1934 125q-150 -45 -307.5 -76.5t-305.5 -47.5q-103 -11 -198.5 -17t-184.5 -6h-30q-59 1 -99 28.5t-53 76.5q-11 45 -1.5 89t38.5 86q14 20 30 36t32 28q-106 -11 -206 -29t-197.5 -41.5t-193.5 -51.5t-194 -57l-63 -18l-13 42q17 5 32.5 9t31.5 9q115 34 228 66t229 58
t237 43.5t252 22.5q34 2 65.5 -5.5t56.5 -27.5q22 -17 39.5 -47.5t16.5 -63.5q-2 -44 -40 -72q-29 -19 -67 -24t-75 -7q-14 -1 -26.5 -1.5t-23.5 -2.5q-5 -1 -10 -1.5t-10 -1.5q-16 -2 -33.5 -4.5t-34 -6.5t-30.5 -10.5t-24 -15.5q7 -20 20 -32t28.5 -19t31 -9t27.5 -2
q92 -1 195.5 4.5t212.5 17.5q146 16 301 47.5t304 75.5zM915 309q-13 -6 -34 -21.5t-40.5 -38.5t-33 -52.5t-13.5 -64.5q26 16 59.5 22t64.5 11q5 0 10 0.5t10 1.5q12 2 25.5 3t28.5 2q32 2 65 6t54 18q21 13 22 37q1 18 -10.5 39t-29.5 36q-32 24 -83 24q-25 0 -48 -6
t-47 -17zM1367 868l-7 -11q-12 -18 -28.5 -38.5t-35 -41t-39 -40t-39.5 -35.5l-11 -8l-9 11l-9 11l-9 11l11 9q37 30 73.5 70t58.5 74l8 12l12 -8l12 -8z" />
    <glyph glyph-name="Ecircumflex" unicode="&#xca;" 
d="M1934 125q-150 -45 -307.5 -76.5t-305.5 -47.5q-103 -11 -198.5 -17t-184.5 -6h-30q-59 1 -99 28.5t-53 76.5q-11 45 -1.5 89t38.5 86q14 20 30 36t32 28q-106 -11 -206 -29t-197.5 -41.5t-193.5 -51.5t-194 -57l-63 -18l-13 42q17 5 32.5 9t31.5 9q115 34 228 66t229 58
t237 43.5t252 22.5q34 2 65.5 -5.5t56.5 -27.5q22 -17 39.5 -47.5t16.5 -63.5q-2 -44 -40 -72q-29 -19 -67 -24t-75 -7q-14 -1 -26.5 -1.5t-23.5 -2.5q-5 -1 -10 -1.5t-10 -1.5q-16 -2 -33.5 -4.5t-34 -6.5t-30.5 -10.5t-24 -15.5q7 -20 20 -32t28.5 -19t31 -9t27.5 -2
q92 -1 195.5 4.5t212.5 17.5q146 16 301 47.5t304 75.5zM915 309q-13 -6 -34 -21.5t-40.5 -38.5t-33 -52.5t-13.5 -64.5q26 16 59.5 22t64.5 11q5 0 10 0.5t10 1.5q12 2 25.5 3t28.5 2q32 2 65 6t54 18q21 13 22 37q1 18 -10.5 39t-29.5 36q-32 24 -83 24q-25 0 -48 -6
t-47 -17zM1131 693l-11 -9l-12 -9l-10 -9l-9 11q-8 8 -18.5 23t-23.5 33t-26.5 37t-26.5 34q-13 18 -19 24q-14 -17 -31 -36.5t-33 -39.5q-32 -38 -41 -52.5t-10 -16.5l-5 -14l-13 6l-14 5l-13 5l5 13q1 2 3 7t9.5 15.5t21.5 28.5t38 47q12 14 23 27t19.5 23.5t14.5 17
t7 7.5l3 3l5 6l7 -1h4q10 -2 21 -11.5t31 -34.5q13 -17 27 -36.5t28 -38.5q13 -17 23 -31.5t17 -22.5z" />
    <glyph glyph-name="Igrave" unicode="&#xcc;" horiz-adv-x="1780" 
d="M1781 123q-18 -5 -36 -10.5t-36 -11.5q-68 -20 -137 -40t-135.5 -37t-130.5 -29.5t-122 -18.5q-5 -1 -15.5 -1.5t-24.5 -0.5q-21 0 -47.5 2.5t-55 10t-56.5 21t-50 36.5q-65 65 -54 176q3 31 9 59t12 51q-106 -6 -198.5 -20t-179.5 -34t-171 -45t-172 -53
q-44 -14 -88.5 -27.5t-92.5 -27.5l-13 42q48 14 92.5 27.5t88.5 27.5q92 29 180 55t179.5 47t190 35t212.5 18l31 1q-4 -14 -6.5 -22.5t-5.5 -19.5q-6 -22 -13.5 -53t-10.5 -65q-9 -91 41 -141q25 -26 60 -38t67 -16t56.5 -3t30.5 1q56 6 118.5 18.5t128.5 29.5t134 37
l136 40l72 21zM1089 727l-9 -11l-9 -11l-9 -11l-11 8q-20 16 -40 35.5t-39 40t-35 41t-28 38.5l-8 11l12 8l13 8l11 8l8 -12q22 -34 59 -74t74 -70z" />
    <glyph glyph-name="Iacute" unicode="&#xcd;" horiz-adv-x="1781" 
d="M1781 123q-18 -5 -36 -10.5t-36 -11.5q-68 -20 -137 -40t-135.5 -37t-130.5 -29.5t-122 -18.5q-5 -1 -15.5 -1.5t-24.5 -0.5q-21 0 -47.5 2.5t-55 10t-56.5 21t-50 36.5q-65 65 -54 176q3 31 9 59t12 51q-106 -6 -198.5 -20t-179.5 -34t-171 -45t-172 -53
q-44 -14 -88.5 -27.5t-92.5 -27.5l-13 42q48 14 92.5 27.5t88.5 27.5q92 29 180 55t179.5 47t190 35t212.5 18l31 1q-4 -14 -6.5 -22.5t-5.5 -19.5q-6 -22 -13.5 -53t-10.5 -65q-9 -91 41 -141q25 -26 60 -38t67 -16t56.5 -3t30.5 1q56 6 118.5 18.5t128.5 29.5t134 37
l136 40l72 21zM1218 868l-7 -11q-12 -18 -28.5 -38.5t-35 -41t-39 -40t-39.5 -35.5l-11 -8l-9 11l-9 11l-9 11l11 9q37 30 73.5 70t58.5 74l8 12l12 -8l12 -8z" />
    <glyph glyph-name="Icircumflex" unicode="&#xce;" horiz-adv-x="1782" 
d="M1781 123q-18 -5 -36 -10.5t-36 -11.5q-68 -20 -137 -40t-135.5 -37t-130.5 -29.5t-122 -18.5q-5 -1 -15.5 -1.5t-24.5 -0.5q-21 0 -47.5 2.5t-55 10t-56.5 21t-50 36.5q-65 65 -54 176q3 31 9 59t12 51q-106 -6 -198.5 -20t-179.5 -34t-171 -45t-172 -53
q-44 -14 -88.5 -27.5t-92.5 -27.5l-13 42q48 14 92.5 27.5t88.5 27.5q92 29 180 55t179.5 47t190 35t212.5 18l31 1q-4 -14 -6.5 -22.5t-5.5 -19.5q-6 -22 -13.5 -53t-10.5 -65q-9 -91 41 -141q25 -26 60 -38t67 -16t56.5 -3t30.5 1q56 6 118.5 18.5t128.5 29.5t134 37
l136 40l72 21zM1118 693l-11 -9l-12 -9l-10 -9l-9 11q-8 8 -18.5 23t-23.5 33t-26.5 37t-26.5 34q-13 18 -19 24q-14 -17 -31 -36.5t-33 -39.5q-32 -38 -41 -52.5t-10 -16.5l-5 -14l-13 6l-14 5l-13 5l5 13q1 2 3 7t9.5 15.5t21.5 28.5t38 47q12 14 23 27t19.5 23.5t14.5 17
t7 7.5l3 3l5 6l7 -1h4q10 -2 21 -11.5t31 -34.5q13 -17 27 -36.5t28 -38.5q13 -17 23 -31.5t17 -22.5z" />
    <glyph glyph-name="Idieresis" unicode="&#xcf;" horiz-adv-x="1782" 
d="M1781 123q-18 -5 -36 -10.5t-36 -11.5q-68 -20 -137 -40t-135.5 -37t-130.5 -29.5t-122 -18.5q-5 -1 -15.5 -1.5t-24.5 -0.5q-21 0 -47.5 2.5t-55 10t-56.5 21t-50 36.5q-65 65 -54 176q3 31 9 59t12 51q-106 -6 -198.5 -20t-179.5 -34t-171 -45t-172 -53
q-44 -14 -88.5 -27.5t-92.5 -27.5l-13 42q48 14 92.5 27.5t88.5 27.5q92 29 180 55t179.5 47t190 35t212.5 18l31 1q-4 -14 -6.5 -22.5t-5.5 -19.5q-6 -22 -13.5 -53t-10.5 -65q-9 -91 41 -141q25 -26 60 -38t67 -16t56.5 -3t30.5 1q56 6 118.5 18.5t128.5 29.5t134 37
l136 40l72 21zM846 871q14 0 24 -10q11 -11 10 -27q0 -15 -13 -28q-12 -12 -29 -12q-10 0 -18 4q-14 8 -16 25q-3 22 13 37l1 1l1 1q12 9 27 9zM1142 857q13 -18 3 -41q-10 -21 -30 -24h-5q-15 0 -24 12q-14 14 -11 36l1 1v1q5 14 14 22q10 9 23 9q18 0 29 -16z" />
    <glyph glyph-name="Ntilde" unicode="&#xd1;" horiz-adv-x="2324" 
d="M2332 122q-79 -23 -161.5 -46.5t-162.5 -43.5t-155.5 -35t-139.5 -22h-17q-33 0 -66 12t-58 34q-50 42 -53 105q0 10 -0.5 31.5t0.5 53.5q1 30 -9 54.5t-30 39.5q-29 24 -93 24h-1q-56 0 -93.5 -16t-62.5 -43t-41.5 -63t-29.5 -77q-6 -21 -13.5 -43t-15 -41.5t-14 -35
t-10.5 -23.5l-39 18q7 15 18 43t21.5 59t18 59.5t7.5 44.5q1 30 -9 54.5t-30 39.5q-16 13 -40 19.5t-53 4.5q-129 -5 -249.5 -22.5t-236 -43t-228 -57.5t-227.5 -66q-15 -5 -30 -9t-29 -9l-13 42q15 5 30 9l30 8q116 34 229.5 66.5t230 58.5t238.5 44t254 23q36 2 67.5 -7
t53.5 -26q37 -29 49 -77q13 20 27 35q69 76 190 76h1q27 0 60.5 -7t59.5 -27q28 -22 42.5 -56t13.5 -74q-2 -62 0 -82q1 -27 13 -45t24 -29q22 -19 51 -28.5t57 -6.5q63 6 137 21t153.5 35t161.5 43t160 46zM1532 832l-9 -11q-17 -19 -41 -34.5t-52 -24.5q-36 -11 -68 -11
q-26 0 -53 8q-18 5 -34 13.5t-32 16.5q-21 12 -41.5 21.5t-43.5 11.5q-3 0 -6 0.5t-6 0.5q-29 0 -52 -12.5t-43 -27.5l-11 -9l-8 11l-10 12l-8 11l11 8q10 8 22.5 17t29.5 17q34 15 69 15h16q29 -3 53.5 -14t47.5 -24q14 -8 29 -15t30 -12q19 -6 40 -6q36 0 72 15.5t56 39.5
l9 11l11 -9l11 -10z" />
    <glyph glyph-name="Ograve" unicode="&#xd2;" 
d="M1934 123q-68 -20 -142 -35.5t-152 -26t-157 -16t-157 -5.5q-127 0 -209 27q-3 -4 -6.5 -8t-8.5 -8q-37 -35 -88.5 -55.5t-103.5 -20.5q-60 0 -100.5 28t-53.5 77q-12 45 -2.5 89.5t38.5 86.5q7 10 18.5 21t25 21t27 18t24.5 13q-106 -11 -211 -30.5t-208.5 -45
t-205 -54.5t-199.5 -58l-63 -18l-13 41q17 5 32.5 9.5t31.5 9.5q115 34 227.5 66t227 58t235 43.5t251.5 22.5h18q68 0 109 -33q26 -20 39.5 -50t15.5 -66q2 -31 -6 -61.5t-24 -58.5q75 -20 182 -20q76 0 154 5.5t154 15.5t149 25t139 35zM1019 231q0 -74 83 -111
q31 47 29 102q-1 20 -6.5 36t-14.5 29q-6 6 -22.5 11.5t-33.5 -2.5q-12 -6 -23.5 -21t-11.5 -44zM910 20q44 0 87 17t75 47q1 0 1 1q-98 49 -98 146q0 17 5.5 33.5t16 30t25.5 21.5t33 8q-13 3 -26.5 4.5t-18.5 1.5q-51 0 -95 -23q-15 -8 -39 -26.5t-45 -46t-32.5 -64
t-0.5 -78.5q6 -24 20.5 -38.5t31.5 -22t33 -9.5t27 -2zM1142 727l-9 -11l-9 -11l-9 -11l-11 8q-20 16 -40 35.5t-39 40t-35 41t-28 38.5l-8 11l12 8l13 8l11 8l8 -12q22 -34 59 -74t74 -70z" />
    <glyph glyph-name="Oacute" unicode="&#xd3;" 
d="M1934 123q-68 -20 -142 -35.5t-152 -26t-157 -16t-157 -5.5q-127 0 -209 27q-3 -4 -6.5 -8t-8.5 -8q-37 -35 -88.5 -55.5t-103.5 -20.5q-60 0 -100.5 28t-53.5 77q-12 45 -2.5 89.5t38.5 86.5q7 10 18.5 21t25 21t27 18t24.5 13q-106 -11 -211 -30.5t-208.5 -45
t-205 -54.5t-199.5 -58l-63 -18l-13 41q17 5 32.5 9.5t31.5 9.5q115 34 227.5 66t227 58t235 43.5t251.5 22.5h18q68 0 109 -33q26 -20 39.5 -50t15.5 -66q2 -31 -6 -61.5t-24 -58.5q75 -20 182 -20q76 0 154 5.5t154 15.5t149 25t139 35zM1019 231q0 -74 83 -111
q31 47 29 102q-1 20 -6.5 36t-14.5 29q-6 6 -22.5 11.5t-33.5 -2.5q-12 -6 -23.5 -21t-11.5 -44zM910 20q44 0 87 17t75 47q1 0 1 1q-98 49 -98 146q0 17 5.5 33.5t16 30t25.5 21.5t33 8q-13 3 -26.5 4.5t-18.5 1.5q-51 0 -95 -23q-15 -8 -39 -26.5t-45 -46t-32.5 -64
t-0.5 -78.5q6 -24 20.5 -38.5t31.5 -22t33 -9.5t27 -2zM1297 868l-7 -11q-12 -18 -28.5 -38.5t-35 -41t-39 -40t-39.5 -35.5l-11 -8l-9 11l-9 11l-9 11l11 9q37 30 73.5 70t58.5 74l8 12l12 -8l12 -8z" />
    <glyph glyph-name="Ocircumflex" unicode="&#xd4;" 
d="M1934 123q-68 -20 -142 -35.5t-152 -26t-157 -16t-157 -5.5q-127 0 -209 27q-3 -4 -6.5 -8t-8.5 -8q-37 -35 -88.5 -55.5t-103.5 -20.5q-60 0 -100.5 28t-53.5 77q-12 45 -2.5 89.5t38.5 86.5q7 10 18.5 21t25 21t27 18t24.5 13q-106 -11 -211 -30.5t-208.5 -45
t-205 -54.5t-199.5 -58l-63 -18l-13 41q17 5 32.5 9.5t31.5 9.5q115 34 227.5 66t227 58t235 43.5t251.5 22.5h18q68 0 109 -33q26 -20 39.5 -50t15.5 -66q2 -31 -6 -61.5t-24 -58.5q75 -20 182 -20q76 0 154 5.5t154 15.5t149 25t139 35zM1019 231q0 -74 83 -111
q31 47 29 102q-1 20 -6.5 36t-14.5 29q-6 6 -22.5 11.5t-33.5 -2.5q-12 -6 -23.5 -21t-11.5 -44zM910 20q44 0 87 17t75 47q1 0 1 1q-98 49 -98 146q0 17 5.5 33.5t16 30t25.5 21.5t33 8q-13 3 -26.5 4.5t-18.5 1.5q-51 0 -95 -23q-15 -8 -39 -26.5t-45 -46t-32.5 -64
t-0.5 -78.5q6 -24 20.5 -38.5t31.5 -22t33 -9.5t27 -2zM1201 693l-11 -9l-12 -9l-10 -9l-9 11q-8 8 -18.5 23t-23.5 33t-26.5 37t-26.5 34q-13 18 -19 24q-14 -17 -31 -36.5t-33 -39.5q-32 -38 -41 -52.5t-10 -16.5l-5 -14l-13 6l-14 5l-13 5l5 13q1 2 3 7t9.5 15.5
t21.5 28.5t38 47q12 14 23 27t19.5 23.5t14.5 17t7 7.5l3 3l5 6l7 -1h4q10 -2 21 -11.5t31 -34.5q13 -17 27 -36.5t28 -38.5q13 -17 23 -31.5t17 -22.5z" />
    <glyph glyph-name="Otilde" unicode="&#xd5;" 
d="M1934 123q-68 -20 -142 -35.5t-152 -26t-157 -16t-157 -5.5q-127 0 -209 27q-3 -4 -6.5 -8t-8.5 -8q-37 -35 -88.5 -55.5t-103.5 -20.5q-60 0 -100.5 28t-53.5 77q-12 45 -2.5 89.5t38.5 86.5q7 10 18.5 21t25 21t27 18t24.5 13q-106 -11 -211 -30.5t-208.5 -45
t-205 -54.5t-199.5 -58l-63 -18l-13 41q17 5 32.5 9.5t31.5 9.5q115 34 227.5 66t227 58t235 43.5t251.5 22.5h18q68 0 109 -33q26 -20 39.5 -50t15.5 -66q2 -31 -6 -61.5t-24 -58.5q75 -20 182 -20q76 0 154 5.5t154 15.5t149 25t139 35zM1019 231q0 -74 83 -111
q31 47 29 102q-1 20 -6.5 36t-14.5 29q-6 6 -22.5 11.5t-33.5 -2.5q-12 -6 -23.5 -21t-11.5 -44zM910 20q44 0 87 17t75 47q1 0 1 1q-98 49 -98 146q0 17 5.5 33.5t16 30t25.5 21.5t33 8q-13 3 -26.5 4.5t-18.5 1.5q-51 0 -95 -23q-15 -8 -39 -26.5t-45 -46t-32.5 -64
t-0.5 -78.5q6 -24 20.5 -38.5t31.5 -22t33 -9.5t27 -2zM1293 832l-9 -11q-17 -19 -41 -34.5t-52 -24.5q-36 -11 -68 -11q-26 0 -53 8q-18 5 -34 13.5t-32 16.5q-21 12 -41.5 21.5t-43.5 11.5q-3 0 -6 0.5t-6 0.5q-29 0 -52 -12.5t-43 -27.5l-11 -9l-8 11l-10 12l-8 11l11 8
q10 8 22.5 17t29.5 17q34 15 69 15h16q29 -3 53.5 -14t47.5 -24q14 -8 29 -15t30 -12q19 -6 40 -6q36 0 72 15.5t56 39.5l9 11l11 -9l11 -10z" />
    <glyph glyph-name="Odieresis" unicode="&#xd6;" 
d="M1934 123q-68 -20 -142 -35.5t-152 -26t-157 -16t-157 -5.5q-127 0 -209 27q-3 -4 -6.5 -8t-8.5 -8q-37 -35 -88.5 -55.5t-103.5 -20.5q-60 0 -100.5 28t-53.5 77q-12 45 -2.5 89.5t38.5 86.5q7 10 18.5 21t25 21t27 18t24.5 13q-106 -11 -211 -30.5t-208.5 -45
t-205 -54.5t-199.5 -58l-63 -18l-13 41q17 5 32.5 9.5t31.5 9.5q115 34 227.5 66t227 58t235 43.5t251.5 22.5h18q68 0 109 -33q26 -20 39.5 -50t15.5 -66q2 -31 -6 -61.5t-24 -58.5q75 -20 182 -20q76 0 154 5.5t154 15.5t149 25t139 35zM1019 231q0 -74 83 -111
q31 47 29 102q-1 20 -6.5 36t-14.5 29q-6 6 -22.5 11.5t-33.5 -2.5q-12 -6 -23.5 -21t-11.5 -44zM910 20q44 0 87 17t75 47q1 0 1 1q-98 49 -98 146q0 17 5.5 33.5t16 30t25.5 21.5t33 8q-13 3 -26.5 4.5t-18.5 1.5q-51 0 -95 -23q-15 -8 -39 -26.5t-45 -46t-32.5 -64
t-0.5 -78.5q6 -24 20.5 -38.5t31.5 -22t33 -9.5t27 -2zM880 871q14 0 24 -10q11 -11 10 -27q0 -15 -13 -28q-12 -12 -29 -12q-10 0 -18 4q-14 8 -16 25q-3 22 13 37l1 1l1 1q12 9 27 9zM1176 857q13 -18 3 -41q-10 -21 -30 -24h-5q-15 0 -24 12q-14 14 -11 36l1 1v1
q5 14 14 22q10 9 23 9q18 0 29 -16z" />
    <glyph glyph-name="Ugrave" unicode="&#xd9;" 
d="M1932 122l-166 -48t-162.5 -43.5t-153 -34t-136.5 -20.5q-6 -1 -11.5 -1h-10.5q-74 0 -124 45q-28 25 -41 62q-5 -8 -11.5 -15.5t-14.5 -14.5q-38 -36 -89.5 -56t-102.5 -20q-32 0 -57 7q-38 11 -63 36t-34 62q-9 35 -4 69t19.5 65t34.5 58t40 48q-108 -12 -211 -32.5
t-204.5 -45.5t-201 -53.5t-199.5 -58.5l-29 -9l-13 42l30 9q106 31 209.5 60.5t209.5 55t215 45.5t225 31q5 1 10.5 1.5t10.5 1.5l10 2l15 -41q-18 -9 -43.5 -32t-47 -55t-33.5 -71t-1 -80q12 -49 67 -66q24 -7 52 -6.5t56 8t54 22t45 34.5q21 22 35 51t23 55.5t13 45.5
t5 21l42 -11q-1 -3 -3.5 -12t-5.5 -19.5t-6 -19t-3 -9.5q-3 -13 -5 -27t-2 -31q0 -45 33 -75q20 -19 50 -27.5t62 -5.5q62 6 134.5 20.5t151 34t160.5 43t164 47.5zM1162 727l-9 -11l-9 -11l-9 -11l-11 8q-20 16 -40 35.5t-39 40t-35 41t-28 38.5l-8 11l12 8l13 8l11 8
l8 -12q22 -34 59 -74t74 -70z" />
    <glyph glyph-name="Uacute" unicode="&#xda;" 
d="M1932 122l-166 -48t-162.5 -43.5t-153 -34t-136.5 -20.5q-6 -1 -11.5 -1h-10.5q-74 0 -124 45q-28 25 -41 62q-5 -8 -11.5 -15.5t-14.5 -14.5q-38 -36 -89.5 -56t-102.5 -20q-32 0 -57 7q-38 11 -63 36t-34 62q-9 35 -4 69t19.5 65t34.5 58t40 48q-108 -12 -211 -32.5
t-204.5 -45.5t-201 -53.5t-199.5 -58.5l-29 -9l-13 42l30 9q106 31 209.5 60.5t209.5 55t215 45.5t225 31q5 1 10.5 1.5t10.5 1.5l10 2l15 -41q-18 -9 -43.5 -32t-47 -55t-33.5 -71t-1 -80q12 -49 67 -66q24 -7 52 -6.5t56 8t54 22t45 34.5q21 22 35 51t23 55.5t13 45.5
t5 21l42 -11q-1 -3 -3.5 -12t-5.5 -19.5t-6 -19t-3 -9.5q-3 -13 -5 -27t-2 -31q0 -45 33 -75q20 -19 50 -27.5t62 -5.5q62 6 134.5 20.5t151 34t160.5 43t164 47.5zM1343 868l-7 -11q-12 -18 -28.5 -38.5t-35 -41t-39 -40t-39.5 -35.5l-11 -8l-9 11l-9 11l-9 11l11 9
q37 30 73.5 70t58.5 74l8 12l12 -8l12 -8z" />
    <glyph glyph-name="Ucircumflex" unicode="&#xdb;" 
d="M1932 122l-166 -48t-162.5 -43.5t-153 -34t-136.5 -20.5q-6 -1 -11.5 -1h-10.5q-74 0 -124 45q-28 25 -41 62q-5 -8 -11.5 -15.5t-14.5 -14.5q-38 -36 -89.5 -56t-102.5 -20q-32 0 -57 7q-38 11 -63 36t-34 62q-9 35 -4 69t19.5 65t34.5 58t40 48q-108 -12 -211 -32.5
t-204.5 -45.5t-201 -53.5t-199.5 -58.5l-29 -9l-13 42l30 9q106 31 209.5 60.5t209.5 55t215 45.5t225 31q5 1 10.5 1.5t10.5 1.5l10 2l15 -41q-18 -9 -43.5 -32t-47 -55t-33.5 -71t-1 -80q12 -49 67 -66q24 -7 52 -6.5t56 8t54 22t45 34.5q21 22 35 51t23 55.5t13 45.5
t5 21l42 -11q-1 -3 -3.5 -12t-5.5 -19.5t-6 -19t-3 -9.5q-3 -13 -5 -27t-2 -31q0 -45 33 -75q20 -19 50 -27.5t62 -5.5q62 6 134.5 20.5t151 34t160.5 43t164 47.5zM1248 693l-11 -9l-12 -9l-10 -9l-9 11q-8 8 -18.5 23t-23.5 33t-26.5 37t-26.5 34q-13 18 -19 24
q-14 -17 -31 -36.5t-33 -39.5q-32 -38 -41 -52.5t-10 -16.5l-5 -14l-13 6l-14 5l-13 5l5 13q1 2 3 7t9.5 15.5t21.5 28.5t38 47q12 14 23 27t19.5 23.5t14.5 17t7 7.5l3 3l5 6l7 -1h4q10 -2 21 -11.5t31 -34.5q13 -17 27 -36.5t28 -38.5q13 -17 23 -31.5t17 -22.5z" />
    <glyph glyph-name="Udieresis" unicode="&#xdc;" 
d="M1932 122l-166 -48t-162.5 -43.5t-153 -34t-136.5 -20.5q-6 -1 -11.5 -1h-10.5q-74 0 -124 45q-28 25 -41 62q-5 -8 -11.5 -15.5t-14.5 -14.5q-38 -36 -89.5 -56t-102.5 -20q-32 0 -57 7q-38 11 -63 36t-34 62q-9 35 -4 69t19.5 65t34.5 58t40 48q-108 -12 -211 -32.5
t-204.5 -45.5t-201 -53.5t-199.5 -58.5l-29 -9l-13 42l30 9q106 31 209.5 60.5t209.5 55t215 45.5t225 31q5 1 10.5 1.5t10.5 1.5l10 2l15 -41q-18 -9 -43.5 -32t-47 -55t-33.5 -71t-1 -80q12 -49 67 -66q24 -7 52 -6.5t56 8t54 22t45 34.5q21 22 35 51t23 55.5t13 45.5
t5 21l42 -11q-1 -3 -3.5 -12t-5.5 -19.5t-6 -19t-3 -9.5q-3 -13 -5 -27t-2 -31q0 -45 33 -75q20 -19 50 -27.5t62 -5.5q62 6 134.5 20.5t151 34t160.5 43t164 47.5zM962 871q14 0 24 -10q11 -11 10 -27q0 -15 -13 -28q-12 -12 -29 -12q-10 0 -18 4q-14 8 -16 25q-3 22 13 37
l1 1l1 1q12 9 27 9zM1258 857q13 -18 3 -41q-10 -21 -30 -24h-5q-15 0 -24 12q-14 14 -11 36l1 1v1q5 14 14 22q10 9 23 9q18 0 29 -16z" />
    <glyph glyph-name="Yacute" unicode="&#xdd;" 
d="M889 -817q-23 0 -37.5 9t-22.5 18q-21 24 -27 64t-0.5 86t21.5 93.5t39 88.5q45 80 113.5 157t151.5 143q2 21 4.5 41t4.5 39q4 29 6.5 55.5t4.5 51.5q-57 -46 -123.5 -55.5t-132.5 22.5q-44 21 -63 58.5t-11 84.5l3 18q4 22 7.5 43.5t4 40.5t-2 34.5t-11.5 26.5
q-21 26 -83 27h-7q-44 0 -99 -11t-117.5 -28.5t-129 -40t-133.5 -45.5q-63 -21 -126 -42.5t-123 -39.5l-12 42q60 18 122 39t125 42q73 25 143 48.5t134 41.5t120.5 28t103.5 9q82 -1 116 -43q13 -17 18.5 -37t5.5 -43t-4 -48.5t-9 -51.5q-1 -5 -1.5 -8.5t-1.5 -8.5
q-12 -66 50 -96q63 -31 127.5 -15t115.5 73q2 23 2.5 43.5t2.5 39.5q3 47 5.5 81t8.5 57q1 5 4.5 15t10.5 19.5t18.5 17.5t29.5 9q28 2 42 -20q12 -19 10 -50t-11 -64.5t-22 -64t-23 -47.5q-17 -30 -36 -54q-3 -35 -6.5 -74.5t-9.5 -84.5q-2 -9 -3 -21t-3 -22
q76 56 157.5 101t161.5 70q53 16 115.5 33.5t126.5 34.5q51 14 98 26.5t89 24.5l12 -42q-42 -12 -89 -24.5t-99 -26.5q-63 -17 -125.5 -34t-114.5 -34q-86 -26 -172 -73.5t-165 -109.5q0 -5 -0.5 -8.5t-1.5 -7.5q-6 -61 -13.5 -125t-18.5 -126.5t-27 -120.5t-40 -105.5
t-56.5 -82.5t-76.5 -52q-13 -5 -24 -7t-21 -2zM1123 -212q-69 -60 -127 -129.5t-96 -138.5q-21 -37 -35.5 -80.5t-19.5 -85.5q-5 -39 -0.5 -70t17.5 -46q3 -4 15.5 -10t41.5 5q54 21 89.5 78.5t58 135t35 167t21.5 174.5zM1215 304q-3 -10 -5.5 -32t-5 -46.5t-4.5 -48.5
t-3 -39q5 10 10.5 26t11 33.5t10 34t7.5 28.5q9 37 13 58.5t-6 24.5q-8 3 -15.5 -8t-12.5 -31zM1300 868l-7 -11q-12 -18 -28.5 -38.5t-35 -41t-39 -40t-39.5 -35.5l-11 -8l-9 11l-9 11l-9 11l11 9q37 30 73.5 70t58.5 74l8 12l12 -8l12 -8z" />
    <glyph glyph-name="Ydieresis" unicode="&#x178;" 
d="M889 -817q-23 0 -37.5 9t-22.5 18q-21 24 -27 64t-0.5 86t21.5 93.5t39 88.5q45 80 113.5 157t151.5 143q2 21 4.5 41t4.5 39q4 29 6.5 55.5t4.5 51.5q-57 -46 -123.5 -55.5t-132.5 22.5q-44 21 -63 58.5t-11 84.5l3 18q4 22 7.5 43.5t4 40.5t-2 34.5t-11.5 26.5
q-21 26 -83 27h-7q-44 0 -99 -11t-117.5 -28.5t-129 -40t-133.5 -45.5q-63 -21 -126 -42.5t-123 -39.5l-12 42q60 18 122 39t125 42q73 25 143 48.5t134 41.5t120.5 28t103.5 9q82 -1 116 -43q13 -17 18.5 -37t5.5 -43t-4 -48.5t-9 -51.5q-1 -5 -1.5 -8.5t-1.5 -8.5
q-12 -66 50 -96q63 -31 127.5 -15t115.5 73q2 23 2.5 43.5t2.5 39.5q3 47 5.5 81t8.5 57q1 5 4.5 15t10.5 19.5t18.5 17.5t29.5 9q28 2 42 -20q12 -19 10 -50t-11 -64.5t-22 -64t-23 -47.5q-17 -30 -36 -54q-3 -35 -6.5 -74.5t-9.5 -84.5q-2 -9 -3 -21t-3 -22
q76 56 157.5 101t161.5 70q53 16 115.5 33.5t126.5 34.5q51 14 98 26.5t89 24.5l12 -42q-42 -12 -89 -24.5t-99 -26.5q-63 -17 -125.5 -34t-114.5 -34q-86 -26 -172 -73.5t-165 -109.5q0 -5 -0.5 -8.5t-1.5 -7.5q-6 -61 -13.5 -125t-18.5 -126.5t-27 -120.5t-40 -105.5
t-56.5 -82.5t-76.5 -52q-13 -5 -24 -7t-21 -2zM1123 -212q-69 -60 -127 -129.5t-96 -138.5q-21 -37 -35.5 -80.5t-19.5 -85.5q-5 -39 -0.5 -70t17.5 -46q3 -4 15.5 -10t41.5 5q54 21 89.5 78.5t58 135t35 167t21.5 174.5zM1215 304q-3 -10 -5.5 -32t-5 -46.5t-4.5 -48.5
t-3 -39q5 10 10.5 26t11 33.5t10 34t7.5 28.5q9 37 13 58.5t-6 24.5q-8 3 -15.5 -8t-12.5 -31zM884 871q14 0 24 -10q11 -11 10 -27q0 -15 -13 -28q-12 -12 -29 -12q-10 0 -18 4q-14 8 -16 25q-3 22 13 37l1 1l1 1q12 9 27 9zM1180 857q13 -18 3 -41q-10 -21 -30 -24h-5
q-15 0 -24 12q-14 14 -11 36l1 1v1q5 14 14 22q10 9 23 9q18 0 29 -16z" />
    <glyph glyph-name="at" unicode="@" horiz-adv-x="1101" 
d="M779 210q-8 -28 -13.5 -52t-7.5 -44q-3 -41 17 -67q19 -27 50 -27q7 0 11 1q21 3 41.5 14t39 27.5t32.5 35.5t21 37q22 57 23.5 124t-20.5 132.5t-68 122t-118 92.5q-98 49 -201 49q-61 0 -120 -17.5t-113 -50.5q-58 -36 -103.5 -85t-77 -108.5t-48 -127t-16.5 -139.5
q0 -91 19.5 -160t50.5 -120t69.5 -85.5t76 -56.5t70.5 -33.5t53 -16.5q35 -8 78 -8q79 0 158 23t142 65q57 38 90.5 86t41.5 104l3 14l42 -7l-2 -13q-11 -65 -49 -120.5t-102 -98.5q-45 -30 -98.5 -52t-112.5 -33q-29 -6 -57 -8.5t-55 -2.5q-50 0 -89 9q-71 17 -133 53
q-69 39 -120 99q-58 67 -86 153q-33 93 -33 209q0 83 19 156q20 75 55 138t83 114.5t108 87.5q53 33 111 51.5t118 22.5h28q115 0 220 -53q72 -36 124.5 -95.5t80.5 -136.5q25 -71 25 -148q0 -76 -27 -145q-10 -23 -27 -46.5t-40 -43.5q-49 -43 -101 -51q-5 -1 -8.5 -1h-8.5
q-52 0 -85 44q-17 23 -23 51q-7 -9 -18 -19q-37 -35 -88.5 -55.5t-102.5 -20.5q-56 0 -95 24q-46 29 -59 81q-23 91 36 174q24 34 53 57t50 33q26 14 55.5 20.5t59.5 6.5q67 0 108 -33q21 -17 37 -44q2 -5 4.5 -10t4.5 -10l4 -1l14 -4l14 -3l-4 -14l-6 -22t-5 -22zM608 330
q-50 0 -96 -22q-17 -9 -41.5 -28.5t-45.5 -48.5q-17 -23 -29 -58.5t-1 -79.5q19 -73 113 -73q44 0 87 17.5t75 46.5q29 28 44.5 64.5t13.5 74.5q-2 54 -38 83q-30 24 -82 24z" />
    <glyph glyph-name="germandbls" unicode="&#xdf;" horiz-adv-x="844" 
d="M699 367q65 -50 62 -167q-3 -87 -70 -151q-29 -28 -67.5 -48t-81.5 -31q-20 -5 -41 -7.5t-41 -2.5q-39 0 -73 9q-80 21 -117 86l-7 13l13 6l13 8l12 7l7 -13q20 -35 59.5 -54t93.5 -19q36 0 71 9q34 8 66.5 24.5t59 40.5t43 55t17.5 69q1 96 -45 132q-32 24 -86 24h-8
q-52 -2 -121 -24l-11 -3l-20 -6l2 21l1 11q6 51 44 95q17 20 37.5 37t42.5 34q29 22 57.5 46t48.5 55q22 32 25 70.5t-13 68.5q-24 45 -81 45h-2q-63 -1 -127 -40t-123 -112q-53 -67 -92 -148.5t-60.5 -167t-25.5 -171t13 -161.5l3 -14l-14 -3l-14 -3l-14 -3l-3 13
q-18 82 -14 173.5t30 188.5q24 91 64.5 173.5t93.5 148.5q63 79 131 121q75 48 152 48h1q40 0 71 -17q31 -18 49 -51q21 -39 18 -91q-4 -51 -32 -92q-23 -35 -53.5 -61t-61.5 -50q-32 -25 -59 -49t-40 -54q58 15 105 15q68 0 112 -33z" />
    <glyph glyph-name="ellipsis" unicode="&#x2026;" horiz-adv-x="1246" 
d="M263 59q11 -13 11 -29q-2 -17 -15 -30t-31 -13q-12 0 -19 5q-15 8 -17 25q-3 25 14 41l1 1q16 11 30 11q15 0 26 -11zM625 59q11 -13 11 -29q-2 -17 -15 -30t-31 -13q-12 0 -19 5q-15 8 -17 25q-3 25 14 41l1 1q16 11 30 11q15 0 26 -11zM946 59q11 -13 11 -29
q-2 -17 -15 -30t-31 -13q-12 0 -19 5q-15 8 -17 25q-3 25 14 41l1 1q16 11 30 11q15 0 26 -11z" />
    <glyph glyph-name="numbersign" unicode="#" horiz-adv-x="825" 
d="M527 277q60 0 97 0.5t51 0.5l1 -43h-19h-31.5t-37.5 -0.5t-36.5 -0.5h-28h-12.5q-33 -101 -52.5 -161.5t-26.5 -85.5l-42 12q8 24 26.5 82t49.5 153q-51 1 -104 1h-99q-9 -25 -24.5 -65t-30 -78.5t-25.5 -66.5t-11 -29l-41 15q-1 0 2 3q0 1 10 27t23.5 61.5t27.5 72.5
t23 60h-83h-10v43h10h100q40 106 72 192h-115v43h130q75 202 87 257l42 -10q-6 -26 -27 -88t-56 -159q48 -1 96.5 -1h93.5q15 45 28.5 86.5t25 76.5t20 61t12.5 39l41 -12q-4 -13 -12 -38t-19 -58t-24 -73t-27 -82q57 0 91.5 0.5t48.5 0.5l1 -43q-14 0 -51 -0.5t-98 -0.5h-6
q-14 -44 -30.5 -93.5t-32.5 -98.5h2zM480 277q16 49 32.5 98.5t30.5 93.5q-48 0 -97 0.5t-95 0.5q-15 -43 -33 -90.5t-38 -101.5q46 0 98 -0.5t102 -0.5z" />
    <glyph glyph-name="braceleft" unicode="{" horiz-adv-x="833" 
d="M562 -315l12 -8l-8 -11q-14 -20 -36 -31t-47 -11q-8 0 -15.5 1t-15.5 4q-33 9 -51 40q-18 27 -18 68q0 24 2 57.5t5 74.5q5 66 10 143.5t1 146.5q-2 47 -8 78.5t-13.5 52t-16.5 30.5t-17 15l-17 9l-31 16l34 10l18 5q28 7 45 39q16 29 22 85q5 54 2 118t-8 129
q-5 72 -8 135t7 108q5 23 20.5 41t36.5 27q17 7 38 7q30 0 58 -17l12 -7l-7 -12l-8 -13l-7 -12l-12 7q-17 11 -36 11q-12 0 -21 -4q-26 -11 -32 -37q-8 -40 -5.5 -101t7.5 -130q5 -66 8.5 -132t-2.5 -123q-4 -31 -10 -55t-16 -43q-15 -31 -39 -47q18 -21 31 -61
q15 -51 18 -127q4 -71 -1 -149.5t-10 -145.5q-3 -40 -5 -73t-2 -56q0 -54 39 -68q5 -1 9 -1.5t9 -0.5q30 0 48 24l8 11l11 -8z" />
    <glyph glyph-name="braceright" unicode="}" horiz-adv-x="833" 
d="M531 348l-34 -10l-18 -5q-57 -15 -67 -133q-5 -56 -2 -121.5t8 -131.5q5 -74 8 -138.5t-7 -109.5q-5 -23 -20.5 -40.5t-36.5 -26.5q-16 -8 -38 -8q-30 0 -58 17l-12 8l7 12l8 12l7 12l12 -7q19 -11 36 -11q12 0 21 4q26 11 32 37q8 40 5.5 102.5t-7.5 133.5
q-5 69 -8.5 137t2.5 127q4 32 10 57.5t16 45.5q15 30 39 48q-19 21 -30 59q-8 24 -12.5 53.5t-6.5 67.5q-4 69 1 144t10 141q3 39 5 71.5t2 55.5q0 56 -39 68q-5 2 -9 2h-9q-30 0 -48 -24l-8 -11l-11 8l-12 9l-12 8l8 11q14 20 36 31t47 11v-7v7q18 0 31 -4q33 -11 51 -40
t18 -69q0 -24 -2 -57.5t-6 -73.5q-2 -32 -4.5 -67t-4.5 -71t-2.5 -72t1.5 -69q3 -68 17 -112q15 -45 38 -56l17 -9z" />
    <glyph glyph-name="bar" unicode="|" horiz-adv-x="833" 
d="M455 -192l-15 -1l-15 -1l-13 -1l-1 13q-2 17 -3.5 54t-2 88t-0.5 113t0.5 130t1 140t1.5 142l1 47q1 106 2 210.5t1 190.5q0 46 -0.5 81t-1.5 61q0 19 -0.5 31.5t-1.5 19.5t-1.5 9.5t-0.5 3.5l-4 13l13 5l14 5l12 5l5 -12q2 -4 3.5 -13t2.5 -33t1.5 -67.5t0.5 -117.5
q0 -98 -0.5 -212.5t-2.5 -226.5q-1 -70 -1.5 -141.5t-1 -139.5t-0.5 -129.5t0.5 -112t1.5 -86.5t3 -53z" />
    <glyph glyph-name="backslash" unicode="\" horiz-adv-x="833" 
d="M572 -190l-14 -2l-15 -2l-14 -2l-2 14q-2 13 -14 72.5t-31 148t-43 198.5t-49.5 224.5t-50 225.5t-45 203t-35 155.5t-19.5 83.5l-3 13l13 4l15 3l14 4l3 -14q5 -20 19.5 -84t35 -156t45.5 -203.5t50 -226.5t49 -225t43.5 -199t31.5 -148.5t14 -73.5z" />
    <glyph glyph-name="fraction" unicode="&#x2044;" horiz-adv-x="971" 
d="M940 759l-12 -7q-2 -1 -8 -6t-19 -16.5t-34.5 -31t-54.5 -49.5q-48 -44 -107 -98t-119 -110q-88 -81 -173.5 -160t-157.5 -144q-54 -50 -90.5 -82t-57.5 -49q-19 -15 -25 -18.5t-11 -4.5l-29 28l18 13q1 1 10 8t41 34q22 19 51.5 45t67.5 61q72 65 156 143t170 157l1 1
q77 71 138.5 127.5t106.5 98.5q33 29 52.5 46.5t31 27t16 13t6.5 4.5l13 7l6 -13l7 -13z" />
    <glyph glyph-name="slash" unicode="/" horiz-adv-x="833" 
d="M613 1145l-1 -14q-2 -14 -14.5 -73.5t-31.5 -148.5t-43.5 -199t-49.5 -225t-50 -226.5t-45.5 -203.5t-35 -156t-19.5 -84l-3 -13l-13 3l-15 4l-14 3l4 14q5 19 19.5 83t34.5 155.5t45 203t50 226t49 224t43.5 198.5t31.5 148t14 73l2 14l14 -2l15 -2z" />
    <glyph glyph-name="caron" unicode="&#x2c7;" horiz-adv-x="695" 
d="M523 865l-5 -13q-1 -2 -3.5 -6.5t-10 -15t-21 -29t-37.5 -46.5q-12 -15 -23.5 -28t-20.5 -23.5t-15 -17t-6 -7.5l-16 -19l-5 -6l-15 20q-7 9 -15.5 20t-18.5 24q-14 17 -28 36.5t-27 37.5t-23.5 32l-16.5 22l-9 11l10 9l12 10l11 9l9 -11q7 -8 17.5 -23t24.5 -34
q12 -17 26 -36t26 -35q6 -8 11 -13.5t8 -9.5q14 16 31 36t33 39t25.5 32t15.5 21t8 11.5t3 5.5l5 13l13 -5l14 -6z" />
    <glyph glyph-name="zcaron" unicode="&#x17e;" 
d="M919 -813q-48 33 -43 183q1 28 4 58.5t7.5 59.5t10.5 56t13 49q32 103 73 167.5t92 106.5q-14 44 -36.5 82.5t-58.5 59.5q-38 21 -87.5 14.5t-102.5 -44.5l-26 35q1 0 6.5 5.5l14 14l18 18l18.5 18.5q18 19 40 41.5t46.5 47.5t50.5 50t51 48q8 8 16 15l16 14
q-7 3 -13 6.5t-12 6.5q-22 12 -40 20q-14 5 -32.5 8.5t-42.5 4.5q-72 3 -161.5 -11.5t-187.5 -38.5t-201 -54.5t-202 -60.5q-40 -12 -77 -23t-73 -22l-12 42q35 11 72 22t77 23q100 31 204 62t204.5 55t192 38t165.5 11q55 -1 90 -15q11 -5 22.5 -11t22.5 -11q10 -6 20 -11
l20 -10q44 36 65.5 46t32.5 10q14 -1 23.5 -7.5t14 -16.5t4.5 -21t-4 -20q-5 -12 -16 -21t-24.5 -14.5t-27.5 -8t-24 -2.5q-17 0 -35 6q-11 -10 -23 -20.5t-26 -24.5q-21 -20 -44 -42t-46 -45l-44.5 -44.5l-39.5 -39.5q37 16 74.5 13t63.5 -18q73 -42 111 -153
q34 23 70.5 40t75.5 32q102 41 215.5 73.5t228.5 63.5q55 15 110.5 30t109.5 31l12 -42q-54 -16 -110 -31.5t-110 -29.5q-119 -32 -229 -64t-210 -71q-42 -17 -79.5 -34.5t-70.5 -41.5q7 -29 12 -65q5 -38 7 -78.5t0.5 -82t-6 -82t-12.5 -77.5q-8 -36 -17 -73.5t-23.5 -73.5
t-36 -68t-53.5 -56q-17 -13 -39.5 -17t-38.5 10zM1089 -176q-41 -38 -75 -97t-61 -147q-6 -21 -11.5 -46.5t-10 -53t-7.5 -56.5t-4 -56q-3 -70 5.5 -104t18.5 -42q5 -3 13 -3t14 5q27 20 45.5 49.5t31.5 63t21 69t15 68.5q6 27 10.5 62t6.5 75t0.5 82.5t-7.5 85.5
q-1 10 -2 22t-3 23zM1183 334q-4 3 -10.5 1t-15 -6.5t-17 -10.5t-15.5 -11q4 0 15.5 1t22 4t17.5 8.5t3 13.5zM1142 865l-5 -13q-1 -2 -3.5 -6.5t-10 -15t-21 -29t-37.5 -46.5q-12 -15 -23.5 -28t-20.5 -23.5t-15 -17t-6 -7.5l-16 -19l-5 -6l-15 20q-7 9 -15.5 20t-18.5 24
q-14 17 -28 36.5t-27 37.5t-23.5 32l-16.5 22l-9 11l10 9l12 10l11 9l9 -11q7 -8 17.5 -23t24.5 -34q12 -17 26 -36t26 -35q6 -8 11 -13.5t8 -9.5q14 16 31 36t33 39t25.5 32t15.5 21t8 11.5t3 5.5l5 13l13 -5l14 -6z" />
    <glyph glyph-name="Zcaron" unicode="&#x17d;" 
d="M919 -813q-48 33 -43 183q1 28 4 58.5t7.5 59.5t10.5 56t13 49q32 103 73 167.5t92 106.5q-14 44 -36.5 82.5t-58.5 59.5q-38 21 -87.5 14.5t-102.5 -44.5l-26 35q1 0 6.5 5.5l14 14l18 18l18.5 18.5q18 19 40 41.5t46.5 47.5t50.5 50t51 48q8 8 16 15l16 14
q-7 3 -13 6.5t-12 6.5q-22 12 -40 20q-14 5 -32.5 8.5t-42.5 4.5q-72 3 -161.5 -11.5t-187.5 -38.5t-201 -54.5t-202 -60.5q-40 -12 -77 -23t-73 -22l-12 42q35 11 72 22t77 23q100 31 204 62t204.5 55t192 38t165.5 11q55 -1 90 -15q11 -5 22.5 -11t22.5 -11q10 -6 20 -11
l20 -10q44 36 65.5 46t32.5 10q14 -1 23.5 -7.5t14 -16.5t4.5 -21t-4 -20q-5 -12 -16 -21t-24.5 -14.5t-27.5 -8t-24 -2.5q-17 0 -35 6q-11 -10 -23 -20.5t-26 -24.5q-21 -20 -44 -42t-46 -45l-44.5 -44.5l-39.5 -39.5q37 16 74.5 13t63.5 -18q73 -42 111 -153
q34 23 70.5 40t75.5 32q102 41 215.5 73.5t228.5 63.5q55 15 110.5 30t109.5 31l12 -42q-54 -16 -110 -31.5t-110 -29.5q-119 -32 -229 -64t-210 -71q-42 -17 -79.5 -34.5t-70.5 -41.5q7 -29 12 -65q5 -38 7 -78.5t0.5 -82t-6 -82t-12.5 -77.5q-8 -36 -17 -73.5t-23.5 -73.5
t-36 -68t-53.5 -56q-17 -13 -39.5 -17t-38.5 10zM1089 -176q-41 -38 -75 -97t-61 -147q-6 -21 -11.5 -46.5t-10 -53t-7.5 -56.5t-4 -56q-3 -70 5.5 -104t18.5 -42q5 -3 13 -3t14 5q27 20 45.5 49.5t31.5 63t21 69t15 68.5q6 27 10.5 62t6.5 75t0.5 82.5t-7.5 85.5
q-1 10 -2 22t-3 23zM1183 334q-4 3 -10.5 1t-15 -6.5t-17 -10.5t-15.5 -11q4 0 15.5 1t22 4t17.5 8.5t3 13.5zM1142 865l-5 -13q-1 -2 -3.5 -6.5t-10 -15t-21 -29t-37.5 -46.5q-12 -15 -23.5 -28t-20.5 -23.5t-15 -17t-6 -7.5l-16 -19l-5 -6l-15 20q-7 9 -15.5 20t-18.5 24
q-14 17 -28 36.5t-27 37.5t-23.5 32l-16.5 22l-9 11l10 9l12 10l11 9l9 -11q7 -8 17.5 -23t24.5 -34q12 -17 26 -36t26 -35q6 -8 11 -13.5t8 -9.5q14 16 31 36t33 39t25.5 32t15.5 21t8 11.5t3 5.5l5 13l13 -5l14 -6z" />
    <glyph glyph-name="Scaron" unicode="&#x160;" 
d="M888 -29q-38 0 -66 15t-42 42q-7 13 -7.5 32t10.5 33q4 5 13.5 12t24.5 12t36.5 6.5t48.5 -3.5q42 -8 77.5 -23t73.5 -26q4 3 7 6t8 7q19 18 33.5 43t22 52t5.5 53t-16 47q-18 27 -44 38.5t-54.5 13.5t-58.5 -1t-55 -4q-63 -4 -123 -13t-117 -19q-89 -15 -173.5 -35.5
t-167 -43.5t-163 -46.5t-161.5 -45.5l-13 42q85 23 168.5 47t166.5 47t167 43t169 35q63 11 123 20t120 13q35 2 71 4t69 -3t62 -20t51 -48q18 -27 22 -62t-7 -73q-8 -32 -25.5 -62.5t-40.5 -52.5q44 -15 93.5 -25t115.5 -8q63 2 139 17t156.5 36t160.5 46t152 46l13 -42
q-75 -23 -155.5 -48t-161 -46.5t-158 -36t-145.5 -16.5q-80 -2 -139 12t-110 33q-36 -26 -76 -37t-97 -13h-3zM816 50q1 -12 10 -19t20.5 -11t23.5 -4.5t20 -0.5q41 1 70 6.5t54 19.5q-29 11 -57.5 21t-58.5 15q-9 2 -23.5 4t-28 0.5t-22.5 -8.5t-8 -23zM1142 865l-5 -13
q-1 -2 -3.5 -6.5t-10 -15t-21 -29t-37.5 -46.5q-12 -15 -23.5 -28t-20.5 -23.5t-15 -17t-6 -7.5l-16 -19l-5 -6l-15 20q-7 9 -15.5 20t-18.5 24q-14 17 -28 36.5t-27 37.5t-23.5 32l-16.5 22l-9 11l10 9l12 10l11 9l9 -11q7 -8 17.5 -23t24.5 -34q12 -17 26 -36t26 -35
q6 -8 11 -13.5t8 -9.5q14 16 31 36t33 39t25.5 32t15.5 21t8 11.5t3 5.5l5 13l13 -5l14 -6z" />
    <glyph glyph-name="cent" unicode="&#xa2;" horiz-adv-x="1163" 
d="M755 438q32 -29 50.5 -69.5t18.5 -84.5v-14h-14h-15h-14v14q0 35 -14.5 67t-40.5 54q-31 27 -82 31q-11 -72 -25 -150.5t-29 -163.5q-5 -23 -9 -46.5t-9 -47.5q126 17 193 112l8 11l11 -8l13 -8l11 -8l-8 -12q-56 -80 -150 -113q-41 -14 -86 -18q-22 -117 -42 -220
t-36 -181.5t-26 -126t-11 -52.5l-3 -14l-14 4l-14 3l-14 3l3 13q1 5 10.5 51.5t25 123t35.5 178t42 215.5h-5h-7q-65 2 -109 32q-51 34 -66 99q-13 56 -2.5 111t44.5 107q28 43 61.5 72.5t57.5 42.5q53 29 114 34q35 214 51 358t14 213v14h13l15 1h14l1 -14q5 -110 -36 -386
q-6 -43 -13.5 -89t-15.5 -97q63 -6 104 -41zM601 435q-23 -2 -44.5 -9t-41.5 -18q-21 -12 -50 -37.5t-54 -63.5q-10 -15 -19.5 -35t-15.5 -43.5t-7 -50.5t6 -56q11 -47 45 -72t88 -26h7q8 0 13 1q5 26 9.5 52.5t9.5 52.5q15 82 28.5 158.5t25.5 146.5z" />
    <glyph glyph-name="sterling" unicode="&#xa3;" horiz-adv-x="950" 
d="M755 233q46 -40 46 -95q0 -33 -17 -64q-7 -12 -15 -22.5t-16 -17.5q-42 -35 -100 -47q-27 -6 -58 -6q-23 0 -47 3q-51 7 -99 22.5t-88 30.5q-23 8 -41 15t-31 9q-4 0 -6 1q-20 -21 -37.5 -32t-34.5 -14q-5 -1 -11 -1.5t-11 -0.5q-19 0 -28 12q-10 11 -7 23t5 17
q14 33 70 39q6 1 12 1h13h11q11 13 20 25.5t15 20.5q53 74 69 178q-22 0 -43 1.5t-41 3.5l-14 1l1 14l2 15l1 14l14 -2q21 -2 42 -3t43 -2q5 52 3 106t-8.5 107t-15 104t-17.5 97q-8 43 -14.5 79.5t-9.5 68.5q-7 71 6 105q13 33 30 58q17 24 38 38q36 26 97 26h19.5t22.5 -2
q30 -3 63 -25q36 -25 54 -60q14 -28 16 -58q3 -39 -18 -78l-7 -12l-12 7l-13 7l-13 6l7 13q17 30 13.5 54.5t-11.5 40.5q-7 13 -17.5 24t-22 19.5t-23 13t-20.5 5.5q-11 2 -20.5 2h-17.5q-21 0 -38.5 -3.5t-33 -14t-28.5 -29t-25 -48.5q-6 -14 -6 -38t3.5 -54t9.5 -65.5
t13 -72.5q15 -78 28 -163.5t15 -173.5q0 -44 -3 -83q24 1 44.5 2t36.5 2q12 2 21 2h16h3h14v-14l-1 -15v-14h-14h-2q-5 0 -14 -0.5t-20 -1.5q-17 -1 -39.5 -2.5t-49.5 -1.5q-9 -57 -27 -105q-20 -55 -51 -98q-6 -10 -21 -28q14 -4 29.5 -9.5t32.5 -12.5q22 -8 48.5 -17.5
t55 -17.5t57.5 -13t58 -5q78 0 130 43q8 6 20.5 25.5t12.5 45.5q0 35 -31 62l-11 9l9 10l10 12l9 11z" />
    <glyph glyph-name="currency" unicode="&#xa4;" horiz-adv-x="833" 
d="M673 596q-9 -8 -32.5 -30.5t-61.5 -57.5q39 -42 42 -104q2 -45 -15.5 -89t-51.5 -78q27 -32 44.5 -56t27.5 -41l7 -12l-12 -7l-13 -8l-12 -7l-7 12q-18 30 -67 91q-36 -25 -79 -39t-85 -14q-56 0 -96 24q-2 2 -4.5 3.5t-4.5 3.5q-30 -30 -47.5 -48t-27 -28t-12.5 -13.5
t-4 -4.5l-6 -12l-12 7l-13 7l-13 7l7 13q1 1 3.5 4.5t12.5 14t29 30t53 54.5q-7 9 -11.5 20t-7.5 23q-12 45 -2.5 88.5t38.5 85.5q21 27 44 49q-4 5 -8 9t-8 9q-29 32 -50.5 57t-33.5 39l-9 11l10 9l12 10l10 9l9 -11q12 -14 33.5 -38.5t50.5 -56.5q5 -5 9 -10t9 -10
q7 4 13 7.5t12 6.5q26 14 55.5 20.5t58.5 6.5q52 0 87 -19q15 14 30 29t29 28t25.5 23.5t17.5 15.5l11 9l9 -11l9 -12l9 -11zM457 509q-49 0 -95 -22q-17 -9 -41.5 -28.5t-45.5 -48.5q-17 -23 -29 -58.5t-1 -79.5q19 -73 113 -73q44 0 87 17.5t75 46.5q29 28 44.5 64.5
t13.5 74.5q-2 55 -39 83q-29 24 -82 24z" />
    <glyph glyph-name="yen" unicode="&#xa5;" horiz-adv-x="1010" 
d="M790 892q-25 -49 -59 -115t-69 -131.5t-67 -122.5t-53 -87l-2.5 -57.5t-3.5 -76.5q32 0 65.5 0.5t63.5 0.5q44 0 72.5 -0.5t43.5 -1.5l14 -1l-1 -14l-1 -15l-1 -14l-14 1q-14 1 -41.5 1.5t-70.5 0.5q-32 0 -66.5 -0.5t-66.5 -0.5l-3 -51q40 0 78.5 0.5t71.5 1t58.5 1
t40.5 1.5l14 1v-14l1 -15l1 -14l-14 -1q-15 -1 -41.5 -1.5t-60 -1t-72.5 -1t-80 -0.5q-5 -63 -9.5 -107.5t-7.5 -63.5l-3 -14l-13 3l-15 2l-14 3l2 14q3 16 7 59t9 103h-82q-37 0 -78 0.5t-63 1.5l-14 1l1 14l1 15l1 14l14 -1q16 -1 51 -1.5t87 -0.5h86q1 14 1.5 26.5
t1.5 25.5h-8q-42 -1 -80.5 -1h-69.5q-42 0 -56 0.5t-18 1.5l-14 2l3 14l2 15l3 13l13 -2q2 0 14 -0.5t52 -0.5h71t79 1h1h11q2 44 4 79.5t2 58.5q-7 17 -21.5 52t-34.5 82q-24 59 -52.5 126.5t-53.5 127.5q-20 46 -32 73.5t-19 42.5t-9.5 20.5t-3.5 6.5l31 30q2 -2 5 -6
t10 -19t20.5 -45t36.5 -84q25 -60 53.5 -128.5t53.5 -128.5q12 -30 23 -55.5t19 -45.5q23 37 53 91t61 113.5t60.5 117t52.5 101.5q25 49 34 66t11 20l8 12l11 -8l13 -9l11 -8l-8 -11q-2 -4 -14.5 -28t-27.5 -54z" />
    <glyph glyph-name="oslash" unicode="&#xf8;" 
d="M1934 123q-68 -20 -142 -35.5t-152 -26t-157 -16t-157 -5.5q-127 0 -209 27q-3 -4 -6.5 -8t-8.5 -8q-37 -35 -88.5 -55.5t-103.5 -20.5q-60 0 -100.5 28t-53.5 77q-12 45 -2.5 89.5t38.5 86.5q7 10 18.5 21t25 21t27 18t24.5 13q-106 -11 -211 -30.5t-208.5 -45
t-205 -54.5t-199.5 -58l-63 -18l-13 41q17 5 32.5 9.5t31.5 9.5q115 34 227.5 66t227 58t235 43.5t251.5 22.5h18q68 0 109 -33q26 -20 39.5 -50t15.5 -66q2 -31 -6 -61.5t-24 -58.5q75 -20 182 -20q76 0 154 5.5t154 15.5t149 25t139 35zM1019 231q0 -74 83 -111
q31 47 29 102q-1 20 -6.5 36t-14.5 29q-6 6 -22.5 11.5t-33.5 -2.5q-12 -6 -23.5 -21t-11.5 -44zM910 20q44 0 87 17t75 47q1 0 1 1q-98 49 -98 146q0 17 5.5 33.5t16 30t25.5 21.5t33 8q-13 3 -26.5 4.5t-18.5 1.5q-51 0 -95 -23q-15 -8 -39 -26.5t-45 -46t-32.5 -64
t-0.5 -78.5q6 -24 20.5 -38.5t31.5 -22t33 -9.5t27 -2zM1126 1145l-1 -14q-2 -14 -14.5 -73.5t-31.5 -148.5t-43.5 -199t-49.5 -225t-50 -226.5t-45.5 -203.5t-35 -156t-19.5 -84l-3 -13l-13 3l-15 4l-14 3l4 14q5 19 19.5 83t34.5 155.5t45 203t50 226t49 224t43.5 198.5
t31.5 148t14 73l2 14l14 -2l15 -2z" />
    <glyph glyph-name="ae" unicode="&#xe6;" horiz-adv-x="2326" 
d="M2324 128l-13 -4q-150 -45 -307 -76.5t-305 -47.5q-101 -11 -198 -17t-185 -6q-8 0 -15 0.5t-14 0.5q-53 0 -94 25q-45 28 -58 79q-5 -8 -11.5 -15t-13.5 -14q-37 -35 -88 -55t-103 -20q-58 0 -95 24q-45 27 -59 80q-11 45 -2 89t38 85q14 20 30.5 36t32.5 29
q-106 -11 -206 -29t-197 -41.5t-193 -51.5t-194 -57q-15 -4 -31 -8.5t-33 -9.5l-13 -4l-4 13l-4 15l-4 13l13 4q16 5 31.5 9.5t31.5 9.5q117 34 227.5 65.5t227.5 57.5q133 29 251.5 45t238.5 21l14 1q67 -2 107 -34q36 -28 50 -77q23 31 50 52.5t47 31.5q26 13 56 20t59 7
h1q68 -2 108 -34q23 -19 39 -47q19 -32 17 -63q0 -21 -11 -41q-10 -16 -29 -31q-29 -19 -67 -24t-75 -7q-14 -1 -26 -1.5t-23 -2.5q-5 -1 -10 -1.5t-11 -1.5q-16 -2 -33.5 -4.5t-34 -6.5t-30.5 -10.5t-24 -15.5q11 -30 38.5 -46t68.5 -16q8 0 14.5 -0.5t14.5 -0.5
q87 0 182.5 6t195.5 17q146 16 301 47t304 75l13 4l4 -13l4 -15zM1388 330q-24 0 -48.5 -5.5t-45.5 -16.5q-17 -8 -42 -28t-45 -49q-13 -17 -24 -43t-11 -58q27 16 61 22.5t64 10.5q5 1 10 1.5t10 1.5q12 2 25.5 2.5t27.5 1.5q32 2 65.5 6t53.5 18q22 15 22 37
q1 19 -10.5 40t-29.5 35q-14 12 -35.5 18t-47.5 6zM1081 85q29 27 44.5 63.5t13.5 74.5q-2 54 -38 83q-31 25 -83 25q-24 0 -48.5 -6t-46.5 -17q-17 -8 -41.5 -28t-45.5 -49q-17 -23 -29 -58.5t-1 -79.5q9 -35 38 -53.5t75 -18.5q44 0 87 17t75 47z" />
    <glyph glyph-name="AE" unicode="&#xc6;" horiz-adv-x="2300" 
d="M2324 128l-13 -4q-150 -45 -307 -76.5t-305 -47.5q-101 -11 -198 -17t-185 -6q-8 0 -15 0.5t-14 0.5q-53 0 -94 25q-45 28 -58 79q-5 -8 -11.5 -15t-13.5 -14q-37 -35 -88 -55t-103 -20q-58 0 -95 24q-45 27 -59 80q-11 45 -2 89t38 85q14 20 30.5 36t32.5 29
q-106 -11 -206 -29t-197 -41.5t-193 -51.5t-194 -57q-15 -4 -31 -8.5t-33 -9.5l-13 -4l-4 13l-4 15l-4 13l13 4q16 5 31.5 9.5t31.5 9.5q117 34 227.5 65.5t227.5 57.5q133 29 251.5 45t238.5 21l14 1q67 -2 107 -34q36 -28 50 -77q23 31 50 52.5t47 31.5q26 13 56 20t59 7
h1q68 -2 108 -34q23 -19 39 -47q19 -32 17 -63q0 -21 -11 -41q-10 -16 -29 -31q-29 -19 -67 -24t-75 -7q-14 -1 -26 -1.5t-23 -2.5q-5 -1 -10 -1.5t-11 -1.5q-16 -2 -33.5 -4.5t-34 -6.5t-30.5 -10.5t-24 -15.5q11 -30 38.5 -46t68.5 -16q8 0 14.5 -0.5t14.5 -0.5
q87 0 182.5 6t195.5 17q146 16 301 47t304 75l13 4l4 -13l4 -15zM1388 330q-24 0 -48.5 -5.5t-45.5 -16.5q-17 -8 -42 -28t-45 -49q-13 -17 -24 -43t-11 -58q27 16 61 22.5t64 10.5q5 1 10 1.5t10 1.5q12 2 25.5 2.5t27.5 1.5q32 2 65.5 6t53.5 18q22 15 22 37
q1 19 -10.5 40t-29.5 35q-14 12 -35.5 18t-47.5 6zM1081 85q29 27 44.5 63.5t13.5 74.5q-2 54 -38 83q-31 25 -83 25q-24 0 -48.5 -6t-46.5 -17q-17 -8 -41.5 -28t-45.5 -49q-17 -23 -29 -58.5t-1 -79.5q9 -35 38 -53.5t75 -18.5q44 0 87 17t75 47z" />
    <glyph glyph-name="Euro" unicode="&#x20ac;" horiz-adv-x="833" 
d="M742 1028q14 -49 8 -110l-1 -14l-14 1l-15 2l-14 1l1 14q10 97 -36 150q-20 23 -44.5 31.5t-43.5 8.5q-31 0 -59.5 -9.5t-54 -24t-47.5 -32.5t-40 -35q-45 -45 -75 -91.5t-44 -76.5q-23 -50 -38.5 -102t-26.5 -106h502h14v-43h-14h-509q-3 -21 -4.5 -42t-3.5 -42
q20 0 63.5 0.5t97.5 0.5h112.5h109.5t88 -0.5t48 -1.5h14l-3 -43h-14q-11 1 -48 1.5t-88 0.5h-110h-113t-96.5 -0.5t-61.5 -0.5q1 -64 10.5 -123.5t28.5 -111.5q59 -164 176 -199q33 -9 67 -9q74 0 135.5 47t96.5 132l5 13l13 -6l14 -6l13 -5l-6 -13q-23 -57 -59 -100
t-81 -70q-31 -17 -63.5 -26.5t-67.5 -9.5q-39 0 -79 12q-77 23 -131 89q-44 53 -74 136q-11 29 -18.5 61t-12.5 65q-5 30 -7 61t-3 63q-30 -1 -61 0l2 43q14 -2 29 -1.5t31 1.5q1 8 1.5 17t1.5 18q1 12 2 24.5t3 24.5h-69v43h76q21 117 68 225q15 33 48 83.5t81 98.5
q19 19 44.5 39.5t54.5 36.5t62.5 26.5t69.5 10.5q26 0 59 -12t60 -42q27 -29 40 -73z" />
    <glyph glyph-name="minus" unicode="&#x2212;" horiz-adv-x="833" 
d="M654 362l-14 -1q-13 0 -34.5 -0.5t-55.5 -0.5h-72q-20 0 -41 0.5t-42 0.5q-37 0 -65.5 -0.5t-51.5 -0.5q-30 -1 -49.5 -2t-31 -1.5t-17 -1.5t-6.5 -1v1v43q4 0 8.5 0.5t10.5 1.5q30 2 77 3q25 0 55 0.5t70 0.5q21 0 42 -0.5t41 -0.5h1h71q34 0 55 0.5t34 0.5l14 1v-14
l1 -15v-14z" />
    <glyph glyph-name="plus" unicode="+" horiz-adv-x="833" 
d="M687 480l-14 -1q-15 -1 -40 -1h-65h-82h-62v-67q0 -61 -0.5 -110t1.5 -75l1 -14l-14 -1h-15l-14 -1l-1 14q-2 26 -1.5 76t0.5 111v1v66h-71t-57 -1q-53 -1 -86 -3q-11 -2 -17.5 -2.5t-10.5 -1.5t-6 -1l1 1l-3 4v39q12 2 25 3q16 2 38 2.5t51 1.5q27 1 60 1h76v68t-1 55
q-1 28 -1.5 49t-2.5 37q-1 19 -3 27q-1 4 -1 7l1 -1l3 2h40q1 -11 3 -24q2 -16 2.5 -38t1.5 -51q1 -26 1 -57.5v-73.5h62h83h63t39 1l14 1l1 -14v-15z" />
    <glyph glyph-name="hyphen" unicode="-" horiz-adv-x="833" 
d="M654 524l-14 -1q-13 0 -34.5 -0.5t-55.5 -0.5h-72q-20 0 -41 0.5t-42 0.5q-37 0 -65.5 -0.5t-51.5 -0.5q-30 -1 -49.5 -2t-31 -1.5t-17 -1.5t-6.5 -1v1v43q4 0 8.5 0.5t10.5 1.5q30 2 77 3q25 0 55 0.5t70 0.5q21 0 42 -0.5t41 -0.5h1h71q34 0 55 0.5t34 0.5l14 1v-14
l1 -15v-14z" />
    <glyph glyph-name="underscore" unicode="_" horiz-adv-x="833" 
d="M747 -87l-14 -1q-11 -1 -34.5 -1h-68.5h-93h-122h-94t-76 -1q-45 0 -74 -1t-46.5 -1.5t-25.5 -1.5t-11 -2v44q6 1 14.5 1.5t19.5 0.5q40 3 114 3q35 1 78.5 1h100.5h122h92h59.5t42.5 1h14v-14l1 -14z" />
    <glyph glyph-name="endash" unicode="&#x2013;" horiz-adv-x="644" 
d="M477 358l-14 -1q-9 0 -23 -0.5t-37 -0.5h-46q-14 0 -27 0.5t-27 0.5q-23 0 -41.5 -0.5t-32.5 -0.5q-39 -1 -51.5 -2.5t-14.5 -2.5l1 1l-1 2v41q10 2 24 2.5t34 1.5q16 0 36 0.5t46 0.5q14 0 27 -0.5t27 -0.5h46q22 0 35.5 0.5t21.5 0.5l14 1l1 -14l1 -15z" />
    <glyph glyph-name="emdash" unicode="&#x2014;" horiz-adv-x="833" 
d="M654 362l-14 -1q-13 0 -34.5 -0.5t-55.5 -0.5h-72q-20 0 -41 0.5t-42 0.5q-37 0 -65.5 -0.5t-51.5 -0.5q-30 -1 -49.5 -2t-31 -1.5t-17 -1.5t-6.5 -1v1v43q4 0 8.5 0.5t10.5 1.5q30 2 77 3q25 0 55 0.5t70 0.5q21 0 42 -0.5t41 -0.5h1h71q34 0 55 0.5t34 0.5l14 1v-14
l1 -15v-14z" />
    <glyph glyph-name="equal" unicode="=" horiz-adv-x="833" 
d="M660 540h-14q-13 -1 -34.5 -1h-55.5h-71h-1h-83h-65.5t-51.5 -1q-55 -1 -76.5 -2t-26.5 -3v44q4 0 8.5 0.5t9.5 0.5q28 3 77 3q25 1 55 1h70h84h71h55t34 1h14v-14l1 -15v-14zM660 403l-14 -1q-13 0 -34.5 -0.5t-55.5 -0.5q-17 0 -34.5 0.5t-37.5 0.5h-83h-65.5t-51.5 -1
q-55 -1 -76.5 -2.5t-26.5 -2.5v43q4 1 8.5 1t9.5 1q30 2 77 3q25 1 55 1h70h84q19 0 36.5 -0.5t34.5 -0.5q34 0 55 0.5t34 0.5l14 1v-14l1 -15v-14z" />
    <glyph glyph-name="plusminus" unicode="&#xb1;" horiz-adv-x="833" 
d="M686 197l-14 -1q-14 -1 -35.5 -1h-55.5h-71h-1h-83h-117q-33 -1 -53.5 -2t-31.5 -1.5t-15 -1.5t-5 -1h1l-3 5v38q10 2 23 3q28 2 76 3h125h84h71h55t34 1l14 1v-14l1 -15zM723 548h-14q-15 -1 -40 -1.5t-65 -0.5h-69.5t-74.5 1v-68q0 -60 -0.5 -109.5t1.5 -75.5l1 -14
h-14l-15 -1l-14 -1l-1 14q-2 27 -1.5 76.5t0.5 110.5v1v67q-40 0 -71 -0.5t-57 -0.5q-26 -1 -54.5 -2.5t-65.5 -3.5v41q5 2 10.5 2t12.5 1q16 2 38 2.5t51 1.5q27 1 60 1.5t76 0.5v67.5t-1 54.5q-1 28 -1.5 49.5t-2.5 37.5q-2 19 -3 27q-1 4 -1 7l1 -2l2 2h41
q1 -5 1.5 -10.5t1.5 -13.5q2 -16 2.5 -38t1.5 -51q1 -26 1 -57.5v-72.5q16 0 31.5 -0.5t30.5 -0.5h83q38 0 63 0.5t39 1.5h14l1 -14v-15z" />
    <glyph glyph-name="cedilla" unicode="&#xb8;" horiz-adv-x="833" 
d="M462 -128l-6 -12q-17 -38 -58 -38q-6 0 -11.5 1t-10.5 3q-21 7 -36 26.5t-8 49.5q5 28 28 41q16 10 37 10h2q0 8 0.5 16t1.5 15l2 13l41 -6l-2 -13q-1 -6 -1.5 -14.5t-1 -16t-0.5 -13v-6.5v-27l-26 8q-5 2 -8 3t-8 1q-4 0 -7.5 -0.5t-9.5 -4.5q-11 -7 -10 -22.5t18 -20.5
q8 -2 10 -2q14 0 20 13l5 13z" />
    <glyph glyph-name="ccedilla" unicode="&#xe7;" horiz-adv-x="1928" 
d="M1933 124q-150 -45 -307.5 -76.5t-305.5 -48.5q-103 -11 -198.5 -16.5t-183.5 -5.5h-30q-60 1 -100 28.5t-52 76.5q-12 45 -2.5 89t38.5 86q14 20 34 37.5t38 28.5q-106 -10 -207.5 -29t-200.5 -43t-197 -52t-195 -57l-63 -18l-13 41q17 5 32.5 9.5t31.5 9.5
q115 34 228 66t228.5 58t236 43.5t251.5 22.5h2q33 2 64.5 -5.5t56.5 -27.5q29 -23 45 -56t16 -68h-44q0 26 -11.5 49.5t-32.5 40.5q-35 26 -90 23q-23 0 -45 -6t-42 -16q-15 -8 -39 -26.5t-45 -46t-32.5 -64t-0.5 -78.5q6 -23 19 -37.5t29 -22t32.5 -10t29.5 -2.5
q93 -1 196 4.5t212 17.5q146 16 301 47t303 75zM979 -128l-6 -12q-17 -38 -58 -38q-6 0 -11.5 1t-10.5 3q-21 7 -36 26.5t-8 49.5q5 28 28 41q16 10 37 10h2q0 8 0.5 16t1.5 15l2 13l41 -6l-2 -13q-1 -6 -1.5 -14.5t-1 -16t-0.5 -13v-6.5v-27l-26 8q-5 2 -8 3t-8 1
q-4 0 -7.5 -0.5t-9.5 -4.5q-11 -7 -10 -22.5t18 -20.5q8 -2 10 -2q14 0 20 13l5 13z" />
    <glyph glyph-name="Ccedilla" unicode="&#xc7;" horiz-adv-x="1928" 
d="M1933 124q-150 -45 -307.5 -76.5t-305.5 -48.5q-103 -11 -198.5 -16.5t-183.5 -5.5h-30q-60 1 -100 28.5t-52 76.5q-12 45 -2.5 89t38.5 86q14 20 34 37.5t38 28.5q-106 -10 -207.5 -29t-200.5 -43t-197 -52t-195 -57l-63 -18l-13 41q17 5 32.5 9.5t31.5 9.5
q115 34 228 66t228.5 58t236 43.5t251.5 22.5h2q33 2 64.5 -5.5t56.5 -27.5q29 -23 45 -56t16 -68h-44q0 26 -11.5 49.5t-32.5 40.5q-35 26 -90 23q-23 0 -45 -6t-42 -16q-15 -8 -39 -26.5t-45 -46t-32.5 -64t-0.5 -78.5q6 -23 19 -37.5t29 -22t32.5 -10t29.5 -2.5
q93 -1 196 4.5t212 17.5q146 16 301 47t303 75zM977 -128l-6 -12q-17 -38 -58 -38q-6 0 -11.5 1t-10.5 3q-21 7 -36 26.5t-8 49.5q5 28 28 41q16 10 37 10h2q0 8 0.5 16t1.5 15l2 13l41 -6l-2 -13q-1 -6 -1.5 -14.5t-1 -16t-0.5 -13v-6.5v-27l-26 8q-5 2 -8 3t-8 1
q-4 0 -7.5 -0.5t-9.5 -4.5q-11 -7 -10 -22.5t18 -20.5q8 -2 10 -2q14 0 20 13l5 13z" />
    <glyph glyph-name="degree" unicode="&#xb0;" horiz-adv-x="698" 
d="M449 967q4 -34 -13 -64q-20 -32 -61 -44q-20 -5 -35 -5q-34 0 -59 20q-22 17 -31 47q-8 26 1 58t41 52t64 20q20 0 36 -7t28 -19t19.5 -27t9.5 -31zM340 897q12 0 23 4q17 5 26.5 13.5t13 17.5t4 17t-0.5 12q-2 18 -15.5 32.5t-34.5 14.5t-41 -14q-18 -11 -23 -28.5
t-1 -32.5q1 -3 4 -9t8.5 -12t14 -10.5t22.5 -4.5v-7v7z" />
    <glyph glyph-name="oe" unicode="&#x153;" horiz-adv-x="2330" 
d="M2329 128l-14 -4q-152 -45 -309 -76.5t-303 -46.5q-102 -12 -199 -17.5t-185 -5.5h-15q-3 0 -6.5 0.5t-6.5 0.5q-53 0 -94 23v1h-1q-21 14 -35.5 34t-20.5 46q-6 -8 -12.5 -15t-14.5 -14q-37 -36 -88 -55q-25 -11 -50.5 -15.5t-51.5 -4.5q-59 0 -95 24q-46 27 -60 80
q-23 90 38 174q20 29 52 56q6 6 10 8q-107 -11 -207 -29t-197.5 -41.5t-193.5 -51t-193 -56.5q-8 -2 -15.5 -4.5t-15.5 -4.5q-8 -3 -16 -5.5t-16 -4.5l-14 -4l-4 14l-4 15l-3 13l13 4l63 18q62 18 120 35t113.5 32.5t110.5 29.5t111 26q133 29 252 45t238 21l1 1h3
q2 0 4 0.5t4 0.5q66 0 109 -34q2 -2 5.5 -4.5t5.5 -6.5q2 -1 5 -4q24 -27 33 -63q22 28 49 51q26 21 50 33q25 14 54.5 21t59.5 7h1v-1q68 -2 108 -34q23 -18 39 -46q19 -34 17 -64q-2 -43 -40 -71q-29 -19 -66 -24t-72 -7h-3q-14 -1 -26.5 -1.5t-23.5 -2.5l-21 -3
q-31 -4 -66.5 -11t-55.5 -27q11 -30 38.5 -45.5t68.5 -15.5v-1h38q83 0 176.5 5.5t192.5 16.5q149 17 303.5 48t300.5 75l13 4l4 -13l5 -15zM1392 331q-51 0 -95 -22q-19 -11 -43 -30.5t-44 -46.5q-12 -17 -23 -43t-11 -58q28 16 61.5 22.5t62.5 9.5q5 1 10 1.5t10 1.5
q12 2 25 2.5t29 1.5q3 1 9 1q30 2 60 6t50 17t22 38q1 18 -10.5 39t-29.5 36q-32 24 -83 24zM1030 317q5 6 13 13q-5 1 -10.5 1.5t-10.5 0.5q-24 0 -48.5 -6t-46.5 -17q-18 -10 -42.5 -29t-44.5 -48q-48 -68 -30 -139h1q8 -34 37.5 -52.5t74.5 -18.5q37 0 75 12.5t69 35.5
q-20 6 -33 19q-24 20 -38 66v1q-13 41 -5 84q9 42 38 77h1zM1062 288q-45 -51 -26 -121q6 -22 14.5 -33.5t17 -17t15.5 -6.5t11 -1q8 0 13 1q39 53 36 114q-1 45 -29 74q-8 6 -12.5 7.5t-7.5 1.5h-2q-11 -1 -19 -8t-10 -10v-1h-1z" />
    <glyph glyph-name="OE" unicode="&#x152;" horiz-adv-x="2330" 
d="M2329 128l-14 -4q-152 -45 -309 -76.5t-303 -46.5q-102 -12 -199 -17.5t-185 -5.5h-15q-3 0 -6.5 0.5t-6.5 0.5q-53 0 -94 23v1h-1q-21 14 -35.5 34t-20.5 46q-6 -8 -12.5 -15t-14.5 -14q-37 -36 -88 -55q-25 -11 -50.5 -15.5t-51.5 -4.5q-59 0 -95 24q-46 27 -60 80
q-23 90 38 174q20 29 52 56q6 6 10 8q-107 -11 -207 -29t-197.5 -41.5t-193.5 -51t-193 -56.5q-8 -2 -15.5 -4.5t-15.5 -4.5q-8 -3 -16 -5.5t-16 -4.5l-14 -4l-4 14l-4 15l-3 13l13 4l63 18q62 18 120 35t113.5 32.5t110.5 29.5t111 26q133 29 252 45t238 21l1 1h3
q2 0 4 0.5t4 0.5q66 0 109 -34q2 -2 5.5 -4.5t5.5 -6.5q2 -1 5 -4q24 -27 33 -63q22 28 49 51q26 21 50 33q25 14 54.5 21t59.5 7h1v-1q68 -2 108 -34q23 -18 39 -46q19 -34 17 -64q-2 -43 -40 -71q-29 -19 -66 -24t-72 -7h-3q-14 -1 -26.5 -1.5t-23.5 -2.5l-21 -3
q-31 -4 -66.5 -11t-55.5 -27q11 -30 38.5 -45.5t68.5 -15.5v-1h38q83 0 176.5 5.5t192.5 16.5q149 17 303.5 48t300.5 75l13 4l4 -13l5 -15zM1392 331q-51 0 -95 -22q-19 -11 -43 -30.5t-44 -46.5q-12 -17 -23 -43t-11 -58q28 16 61.5 22.5t62.5 9.5q5 1 10 1.5t10 1.5
q12 2 25 2.5t29 1.5q3 1 9 1q30 2 60 6t50 17t22 38q1 18 -10.5 39t-29.5 36q-32 24 -83 24zM1030 317q5 6 13 13q-5 1 -10.5 1.5t-10.5 0.5q-24 0 -48.5 -6t-46.5 -17q-18 -10 -42.5 -29t-44.5 -48q-48 -68 -30 -139h1q8 -34 37.5 -52.5t74.5 -18.5q37 0 75 12.5t69 35.5
q-20 6 -33 19q-24 20 -38 66v1q-13 41 -5 84q9 42 38 77h1zM1062 288q-45 -51 -26 -121q6 -22 14.5 -33.5t17 -17t15.5 -6.5t11 -1q8 0 13 1q39 53 36 114q-1 45 -29 74q-8 6 -12.5 7.5t-7.5 1.5h-2q-11 -1 -19 -8t-10 -10v-1h-1z" />
    <glyph glyph-name="one" unicode="1" horiz-adv-x="833" 
d="M709 12l-5 -12l-6 -14l-6 -13l-12 5q-1 0 -6.5 1t-22.5 2t-40.5 1.5t-55.5 0.5h-4q-52 0 -112.5 -1t-112.5 -2q-45 -1 -75 -1.5t-49 -0.5h-19.5t-7.5 1l-14 2l2 14l3 14l2 14l14 -2h19q20 0 53 0.5t71 1.5q24 0 43.5 0.5t36.5 0.5q1 43 3 121t5 180q2 79 4.5 165.5
t4.5 170.5t3.5 162.5t2.5 141.5q-1 0 -1 -2h-1q-23 -36 -52 -82t-59.5 -91.5t-61 -85t-55.5 -63.5l-10 -9l-10 10l-10 11l-9 10l10 10q24 22 53.5 61t60 84t58.5 90t49 78q19 30 29 46t14 21l7 8l9 -4l13 -5l9 -3v-10q0 -60 -1.5 -144.5t-3.5 -180.5t-4.5 -196.5
t-5.5 -193.5v-1q-3 -101 -5 -178.5t-3 -119.5q33 0 59.5 0.5t48.5 0.5q40 0 65.5 -0.5t40.5 -2t22.5 -3t11.5 -2.5z" />
    <glyph glyph-name="two" unicode="2" horiz-adv-x="934" 
d="M872 115q9 -32 -4 -65q-15 -37 -57 -59t-102 -24h-13q-43 0 -84.5 7.5t-79 18.5t-68.5 23t-53 22q-8 5 -16.5 9t-18.5 9q-63 -41 -117 -59q-44 -15 -79 -15q-22 0 -37 4q-28 8 -46 30.5t-22 53.5q-5 32 9 59.5t42 43.5q27 15 57 15q19 0 34.5 -4.5t26.5 -8.5
q29 -11 55 -26t52 -29h1q5 -4 10.5 -7t10.5 -6q65 47 125 110.5t106 133.5q100 155 107 297.5t-80 250.5q-34 42 -84 64t-110 22q-43 0 -84.5 -11t-76.5 -33q-47 -29 -76.5 -69t-40.5 -89t-4 -105t33 -117l6 -13l-13 -5l-14 -6l-13 -6l-5 13q-33 73 -39 144q-6 65 12 122
q16 53 49 95.5t83 72.5q24 14 50 25t54 17q39 9 77 9q9 0 17.5 -0.5t17.5 -1.5q60 -6 109.5 -32t84.5 -69q105 -129 88 -300q-7 -72 -35.5 -147.5t-76.5 -150.5q-45 -69 -103.5 -132.5t-121.5 -111.5q10 -4 14 -7q21 -9 50.5 -21t64.5 -22t74 -17t78 -7h12q48 2 80 17
q31 15 40 40q8 18 2 39t-25 41l-10 10l10 10l11 10l10 10l10 -10q27 -30 36 -62zM183 145q-20 0 -36 -10q-35 -19 -30 -60q2 -17 12.5 -30t24.5 -17q10 -3 26 -3q64 0 153 55q-2 2 -3 2q-25 14 -50.5 28t-51.5 25q-24 10 -45 10z" />
    <glyph glyph-name="three" unicode="3" horiz-adv-x="917" 
d="M767 565q33 -47 51 -109t17 -131q-2 -69 -22 -129t-57 -101q-38 -44 -91.5 -73.5t-116.5 -43.5q-22 -5 -44 -7.5t-45 -2.5q-76 0 -144 28q-88 38 -135 114q-52 84 -44 203l1 14l14 -1l15 -1l14 -1l-1 -13q-5 -67 10 -114.5t39 -80t52.5 -51.5t51.5 -29q57 -25 128 -25
q77 0 146.5 29.5t117.5 83.5q32 35 49 87.5t19 114.5q1 62 -15 117t-45 96q-29 39 -62.5 64t-68 39.5t-67.5 19.5t-61 5q-75 0 -151 -28l-11 -4l-6 11l-7 13l-6 10l10 7q38 30 83.5 64.5t95.5 72.5q53 39 104.5 78.5t97.5 74.5q-69 0 -134.5 1t-129 1.5t-127.5 2t-131 3.5
h-14v14v15l1 14h14q74 -2 145 -3.5t142 -2.5t144 -1.5t152 -0.5h10l3 -9l5 -13l3 -10l-7 -6q-52 -42 -118 -91.5l-134 -100.5v-1q-25 -19 -49 -37t-47 -35q16 2 31.5 3t30.5 1q21 0 41.5 -2t40.5 -6q64 -14 115 -46q55 -36 97 -91z" />
    <glyph glyph-name="four" unicode="4" horiz-adv-x="936" 
d="M812 365l-8 -12q-9 -12 -27.5 -13t-36.5 -3q-40 -2 -109 -3h-22v-310v-25v-14h-14h-15h-14v14v25v309h-132h-164h-51.5t-34.5 -1h-8l-4 7l-7 11l-4 7l4 7q95 170 194 337.5t202 349.5l4 8l10 -1l13 -2l9 -1l3 -9q1 -2 1.5 -7t1.5 -22.5t1.5 -53.5t1.5 -99q1 -83 1.5 -203
t1.5 -284h14q35 0 61.5 1t46.5 2q11 1 25 1t25 5l20 -13zM566 376q0 66 -0.5 124.5t-0.5 111.5q0 71 -0.5 127t-1 99t-1 74t-0.5 53q-83 -143 -167.5 -287.5t-173.5 -301.5h49h163h133z" />
    <glyph glyph-name="five" unicode="5" horiz-adv-x="977" 
d="M782 565q33 -47 51 -109t17 -131q-2 -69 -22 -129t-57 -101q-38 -44 -91.5 -73.5t-116.5 -43.5q-22 -5 -44 -7.5t-45 -2.5q-76 0 -144 28q-43 19 -77.5 47.5t-57.5 66.5q-52 84 -44 203l1 14l14 -1l15 -1l14 -1l-1 -13q-5 -67 10 -114.5t39 -80t52.5 -51.5t51.5 -29
q57 -25 128 -25q77 0 146.5 29.5t117.5 83.5q32 35 49 87.5t19 114.5q1 61 -15 116.5t-45 96.5q-38 53 -92 85t-117 41q-11 2 -23 3t-24 1q-66 0 -132 -25.5t-129 -74.5l-7 -6l-8 5l-12 6l-8 4v9q3 51 3 102.5t-1 102.5v100t2 100v5l4 4l7 7l4 4h6q54 3 114 4.5t132 1.5
q44 0 86.5 -0.5t84.5 -0.5q42 -1 85 -1.5t86 -0.5h14v-14v-15v-14h-14q-43 0 -86.5 0.5t-85.5 1.5q-42 0 -84 0.5t-86 0.5q-65 0 -119.5 -1.5t-105.5 -3.5q-2 -44 -1.5 -88.5t0.5 -88.5q1 -41 1.5 -81.5t-1.5 -82.5q69 46 137 65q29 9 57.5 13t57.5 4q26 0 52 -3
q72 -11 133 -47.5t105 -95.5z" />
    <glyph glyph-name="six" unicode="6" horiz-adv-x="983" 
d="M803 570q32 -47 48.5 -110.5t13.5 -132.5q-4 -70 -25.5 -130.5t-57.5 -101.5q-54 -60 -131.5 -93t-164.5 -34h-1q-89 0 -153 36q-31 17 -59 43.5t-57 65.5q-45 62 -65 151q-16 70 -16 162q0 43 1 80t6 72.5t15 71t27 76.5q32 76 78 130q49 56 111 92q64 38 142 56
q39 9 82 14t90 5q11 0 23 -0.5t23 -1.5h14v-14l-1 -15l-1 -14h-14q-11 1 -22 1.5t-22 0.5q-350 0 -463 -270q-24 -57 -33.5 -106t-11.5 -100q20 36 44 66.5t53 54.5q41 35 88.5 56.5t99.5 29.5q24 3 49 3q87 0 165 -38q38 -20 70 -46.5t55 -59.5zM822 329q2 63 -11.5 119
t-42.5 98q-41 58 -108.5 91.5t-145.5 33.5q-23 0 -44 -3q-29 -4 -67.5 -17t-79 -43t-79 -80.5t-66.5 -129.5q3 -84 21 -149t52 -110q25 -35 50.5 -59.5t53.5 -39.5t60 -22t70 -7h1q77 1 146.5 30.5t117.5 82.5q32 35 50.5 88.5t21.5 116.5z" />
    <glyph glyph-name="seven" unicode="7" horiz-adv-x="908" 
d="M845 981l-9 -5q-37 -24 -76 -65.5t-77.5 -97t-75 -124t-69.5 -146.5q-32 -75 -56 -150.5t-40 -145.5t-22.5 -132.5t-2.5 -112.5l1 -14l-14 -1l-15 -2l-14 -1l-1 14q-4 54 3 121t24 143q17 72 41 147.5t56 150.5q32 76 69 145t75 126q59 87 120 142h-59h-139
q-57 0 -116.5 -0.5t-114.5 -2t-103.5 -5t-84.5 -8.5l-13 -2l-3 13l-2 15l-2 14l14 2q37 6 86 9t105 5t116 2.5t118 0.5h139q32 0 62 -0.5t59 -0.5h11l3 -10l4 -13z" />
    <glyph glyph-name="eight" unicode="8" horiz-adv-x="999" 
d="M841 488q14 -42 19 -87t0 -92q-9 -96 -52 -176q-19 -37 -54 -67t-83 -53q-46 -21 -97.5 -32.5t-102.5 -11.5q-61 0 -117 17q-57 17 -102 55q-70 59 -97 145q-23 71 -15 155q3 37 11 71t17.5 62t19.5 49t17 33q46 77 131 114q16 7 33 12q-5 3 -9.5 6t-9.5 6
q-57 39 -68 103q-8 49 10 102q8 21 16.5 37.5t14.5 24.5q28 38 80 58q42 16 97 16q29 0 57.5 -4.5t52.5 -14.5q38 -14 65 -44t39 -70q12 -41 5.5 -82.5t-30.5 -74.5t-71 -56q41 -9 77 -26q51 -25 88.5 -69t57.5 -106zM474 659q-80 -5 -140 -37.5t-93 -87.5
q-5 -9 -13.5 -27.5t-17.5 -44t-16.5 -57.5t-10.5 -67q-15 -168 97 -265q35 -29 84.5 -45t106.5 -16q47 0 93.5 10t88.5 30q85 40 117 101q39 73 47 159t-17 162q-35 109 -124 150q-35 17 -79.5 26t-90.5 10q-7 -1 -13.5 -1h-12.5h-6zM504 703q49 4 90 22.5t60 44.5
q18 26 23 57t-4 63q-9 30 -29.5 52.5t-49.5 33.5q-20 8 -44 12t-50 4q-48 0 -85 -14.5t-57 -41.5q-4 -5 -11 -18.5t-14 -32.5q-5 -15 -9 -36.5t0 -44.5q7 -45 50 -75q40 -25 99 -27q8 0 15 0.5t15 0.5h1z" />
    <glyph glyph-name="nine" unicode="9" horiz-adv-x="979" 
d="M862 553q2 -71 1.5 -148.5t-17.5 -152.5q-19 -82 -58 -142q-23 -34 -52.5 -61t-66.5 -46q-32 -17 -79 -26t-100 -9h-12t-12 1q-68 2 -127 19.5t-102 47.5q-53 36 -78 90q-27 57 -18 132l2 14l14 -2l15 -2l13 -1l-1 -14q-15 -117 77 -182q38 -26 91 -41.5t116 -17.5
q5 -1 11 -1h11q48 0 90.5 8t68.5 22q119 63 155 223q16 71 16.5 145t-1.5 143v3v17q-1 5 -1 9.5v9.5q-15 -37 -41 -68q-62 -77 -171 -108q-30 -9 -63 -13.5t-66 -4.5q-62 0 -119 15q-59 15 -105 44q-48 30 -71 73q-21 37 -32.5 78t-13.5 84q-2 45 7 89t29 85q26 53 71 92
q39 33 89 49q45 16 89.5 20t88.5 4h1q47 0 84 -8.5t70 -27.5q59 -33 115 -109q25 -34 40.5 -73.5t24.5 -80t12.5 -81t4.5 -77.5v-20zM594 456q103 29 156.5 102t49.5 179q-18 73 -54 123q-26 34 -51.5 58.5t-53.5 39.5t-59.5 22t-70.5 7q-45 0 -89 -4.5t-83.5 -19.5
t-72.5 -43t-55 -74q-34 -70 -32 -149t40 -147q28 -50 99 -80q35 -14 75.5 -22t83.5 -8q30 0 59.5 4t57.5 12z" />
    <glyph glyph-name="onequarter" unicode="&#xbc;" horiz-adv-x="1074" 
d="M394 858v-14q0 -26 -0.5 -63t-1.5 -79t-2.5 -86.5t-2.5 -85.5q-1 -23 -1.5 -44.5t-1.5 -38.5q-1 -20 -1 -34.5v-22.5l-1 -18h-17h-9h-18v18q0 9 0.5 23.5t1.5 34.5q1 18 1.5 39.5t0.5 44.5q2 62 3.5 130t3.5 123q-14 -15 -32 -33t-36 -35.5t-34 -33t-26 -24.5l-13 -12
l-12 13l-5 5l-12 13l13 12q8 8 21.5 21t28.5 29t30.5 32t28.5 30l25 25q11 11 18.5 20t9.5 11l8 9l11 -3l7 -3zM986 759l-12 -7q-2 -1 -8 -6t-19.5 -16.5t-35 -31t-54.5 -49.5q-48 -44 -106.5 -98t-118.5 -110h-1q-88 -81 -173 -160t-157 -144q-54 -50 -91 -82t-58 -49
q-18 -15 -24.5 -18.5t-11.5 -4.5l-22 33q6 5 16 12l20 15t27 23q21 19 50.5 45t68.5 61q71 65 155.5 143t170.5 157v1q78 71 139.5 127.5t106.5 98.5q32 29 52 46.5t31 27t16 13t7 4.5l12 7l7 -13l6 -13zM931 163l14 -1v-14l-1 -15v-13h-14h-39h-35v-36q1 -41 1.5 -68
t0.5 -33v-14h-14h-15h-14v14q0 6 -0.5 34t-1.5 66v6v31q-38 0 -71 -0.5t-58 -1t-40 -0.5h-18t-6 1q-7 0 -9 2q-8 4 -10 13q-1 4 0 8q0 2 1 4.5t5.5 10t14.5 22t28 40.5q20 29 43.5 62.5t45.5 65.5v1q12 17 24.5 34.5t22.5 32t17 24.5t8 12l6 10l10 -3l14 -4l11 -2v-12v-40.5
t0.5 -68.5t1 -83.5t1.5 -84.5h41h35zM812 163q-1 54 -2 110t-1 99q-8 -10 -16 -22.5t-19 -26.5q-13 -19 -28 -40.5t-30 -43.5t-29 -42t-24 -35h46.5t63.5 1h39z" />
    <glyph glyph-name="onehalf" unicode="&#xbd;" horiz-adv-x="1088" 
d="M362 858v-14q0 -26 -0.5 -63t-1.5 -79t-2.5 -86.5t-2.5 -85.5q-1 -23 -1.5 -44.5t-1.5 -38.5q-1 -20 -1 -34.5v-22.5l-1 -18h-17h-9h-18v18q0 9 0.5 23.5t1.5 34.5q1 18 1.5 39.5t0.5 44.5q2 62 3.5 130t3.5 123q-14 -15 -32 -33t-36 -35.5t-34 -33t-26 -24.5l-13 -12
l-12 13l-5 5l-12 13l13 12q8 8 21.5 21t28.5 29t30.5 32t28.5 30l25 25q11 11 18.5 20t9.5 11l8 9l11 -3l7 -3zM954 759l-12 -7q-2 -1 -8 -6t-19.5 -16.5t-35 -31t-54.5 -49.5q-48 -44 -106.5 -98t-118.5 -110h-1q-88 -81 -173 -160t-157 -144q-54 -50 -91 -82t-58 -49
q-18 -15 -24.5 -18.5t-11.5 -4.5l-22 33q6 5 16 12l20 15t27 23q21 19 50.5 45t68.5 61q71 65 155.5 143t170.5 157v1q78 71 139.5 127.5t106.5 98.5q32 29 52 46.5t31 27t16 13t7 4.5l12 7l7 -13l6 -13zM1007 66q2 -28 -11 -48q-13 -22 -36 -34t-51 -12h-7q-38 2 -66 14
t-51 26q-28 -20 -55 -31q-17 -6 -28.5 -8.5t-22.5 -2.5q-20 0 -37 10q-29 18 -35 49q-6 26 7 52q5 11 14.5 20.5t20.5 14.5q13 6 29 6q6 0 12.5 -1t13.5 -4q17 -6 32 -16t31 -22q4 -2 5 -4h1l1 -1q3 -3 11 -9l11 11h1q28 26 51 59.5t35 72.5t9.5 81.5t-26.5 86.5
q-22 39 -78 39q-32 0 -58 -13q-8 -3 -22 -12.5t-25.5 -26t-15 -41.5t8.5 -59l5 -13l-13 -5l-14 -5l-13 -5l-5 13q-12 33 -12 64t12 58h1q10 22 30 42q19 17 44 30q37 16 75 16q17 0 32 -3q59 -11 85 -58q28 -51 32 -102q3 -51 -10 -97q-14 -42 -38.5 -81.5t-59.5 -71.5h-1
v-1q-1 -1 -2 -1.5t-2 -1.5q16 -10 36.5 -17t46.5 -9h5q35 0 49 25q8 14 4 27t-10 23l-8 12l11 8l13 9l12 8l8 -12q15 -24 18 -49zM748 39q-1 1 -1.5 1t-1.5 1q-14 11 -28 21t-28 15q-8 2 -11 2q-18 0 -26 -17q-1 -3 -2.5 -8t-1 -11.5t4 -13t12.5 -12.5q4 -4 15 -4
q13 0 30.5 7t37.5 19z" />
    <glyph glyph-name="threequarters" unicode="&#xbe;" horiz-adv-x="1065" 
d="M109 16q6 5 16 12l20 15t27 23q21 19 50.5 45t68.5 61q71 65 155.5 143t170.5 157v1q78 71 139.5 127.5t106.5 98.5q32 29 52 46.5t31 27t16 13t7 4.5l12 7l7 -13l6 -13l7 -12l-12 -7q-2 -1 -8 -6t-19.5 -16.5t-35 -31t-54.5 -49.5q-48 -44 -106.5 -98t-118.5 -110h-1
q-88 -81 -173 -160t-157 -144q-54 -50 -91 -82t-58 -49q-18 -15 -24.5 -18.5t-11.5 -4.5zM203 797h-14v14v15l1 14h14h7q19 0 43 1t50 3q29 2 60 3.5t59 1.5q36 0 60 -3l8 -2l3 -8l4 -12l3 -8l-6 -6q-17 -18 -44.5 -40t-56.5 -45q-7 -6 -14 -11.5t-15 -11.5q6 1 12 1h12
q87 0 123 -74q24 -48 18 -108q-3 -26 -12 -51.5t-23 -46.5q-23 -35 -65 -57q-41 -21 -85 -21q-23 0 -44 6q-43 12 -68 47q-29 37 -30 96v14h14l15 1h14v-14q0 -14 3 -29.5t10.5 -30t20.5 -25.5t33 -17q17 -5 32 -5q34 0 65.5 16.5t49.5 42.5q10 15 17 34t9.5 41t-0.5 44.5
t-13 43.5q-11 24 -29 36t-44 14q-3 0 -6 0.5t-6 0.5q-25 0 -50.5 -6.5t-45.5 -13.5l-11 -3l-5 9l-8 12l-6 10l8 8q17 17 43 38.5t55 43.5q15 12 30.5 24t29.5 23q-2 0 -2.5 0.5t-2.5 0.5q-52 0 -103.5 -5t-108.5 -5h-8zM918 163l14 -1v-14l-1 -15v-13h-14h-39h-35v-36
q1 -41 1.5 -68t0.5 -33v-14h-14h-15h-14v14q0 25 -1 54.5t-1 82.5q-38 0 -70.5 -0.5t-57 -1t-39.5 -0.5h-18q-4 0 -8.5 0.5t-8.5 2.5q-8 4 -10 13q-1 4 0 8q0 2 1 4.5t5.5 10t14.5 22t28 40.5q20 29 43.5 62.5t45.5 65.5v1q12 17 24.5 34.5t22.5 32t17 24.5t8 12l6 10l10 -3
l14 -4l11 -2v-12v-40.5t0.5 -68.5t1 -83.5t1.5 -84.5h41h35zM799 163q-1 54 -2 110t-1 99q-8 -10 -16 -22.5t-19 -26.5q-13 -19 -28 -40.5t-30 -43.5t-29 -42t-24 -35h46.5t63.5 1h39z" />
    <glyph glyph-name="onesuperior" unicode="&#xb9;" horiz-adv-x="425" 
d="M271 964q1 -26 1.5 -51t0.5 -45v-14h-14h-15h-14v14q0 10 -0.5 30t-0.5 40.5t-0.5 37t-0.5 19.5q-5 -5 -16 -14t-22 -17q-13 -10 -27 -21l-5 6l-10 12l-9 11l11 9q2 2 5 3.5t5 3.5q20 16 40 33.5t29 34.5l5 10l11 -3l14 -3l11 -3v-11q-1 -12 -0.5 -34t1.5 -48z" />
    <glyph glyph-name="twosuperior" unicode="&#xb2;" horiz-adv-x="424" 
d="M310 944q9 -11 8.5 -26.5t-6.5 -27.5q-6 -13 -20.5 -20.5t-32.5 -7.5h-4q-17 1 -30.5 5t-24.5 9q-2 -2 -5 -2.5t-5 -2.5q-8 -4 -18.5 -7t-21.5 -3t-23 5q-18 10 -22 25t1 28q5 12 17 20t26 8q7 0 15 -3q10 -3 18.5 -7.5t16.5 -9.5v-1q5 5 9.5 8.5t9.5 8.5q13 14 19.5 35
t-8.5 47q-5 7 -13 11t-17 5t-17.5 -1.5t-13.5 -7.5q-8 -8 -10.5 -19t0.5 -19l6 -12l-13 -6l-13 -6l-13 -6l-6 13q-12 25 -4 50q8 23 34 37q23 14 52 14q21 0 38 -7.5t26 -21.5q22 -32 17 -68q-5 -35 -32 -67q-2 -2 -4 -3.5t-4 -3.5q4 -3 14.5 -8t21.5 3q8 10 1 19q-4 4 -9 8
l15 12l15 13zM140 905q-3 -3 4 -7q1 0 2 -0.5t4 -0.5q8 0 20 5q-8 5 -16 8q-2 0 -3 0.5t-2 0.5q-7 0 -9 -6z" />
    <glyph glyph-name="threesuperior" unicode="&#xb3;" horiz-adv-x="417" 
d="M314 987q15 -20 12 -50q-3 -31 -20 -49q-13 -16 -38 -25q-23 -9 -46 -9q-21 0 -37 6q-47 17 -50 65l-1 14l14 1l15 1l14 1l1 -14q1 -19 21 -27q9 -4 23 -4q15 0 30.5 4t23.5 12q8 9 9 24t-6 24q-12 19 -37 19q-15 0 -29.5 -4t-31.5 -8l-5 10l-6 14l-2 3q16 9 31 18
q13 8 25.5 14.5t18.5 10.5q-2 0 -14.5 -1t-28 -2t-29.5 -2t-19 -1h-9h-14v14l1 15v14h14h8q23 0 47.5 1.5t53.5 1.5h48l2 -12l4 -14l2 -9l-7 -5q-5 -5 -20 -13.5t-24 -13.5q23 2 35 -5.5t21 -18.5z" />
    <glyph glyph-name="ordmasculine" unicode="&#xba;" horiz-adv-x="464" 
d="M333 994q4 -22 1.5 -44.5t-10.5 -40.5q-5 -11 -13.5 -23t-21.5 -19q-12 -8 -27 -10t-29 -2q-35 0 -56 23q-33 33 -28 90q2 21 7 37t9 24q10 22 31 35q21 12 46 12q27 0 48 -12q34 -20 43 -70zM235 888q27 1 37 12.5t14 22.5q5 13 6.5 30.5t-1.5 32.5q-2 7 -4 17.5
t-7.5 19.5t-14 15t-23.5 5q-23 -3 -39 -33q-2 -4 -5.5 -16.5t-5.5 -29.5q-1 -9 1 -22.5t7.5 -25.5t14 -20t20.5 -8z" />
    <glyph glyph-name="ordfeminine" unicode="&#xaa;" horiz-adv-x="411" 
d="M367 867l-14 -2h-9q-20 0 -38.5 7t-32.5 19q-9 9 -15 18l-4 -4q-20 -19 -47 -29.5t-55 -10.5q-33 0 -55 15q-25 17 -31 45q-14 48 19 95q13 18 28.5 30.5t26.5 17.5q14 7 30 11t32 4q36 0 60 -19q17 -14 25 -34l5 -2l14 -3l-4 -14q-2 -5 -3 -12q-3 -10 -6.5 -22.5
t-3.5 -26.5q0 -8 3 -16.5t10 -14.5q5 -5 14.5 -7t20.5 -3q12 -1 26 0l1 -14l2 -15zM244 1033q-3 3 -9.5 7.5t-16.5 7.5t-23.5 3t-28.5 -7q-28 -13 -50 -49q-7 -12 -9.5 -30t1.5 -33q5 -18 17.5 -24t23.5 -6q20 0 40.5 7.5t34.5 24.5q8 9 12 15t11 21q5 14 6.5 33t-9.5 30z
" />
    <glyph glyph-name="registered" unicode="&#xae;" horiz-adv-x="833" 
d="M504 246q4 -8 7.5 -16.5t7.5 -17.5l5 -13l-13 -6l-14 -5l-13 -6l-5 13q-4 9 -7.5 18t-6.5 17q-13 32 -24.5 58t-27.5 52q-6 -1 -12 -1.5t-12 -0.5q-17 0 -33 3v-36v-91v-19v-14h-14h-15h-14v14v19v91q0 20 -0.5 39.5t-0.5 38.5q-2 71 0 144l-2 4l-6 14l-5 12l12 6
q34 15 73 15q42 0 75 -18q53 -30 61 -90q4 -29 -5 -55q-8 -25 -30 -45q-11 -10 -29 -18q14 -26 25.5 -51.5t22.5 -54.5zM457 403q26 23 20 61q-3 24 -15.5 37.5t-23.5 20.5q-23 13 -54 13q-14 0 -29 -3q-2 -74 0 -147q16 -4 34 -4q43 0 68 22zM676 475q8 -26 11.5 -54
t1.5 -57q-3 -60 -25.5 -112t-60.5 -87q-42 -37 -92 -57q-48 -18 -99 -18q-80 0 -147 44q-47 30 -79.5 77t-46.5 104q-14 56 -6 110q7 56 37 104q46 73 111 111q60 34 126 34q62 0 122 -29q28 -14 52.5 -32.5t44.5 -41.5q34 -41 50 -96zM412 133q90 0 162 64q32 29 51 73
t21 96t-11.5 98t-41.5 79q-35 42 -84 65t-102 23q-21 0 -45.5 -5t-51 -19t-53 -38t-50.5 -63q-26 -40 -32 -87.5t5.5 -93.5t38.5 -87t69 -68q28 -19 59.5 -28t64.5 -9z" />
    <glyph glyph-name="copyright" unicode="&#xa9;" horiz-adv-x="833" 
d="M686 475q8 -26 11.5 -54t1.5 -57q-3 -60 -25.5 -112t-60.5 -87q-42 -37 -92 -57q-48 -18 -99 -18q-80 0 -147 44q-47 30 -79.5 77t-46.5 104q-14 56 -6 110q7 56 37 104q46 73 111 111q60 34 126 34q62 0 122 -29q28 -14 52.5 -32.5t44.5 -41.5q34 -41 50 -96zM656 366
q2 52 -11.5 98t-41.5 79q-35 42 -84 65t-102 23q-21 0 -45.5 -5t-51 -19t-53 -38t-50.5 -63q-26 -40 -32 -87.5t5.5 -93.5t38.5 -87t69 -68q28 -19 59.5 -28t64.5 -9q90 0 162 64q32 29 51 73t21 96zM555 309l12 -6l-5 -12q-17 -36 -50 -58t-76 -26h-15q-38 0 -70 15.5
t-51 42.5q-35 51 -33 116q0 59 33 109q34 51 90 66q20 7 45 7q14 0 28 -2.5t28 -7.5q28 -10 44 -37q14 -27 10 -58l-1 -14l-14 1l-15 2l-14 2l2 13q5 39 -27 50q-21 8 -42 8q-9 0 -21 -2t-25 -7.5t-26.5 -16t-25.5 -28.5q-11 -17 -18.5 -38.5t-8.5 -44.5t5.5 -47.5
t21.5 -46.5q13 -18 35 -28.5t50 -10.5h12q31 3 54.5 18.5t34.5 39.5l6 13l13 -6z" />
    <glyph glyph-name="multiply" unicode="&#xd7;" horiz-adv-x="615" 
d="M541 144l-5 -14l-4 -14l-13 4l-5 2.5t-10.5 8t-21 19t-36.5 35.5q-50 49 -130 130q-26 -27 -50.5 -53.5t-46.5 -50.5q-30 -32 -52 -56t-30 -33l-9 -11l-11 9l-11 10l-11 9l9 11q9 10 31 34t52 56q22 23 47 50t51 56q-32 33 -62 64t-54.5 56.5t-42.5 44t-25 26.5l-9 11
l10 9l11 10l11 9l9 -10q7 -8 24.5 -26t41.5 -43t53.5 -55.5t61.5 -63.5q150 163 180 205l8 12l11 -8l13 -9l11 -8l-8 -12q-17 -23 -61.5 -74.5t-122.5 -136.5l86 -86l57 -57t33 -32t14 -12l-7 -12l5 -1z" />
    <glyph glyph-name="divide" unicode="&#xf7;" horiz-adv-x="699" 
d="M623 375l-1 -14l-1 -15l-1 -14h-14q-38 3 -151 3q-53 0 -110.5 -0.5t-106.5 -0.5h-1q-39 -1 -71.5 -1h-54.5h-30h-14l1 14v15v14h14h28q80 0 162.5 1t182.5 1q113 0 154 -3h14zM268 530v2l1 1q3 29 26 49q24 21 53 21q14 0 26 -6q23 -9 35 -29q14 -20 12 -44
q-1 -23 -13 -41t-32 -25q-11 -3 -20 -5t-18 -2q-29 0 -49 20q-17 17 -20 46v1zM304 530q0 -23 11 -34q9 -9 23 -9q6 0 12 1.5l14 3.5q19 8 21 33q1 13 -6 23.5t-19 15.5q-6 3 -12 3q-15 0 -28 -11t-16 -26zM374 255q23 -9 35 -29q14 -20 12 -44q-1 -23 -13 -41t-32 -25
q-11 -3 -20 -5t-18 -2q-29 0 -49 20q-17 17 -20 46v1l-1 12v2l1 1q3 29 26 49q24 21 53 21q14 0 26 -6zM304 188q0 -23 11 -34q9 -9 23 -9q6 0 12 1.5l14 3.5q19 8 21 34q1 13 -6 23t-19 15q-6 3 -12 3q-15 0 -28 -11t-16 -26z" />
    <glyph glyph-name="scaron" unicode="&#x161;" 
d="M888 -29q-38 0 -66 15t-42 42q-7 13 -7.5 32t10.5 33q4 5 13.5 12t24.5 12t36.5 6.5t48.5 -3.5q42 -8 77.5 -23t73.5 -26q4 3 7 6t8 7q19 18 33.5 43t22 52t5.5 53t-16 47q-18 27 -44 38.5t-54.5 13.5t-58.5 -1t-55 -4q-63 -4 -123 -13t-117 -19q-89 -15 -173.5 -35.5
t-167 -43.5t-163 -46.5t-161.5 -45.5l-13 42q85 23 168.5 47t166.5 47t167 43t169 35q63 11 123 20t120 13q35 2 71 4t69 -3t62 -20t51 -48q18 -27 22 -62t-7 -73q-8 -32 -25.5 -62.5t-40.5 -52.5q44 -15 93.5 -25t115.5 -8q63 2 139 17t156.5 36t160.5 46t152 46l13 -42
q-75 -23 -155.5 -48t-161 -46.5t-158 -36t-145.5 -16.5q-80 -2 -139 12t-110 33q-36 -26 -76 -37t-97 -13h-3zM816 50q1 -12 10 -19t20.5 -11t23.5 -4.5t20 -0.5q41 1 70 6.5t54 19.5q-29 11 -57.5 21t-58.5 15q-9 2 -23.5 4t-28 0.5t-22.5 -8.5t-8 -23zM1142 865l-5 -13
q-1 -2 -3.5 -6.5t-10 -15t-21 -29t-37.5 -46.5q-12 -15 -23.5 -28t-20.5 -23.5t-15 -17t-6 -7.5l-16 -19l-5 -6l-15 20q-7 9 -15.5 20t-18.5 24q-14 17 -28 36.5t-27 37.5t-23.5 32l-16.5 22l-9 11l10 9l12 10l11 9l9 -11q7 -8 17.5 -23t24.5 -34q12 -17 26 -36t26 -35
q6 -8 11 -13.5t8 -9.5q14 16 31 36t33 39t25.5 32t15.5 21t8 11.5t3 5.5l5 13l13 -5l14 -6z" />
    <glyph glyph-name="trademark" unicode="&#x2122;" horiz-adv-x="756" 
d="M551 1066q3 -30 4.5 -60t2 -56.5t0.5 -48v-33.5v-1v-7v-14h-14h-15h-14v14v7v1v22v31.5t-0.5 36.5t-0.5 37q-7 -17 -12 -31q-5 -13 -9.5 -25l-7.5 -20l-4 -8h-9h-14h-9l-4 8q-2 4 -5 12t-6.5 18.5t-8.5 21.5t-9 20q-2 -32 -1.5 -68.5t0.5 -64.5v-14h-14h-15h-14v14
q0 38 1 81t4 89l-13 -1q-6 -1 -16.5 -1h-27.5h-21q1 -4 1 -9.5v-9.5v-37.5v-42v-43.5t-1 -40l-43 2q1 18 1 39v42.5v42v36.5v10.5t-1 9.5h-11.5h-15.5t-15.5 -0.5t-10.5 -0.5l-14 -3l-3 10l-2 15l-2 14l13 2q8 1 21.5 1.5t38.5 0.5h34h31h21.5t18.5 1l14 1l1 -14l2 -15v-9
q1 5 1 10t1 10v19l35 2q12 -23 23 -43q9 -18 17 -36.5t12 -29.5q1 5 6.5 19t12.5 31t14 33.5t11 26.5l4 11l11 -2l14 -2l11 -1z" />
    <glyph glyph-name="bullet" unicode="&#x2022;" horiz-adv-x="443" 
d="M298 384q15 -25 14 -54q-1 -27 -16 -49t-39 -30q-24 -9 -46 -9q-38 0 -59 24q-30 32 -24 78q4 37 33 61q26 21 62 21q18 0 32 -7q27 -10 43 -35z" />
    <glyph glyph-name="perthousand" unicode="&#x2030;" horiz-adv-x="1138" 
d="M919 759l-12 -7q-2 -1 -8 -6t-19.5 -16.5t-35 -31t-54.5 -49.5q-48 -44 -106.5 -98t-118.5 -110h-1q-88 -81 -173 -160t-157 -144q-54 -50 -91 -82t-58 -49q-18 -15 -24.5 -18.5t-11.5 -4.5l-14 -2l-2 14l-2 14l9 2h3l-5 13q1 1 11.5 8.5t40.5 33.5q21 19 50.5 45
t68.5 61q71 65 155.5 143t170.5 157v1q78 71 139.5 127.5t106.5 98.5q32 29 52 46.5t31 27t16 13t7 4.5l12 7l7 -13l6 -13zM112 460q-27 46 -30 107q-2 53 15 104q13 38 34 64q21 28 47 39q30 11 56 11q44 0 76 -28q34 -28 50 -75q12 -32 15.5 -68.5t-1.5 -71.5
q-12 -79 -59 -120q-39 -33 -85 -33q-35 0 -66.5 19t-51.5 52zM234 742q-9 0 -19 -1.5t-21 -6.5q-16 -7 -31 -27.5t-25 -49.5q-16 -47 -13 -93t24 -82q14 -23 35.5 -36.5t45.5 -13.5q30 0 57 22q35 32 44 94q5 30 2 61t-13 58q-4 10 -10.5 23.5t-17 24.5t-25 19t-33.5 8z
M683 338q34 -28 50 -75q12 -32 15.5 -68.5t-1.5 -71.5q-12 -79 -59 -120q-38 -32 -85 -32q-35 0 -66 18.5t-51 52.5q-28 46 -31 106q-2 53 15 104q7 18 15 34.5t19 30.5q21 27 47 38q14 6 28 8.5t28 2.5q44 0 76 -28zM660 35q35 30 44 94q5 30 2 61t-13 58q-4 10 -10.5 23.5
t-17 24.5t-25 19t-33.5 8q-9 0 -19 -1.5t-21 -6.5q-16 -6 -31 -27t-25 -50q-16 -47 -13 -93t25 -82q14 -23 35 -36t45 -13q31 0 57 21zM1022 338q34 -28 50 -75q12 -32 15.5 -68.5t-1.5 -71.5q-12 -79 -59 -120q-38 -32 -85 -32q-35 0 -66 18.5t-51 52.5q-28 46 -31 106
q-2 53 15 104q7 18 15 34.5t19 30.5q21 27 47 38q14 6 28 8.5t28 2.5q44 0 76 -28zM999 35q35 30 44 94q5 30 2 61t-13 58q-4 10 -10.5 23.5t-17 24.5t-25 19t-33.5 8q-9 0 -19 -1.5t-21 -6.5q-16 -6 -31 -27t-25 -50q-16 -47 -13 -93t25 -82q14 -23 35 -36t45 -13
q31 0 57 21z" />
    <glyph glyph-name="percent" horiz-adv-x="1032" 
d="M1010 759l-12 -7q-2 -1 -8 -6t-19.5 -16.5t-35 -31t-54.5 -49.5q-48 -44 -106.5 -98t-118.5 -110h-1q-88 -81 -173 -160t-157 -144q-54 -50 -91 -82t-58 -49q-18 -15 -24.5 -18.5t-11.5 -4.5l-14 -2l-2 14l-2 14l9 2h3l-5 13q1 1 11.5 8.5t40.5 33.5q21 19 50.5 45
t68.5 61q71 65 155.5 143t170.5 157v1q78 71 139.5 127.5t106.5 98.5q32 29 52 46.5t31 27t16 13t7 4.5l12 7l7 -13l6 -13zM203 460q-27 46 -30 107q-2 53 15 104q13 38 34 64q21 28 47 39q30 11 56 11q44 0 76 -28q34 -28 50 -75q12 -32 15.5 -68.5t-1.5 -71.5
q-12 -79 -59 -120q-39 -33 -85 -33q-35 0 -66.5 19t-51.5 52zM325 742q-9 0 -19 -1.5t-21 -6.5q-16 -7 -31 -27.5t-25 -49.5q-16 -47 -13 -93t24 -82q14 -23 35.5 -36.5t45.5 -13.5q30 0 57 22q35 32 44 94q5 30 2 61t-13 58q-4 10 -10.5 23.5t-17 24.5t-25 19t-33.5 8z
M847 338q34 -28 50 -75q12 -32 15.5 -68.5t-1.5 -71.5q-12 -79 -59 -120q-38 -32 -85 -32q-35 0 -66 18.5t-51 52.5q-28 46 -31 106q-2 53 15 104q7 18 15 34.5t19 30.5q21 27 47 38q14 6 28 8.5t28 2.5q44 0 76 -28zM824 35q35 30 44 94q5 30 2 61t-13 58q-4 10 -10.5 23.5
t-17 24.5t-25 19t-33.5 8q-9 0 -19 -1.5t-21 -6.5q-16 -6 -31 -27t-25 -50q-16 -47 -13 -93t25 -82q14 -23 35 -36t45 -13q31 0 57 21z" />
    <glyph glyph-name="ring" unicode="&#x2da;" horiz-adv-x="266" 
d="M185 532q19 -20 17 -50q-2 -11 -6.5 -21.5t-13.5 -18.5q-17 -15 -41 -15q-19 0 -35 9q-14 8 -22 27t-5 38q1 4 3 11t7.5 14.5t15.5 13.5t25 9q8 2 12 2q26 0 43 -19zM142 515q-1 0 -2 -0.5t-3 -0.5q-15 -3 -18.5 -9.5t-4.5 -9.5q-2 -10 3 -18t7 -10q7 -4 17 -4q8 0 16 5
t9 17q0 6 -1.5 12t-6.5 11q-7 7 -16 7z" />
    <glyph glyph-name="aring" unicode="&#xe5;" 
d="M1931 123q-79 -23 -161.5 -46.5t-162.5 -43.5t-155 -35t-139 -21q-5 -1 -9 -1h-9q-35 0 -68.5 13t-59.5 36q-14 13 -25.5 29.5t-14.5 33.5q-5 -10 -12 -19t-15 -17q-38 -35 -89 -55.5t-103 -20.5q-60 0 -100.5 28t-53.5 77q-12 45 -2.5 89t38.5 86q7 10 18 20.5
t23.5 20.5t26.5 18.5t27 14.5q-106 -11 -211 -30.5t-208.5 -45t-205 -54.5t-198.5 -58q-16 -5 -31.5 -9.5t-31.5 -9.5l-13 42q17 5 32.5 9.5t31.5 9.5q115 34 228 66t229 58t237 43.5t252 22.5h12q66 0 109 -34q37 -29 49 -77l25 -6q-2 -5 -3.5 -11t-3.5 -13
q-7 -21 -14 -48.5t-7 -56.5q0 -26 11 -43t22 -28q22 -20 52.5 -30t59.5 -7q63 6 137 21t153 35t160.5 43t159.5 46zM1070 84q42 41 55 96q0 2 0.5 3.5t0.5 3.5q3 20 2 36q-2 54 -38 83q-30 24 -82 24q-51 0 -95 -22q-15 -8 -39 -26.5t-45 -46t-32.5 -64t-0.5 -78.5
q6 -24 20.5 -38.5t31.5 -22t33 -9.5t27 -2q44 0 87 17t75 46zM1395 880q19 -20 17 -50q-2 -11 -6.5 -21.5t-13.5 -18.5q-17 -15 -41 -15q-19 0 -35 9q-14 8 -22 27t-5 38q1 4 3 11t7.5 14.5t15.5 13.5t25 9q8 2 12 2q26 0 43 -19zM1352 863q-1 0 -2 -0.5t-3 -0.5
q-15 -3 -18.5 -9.5t-4.5 -9.5q-2 -10 3 -18t7 -10q7 -4 17 -4q8 0 16 5t9 17q0 6 -1.5 12t-6.5 11q-7 7 -16 7z" />
    <glyph glyph-name="Aring" unicode="&#xc5;" 
d="M1931 123q-79 -23 -161.5 -46.5t-162.5 -43.5t-155 -35t-139 -21q-5 -1 -9 -1h-9q-35 0 -68.5 13t-59.5 36q-14 13 -25.5 29.5t-14.5 33.5q-5 -10 -12 -19t-15 -17q-38 -35 -89 -55.5t-103 -20.5q-60 0 -100.5 28t-53.5 77q-12 45 -2.5 89t38.5 86q7 10 18 20.5
t23.5 20.5t26.5 18.5t27 14.5q-106 -11 -211 -30.5t-208.5 -45t-205 -54.5t-198.5 -58q-16 -5 -31.5 -9.5t-31.5 -9.5l-13 42q17 5 32.5 9.5t31.5 9.5q115 34 228 66t229 58t237 43.5t252 22.5h12q66 0 109 -34q37 -29 49 -77l25 -6q-2 -5 -3.5 -11t-3.5 -13
q-7 -21 -14 -48.5t-7 -56.5q0 -26 11 -43t22 -28q22 -20 52.5 -30t59.5 -7q63 6 137 21t153 35t160.5 43t159.5 46zM1070 84q42 41 55 96q0 2 0.5 3.5t0.5 3.5q3 20 2 36q-2 54 -38 83q-30 24 -82 24q-51 0 -95 -22q-15 -8 -39 -26.5t-45 -46t-32.5 -64t-0.5 -78.5
q6 -24 20.5 -38.5t31.5 -22t33 -9.5t27 -2q44 0 87 17t75 46zM1413 786q19 -20 17 -50q-2 -11 -6.5 -21.5t-13.5 -18.5q-17 -15 -41 -15q-19 0 -35 9q-14 8 -22 27t-5 38q1 4 3 11t7.5 14.5t15.5 13.5t25 9q8 2 12 2q26 0 43 -19zM1370 769q-1 0 -2 -0.5t-3 -0.5
q-15 -3 -18.5 -9.5t-4.5 -9.5q-2 -10 3 -18t7 -10q7 -4 17 -4q8 0 16 5t9 17q0 6 -1.5 12t-6.5 11q-7 7 -16 7z" />
    <glyph glyph-name="dagger" unicode="&#x2020;" horiz-adv-x="500" 
d="M505 524v-14v-15v-14h-13q-23 -1 -65.5 -1h-96.5h-57q0 -13 -0.5 -25.5t-0.5 -24.5q0 -5 -1 -42.5t-2 -93.5t-2 -123.5t-0.5 -133t2 -122.5t5.5 -92l2 -15l-15 -1l-15 -1l-13 -1l-2 13q-5 33 -7 87t-2.5 116.5t1 128.5t3 123t2.5 99t1 58q0 13 0.5 25t0.5 25
q-31 0 -55.5 -0.5t-44.5 -0.5h-1q-30 0 -49.5 -1t-31 -1.5t-16.5 -1.5t-6 -1l-8 -6l-8 8l-11 10l-8 7l5 9q5 9 15.5 12t33.5 5q28 3 77 3q22 0 48.5 0.5t59.5 0.5q1 51 1.5 109t1 115t0.5 108.5v90.5q0 43 -0.5 76t-1.5 57q-1 37 -2 47.5t-2 12.5l-5 13l14 5l14 5l12 5
l5 -12q2 -4 3.5 -13t2.5 -33t1.5 -67.5t0.5 -117.5v-88.5v-105t-0.5 -108.5t-1.5 -99h57h95.5t65.5 1h14z" />
    <glyph glyph-name="daggerdbl" unicode="&#x2021;" horiz-adv-x="500" 
d="M504 579v-14v-15v-14h-13q-23 -1 -65.5 -1h-96.5h-57v-25.5t-1 -24.5v-44h58q26 -1 50.5 -1h45.5h37.5t27.5 1h14v-14v-15v-14h-13q-11 -1 -28 -1h-38h-45.5t-50.5 1h-59q-1 -98 -1.5 -191.5t-0.5 -171t1 -134t4 -78.5l2 -15l-15 -1l-15 -1l-13 -1l-2 13q-3 24 -4 80.5
t-1 135t0.5 172.5t1.5 192q-30 0 -54 -0.5t-44 -0.5q-30 -1 -49.5 -1.5t-31 -1.5t-16.5 -1.5t-7 -0.5l-8 -5l-8 6l-11 9l-8 7l4 9q5 11 16.5 14t33.5 5h1q26 1 76 3q22 0 48 0.5t59 0.5v44q0 13 0.5 25t0.5 25q-31 0 -55.5 -0.5t-44.5 -0.5h-1q-30 0 -49.5 -1t-31 -1.5
t-16.5 -1.5t-6 -1l-8 -6l-8 8l-11 10l-8 7l5 9q5 9 15.5 12t33.5 5q28 3 77 3q22 0 48.5 0.5t59.5 0.5q2 103 2.5 196.5t0.5 171.5q0 43 -0.5 76t-1.5 57q-1 37 -2 47.5t-2 12.5l-5 13l14 5l14 5l12 5l5 -12q2 -4 3.5 -13t2.5 -33t1.5 -67.5t0.5 -117.5v-166t-2 -180h57
h95.5t65.5 1h14z" />
    <glyph glyph-name="logicalnot" unicode="&#xac;" horiz-adv-x="510" 
d="M441 383l-1 -13v-4v-2v-18.5t-1 -21.5q-1 -8 -1 -17v-12v-14h-14h-15h-14v14v24t2 24q-14 0 -30.5 0.5t-39.5 0.5q-34 0 -71 -0.5t-69 -1.5h-1h-82h-19h-14l1 14v15v14h14h18q52 0 105 1t118 1q74 0 101 -3z" />
    <glyph glyph-name="macron" unicode="&#xaf;" horiz-adv-x="833" 
 />
    <glyph glyph-name="brokenbar" unicode="&#xa6;" horiz-adv-x="503" 
d="M246 1086q-1 32 -2 42t-1 12l-5 13l13 5l14 5l14 4l4 -13q2 -5 3 -15t3 -37q1 -29 1.5 -72.5t0.5 -105.5q0 -72 -0.5 -155t-1.5 -160v-14h-14h-15h-14v14q0 44 0.5 90.5t1 92t0.5 89.5v83t-0.5 69t-1.5 53zM287 351q-1 -90 -1.5 -176t-0.5 -157.5t1 -122.5t3 -72l2 -14
l-14 -2l-15 -1l-14 -2l-1 14q-3 21 -4 67.5t-1 115t0.5 157.5t1.5 194v13h14h15h14v-14z" />
    <glyph glyph-name="Oslash" unicode="&#xd8;" 
d="M1934 123q-68 -20 -142 -35.5t-152 -26t-157 -16t-157 -5.5q-127 0 -209 27q-3 -4 -6.5 -8t-8.5 -8q-37 -35 -88.5 -55.5t-103.5 -20.5q-60 0 -100.5 28t-53.5 77q-12 45 -2.5 89.5t38.5 86.5q7 10 18.5 21t25 21t27 18t24.5 13q-106 -11 -211 -30.5t-208.5 -45
t-205 -54.5t-199.5 -58l-63 -18l-13 41q17 5 32.5 9.5t31.5 9.5q115 34 227.5 66t227 58t235 43.5t251.5 22.5h18q68 0 109 -33q26 -20 39.5 -50t15.5 -66q2 -31 -6 -61.5t-24 -58.5q75 -20 182 -20q76 0 154 5.5t154 15.5t149 25t139 35zM1019 231q0 -74 83 -111
q31 47 29 102q-1 20 -6.5 36t-14.5 29q-6 6 -22.5 11.5t-33.5 -2.5q-12 -6 -23.5 -21t-11.5 -44zM910 20q44 0 87 17t75 47q1 0 1 1q-98 49 -98 146q0 17 5.5 33.5t16 30t25.5 21.5t33 8q-13 3 -26.5 4.5t-18.5 1.5q-51 0 -95 -23q-15 -8 -39 -26.5t-45 -46t-32.5 -64
t-0.5 -78.5q6 -24 20.5 -38.5t31.5 -22t33 -9.5t27 -2zM1126 1145l-1 -14q-2 -14 -14.5 -73.5t-31.5 -148.5t-43.5 -199t-49.5 -225t-50 -226.5t-45.5 -203.5t-35 -156t-19.5 -84l-3 -13l-13 3l-15 4l-14 3l4 14q5 19 19.5 83t34.5 155.5t45 203t50 226t49 224t43.5 198.5
t31.5 148t14 73l2 14l14 -2l15 -2z" />
    <glyph glyph-name="Eth" unicode="&#xd0;" horiz-adv-x="958" 
d="M784 595q26 -90 26 -181t-25 -174q-26 -85 -73 -145.5t-110 -92.5q-68 -34 -172 -34q-31 0 -59 2.5t-49 6t-34 6l-13 2.5l-6 2l-11 2v11v6v62v1q-1 30 -1.5 70.5t-1.5 89t-1.5 102t-0.5 109.5q-34 -1 -55 -2t-33 -2t-16.5 -1.5t-5.5 -0.5l-13 -5l-5 13l-5 14l-5 13l13 5
q2 1 6.5 2t17 2t36.5 2.5t65 2.5q0 19 -0.5 36.5t-0.5 34.5v185.5t2 121.5q1 37 2.5 47.5t2.5 13.5l2 4l3 8l8 2h4q1 1 17 2.5t42 1.5q45 0 107 -11t127 -46q158 -88 215 -288zM430 11q92 0 152 29q56 28 97.5 83t64.5 131q23 77 22.5 161.5t-23.5 167.5q-20 71 -52 122
t-69 86t-77.5 55.5t-79 32t-72.5 15t-58 3.5q-11 0 -20 -0.5t-16 -0.5q-1 -11 -1.5 -33.5t-1.5 -62t-1 -99.5v-147q0 -17 0.5 -34.5t0.5 -35.5h19q30 1 60.5 1.5t55.5 1t43.5 0.5h24.5h14v-14v-15v-14h-14h-36.5t-49.5 -0.5t-57.5 -1t-59.5 -1.5q0 -56 0.5 -109.5t1.5 -102
t1.5 -89.5t1.5 -71v-1v-44q18 -4 52.5 -8.5t76.5 -4.5z" />
    <glyph glyph-name="eth" unicode="&#xf0;" horiz-adv-x="885" 
d="M697 373q0 -38 -3 -81t-12.5 -86.5t-27 -84.5t-45.5 -74q-33 -39 -92 -64q-55 -23 -116 -23q-11 0 -23 1t-23 3q-49 9 -85 36q-17 14 -30 31.5t-21 39.5q-12 31 -15 64t3 64t21 60q7 15 16.5 28.5t20.5 26.5q18 21 46 37.5t62 26.5q45 14 89 14q29 0 55 -6q58 -12 99 -50
q11 -8 19 -18.5t16 -21.5q3 36 3 77q-1 40 -5 82t-11.5 82.5t-18 78t-22.5 69.5q-24 60 -54 114q-33 -29 -62.5 -55.5t-42.5 -42.5l-9 -11l-11 9l-11 9l-11 9l8 11q14 17 44.5 44.5t72.5 63.5q-140 223 -359 280l-14 4l3 13l4 15l4 13l13 -3q173 -46 300 -186
q22 -25 42.5 -52t39.5 -56q2 2 3 2v1q32 26 59.5 50t34.5 33l9 11l11 -9l12 -10l10 -8l-8 -11q-10 -12 -36.5 -35t-63.5 -54q-2 -2 -4 -3.5t-4 -3.5q34 -60 60 -126q13 -33 24 -72.5t18.5 -82.5t12 -87t5.5 -86zM402 3q51 0 99 19.5t75 51.5q45 54 65 145q-11 32 -26.5 54.5
t-33.5 36.5t-37 22t-36 12q-23 5 -46 5q-40 0 -76 -12q-29 -8 -52 -21.5t-37 -29.5q-38 -43 -48 -95t10 -105q7 -20 19.5 -34t26.5 -23.5t29 -14.5t29 -8q18 -3 39 -3z" />
    <glyph glyph-name="Thorn" unicode="&#xde;" horiz-adv-x="632" 
d="M523 294q19 -46 13 -96q-2 -26 -10.5 -50.5t-22.5 -47.5q-27 -43 -70 -73q-19 -13 -39 -23t-43 -17q-45 -14 -86 -14h-1q-28 0 -52 6v-346v-9v-173v-14h-14h-15h-14v14v173v1v167.5v200t-0.5 216.5t-0.5 216.5v199.5v166.5t0.5 117t0.5 51.5l1 14l14 -1l15 -1l14 -1
l-1 -13q-1 -12 -1 -169.5v-458.5q8 6 15.5 11t15.5 10q23 12 48.5 20t53.5 10q6 1 12 1.5t13 0.5q47 0 85 -18q23 -11 40.5 -29.5t28.5 -41.5zM494 202q4 40 -10 74q-16 35 -48 50q-30 14 -67 14q-5 0 -10.5 -0.5t-10.5 -0.5q-48 -5 -85 -26q-24 -13 -50 -37l-2 -2v-119.5
t1 -130.5q24 -8 52 -8h1q35 0 73 12q39 12 70 34q36 25 58 61q23 37 28 79z" />
    <glyph glyph-name="thorn" unicode="&#xfe;" horiz-adv-x="790" 
d="M673 412q22 -58 16 -130q-6 -70 -40 -133q-32 -59 -83 -101q-42 -35 -98 -55q-54 -20 -104 -20h-1q-18 0 -35 2.5t-33 7.5q0 -96 0.5 -181t0.5 -156v-13v-7v-175v-14h-14h-15h-14v14v175v7q0 77 -0.5 176.5t-0.5 211v228v227.5v210v175t0.5 123.5t0.5 54.5l1 14l14 -1
l15 -1l14 -1l-1 -14q-1 -11 -1 -156.5v-424.5q21 19 42 33q56 36 123 43q8 1 15 1.5t15 0.5q58 0 103 -25q26 -15 47 -39.5t33 -56.5zM364 16q43 0 89 17q45 16 86 49q45 36 72 87q14 27 23 57t12 60t-0.5 58t-12.5 52q-20 51 -61 74q-35 20 -82 20q-6 0 -12.5 -0.5
t-13.5 -1.5q-58 -6 -103 -36q-33 -22 -62 -54l-4 -4v-365q32 -13 68 -13h1z" />
    <glyph glyph-name="section" unicode="&#xa7;" horiz-adv-x="939" 
d="M743 -219q47 -62 60 -137q14 -74 -3 -161q-10 -59 -47 -114q-35 -52 -87 -89q-47 -34 -100 -52q-55 -19 -106 -19q-7 0 -13 0.5t-13 1.5q-57 5 -108 26.5t-92 57.5q-46 42 -72 97.5t-31 122.5l-1 14l14 1l15 1l14 1l1 -14q5 -67 31 -115.5t63.5 -80t82 -48.5t87.5 -21
q6 0 11.5 -0.5t11.5 -0.5q51 0 100.5 19t90 52t69 76.5t37.5 91.5q30 160 -49 264q-87 113 -298 168q-86 23 -146 69q-27 20 -48 45.5t-37 54.5q-33 63 -36 140q-1 32 4 64.5t16 62.5q11 32 36.5 65t59.5 59q50 39 107 58q-57 22 -102 55q-53 41 -85 101q-33 63 -36 139
q-1 33 4 65.5t16 61.5q11 31 38 61t65 56q39 26 83.5 41.5t89.5 19.5q7 1 14 1.5t14 0.5q65 0 119 -27q77 -37 123 -119l7 -13l-12 -7l-13 -7l-12 -7l-7 12q-71 125 -205 125q-6 0 -12 -0.5t-12 -1.5q-41 -3 -80.5 -17.5t-74.5 -37.5q-32 -21 -54.5 -46t-30.5 -48
q-8 -22 -12.5 -49.5t-4 -58t7.5 -62.5t23 -62q56 -108 204 -148q116 -31 194 -76q81 -46 127 -107q23 -31 38 -65.5t22 -72.5q14 -72 -3 -161q-15 -82 -68 -145q-36 -45 -84 -73q59 -40 95 -88zM758 95q30 161 -49 265q-77 101 -261 157h-3q-55 -8 -94.5 -28.5t-63.5 -39.5
q-30 -23 -51.5 -50.5t-31.5 -54.5q-8 -22 -12.5 -49.5t-4 -58t7.5 -62t23 -62.5q58 -109 204 -147q53 -14 99 -31.5t84 -38.5q29 13 54 33.5t45 47t34 56.5t20 63z" />
    <glyph glyph-name="breve" unicode="&#x2d8;" horiz-adv-x="476" 
d="M318 875q22 -23 31 -51.5t3 -56.5q-6 -26 -25.5 -45.5t-48.5 -30.5q-24 -9 -49 -9q-19 0 -32 4q-38 11 -59 40q-22 32 -21 68q2 40 29 75l8 12l11 -9l12 -9l11 -8l-8 -11q-21 -28 -19.5 -52.5t12.5 -39.5q5 -6 18 -16.5t38 -10.5q17 0 35 6q38 14 46 46q4 17 -2.5 35
t-20.5 33l-10 10l10 10l11 10l10 10z" />
    <glyph glyph-name="greater" unicode="&#x3e;" horiz-adv-x="793" 
d="M719 460l-13 -12l-7 -7v-1h-1q-2 -2 -10 -9t-21 -19q-20 -17 -49.5 -43t-65 -56.5t-74 -63.5t-77.5 -66q-43 -37 -78 -66t-62 -51q-22 -18 -36.5 -29t-23.5 -17.5t-14 -9.5t-8 -4l-13 -6l-5 13l-6 14l-6 13l13 5q3 1 12 7.5t31 23.5t60.5 48.5t98.5 82.5q36 31 74.5 64
t75.5 65t71 62t63 56q-25 15 -69 43t-97 61.5t-110.5 69t-108 67t-89.5 55t-55 33.5l-11 7l6 12l7 13l7 13l13 -7q16 -10 52.5 -32.5t84.5 -52.5t103 -64t107 -66.5t96.5 -61t72.5 -45.5q17 -11 28.5 -18t18.5 -12z" />
    <glyph glyph-name="less" unicode="&#x3c;" horiz-adv-x="779" 
d="M704 34l-6 -12l-7 -13l-7 -13l-13 7q-16 10 -52.5 32.5t-84.5 52.5t-103 64t-107 66.5t-96.5 60.5t-72.5 46q-17 11 -27.5 17.5t-11.5 6.5v1l-8 5l-15 9l13 12l7 7v1q2 2 10 9t22 18q20 18 49.5 43.5t64.5 56.5t74 64l78 66q43 37 78 66t61 51q44 35 60.5 46.5t22.5 13.5
l13 6l5 -13l6 -14l6 -13l-13 -5l-12 -8t-31 -23.5t-60.5 -48.5t-98.5 -82q-36 -31 -74.5 -64t-75.5 -65.5t-71.5 -62.5t-62.5 -55q24 -16 68 -43.5t97.5 -61t110.5 -69t108 -67t89.5 -55.5t55.5 -33z" />
    <glyph glyph-name="guilsinglright" unicode="&#x203a;" horiz-adv-x="633" 
d="M164 444l7 12l7 13l7 12l12 -7q38 -22 78.5 -50t85.5 -63q16 -12 39.5 -32t45.5 -42q25 -25 40 -46q19 -27 19 -43q0 -19 -19 -45q-11 -18 -35 -45q-21 -23 -41.5 -43t-30.5 -28q-8 -7 -15.5 -13.5t-15.5 -13.5q-27 -23 -54.5 -46t-56.5 -43q-1 -1 -2 -1q-2 -2 -5 -4
t-7 -4l-13 -6l-6 13l-6 14l-6 13l13 5l3 1.5t3 2.5l2 1q28 19 54 41t52 45q8 7 16 13.5t16 13.5q9 8 28.5 26.5t39.5 41.5q29 32 35.5 45.5t7.5 15.5q-1 2 -7.5 13.5t-33.5 39.5q-18 19 -40.5 39t-45.5 37q-88 67 -159 110z" />
    <glyph glyph-name="guilsinglleft" unicode="&#x2039;" horiz-adv-x="554" 
d="M450 -56l-8 -13l-7 -12l-7 -13l-12 8q-38 22 -78.5 49.5t-85.5 62.5q-16 13 -39.5 33t-45.5 42q-13 13 -22.5 24t-17.5 21q-18 27 -18 44q0 9 4 20t14 25q12 19 35 44q21 24 41.5 43.5t31.5 28.5q8 7 15.5 13.5t15.5 13.5q26 23 53.5 46t56.5 43q1 0 1 0.5t1 0.5
q2 2 5 3.5l7 3.5l13 6l6 -13l6 -13l6 -13l-13 -6q-1 0 -2 -1t-3 -2q-1 -1 -1.5 -1t-1.5 -1q-28 -19 -54 -41l-52 -44l-16 -14l-16 -14q-9 -8 -28.5 -26.5t-39.5 -40.5q-29 -32 -35.5 -45.5t-6.5 -15.5t6.5 -13.5t33.5 -39.5q18 -19 40.5 -39t45.5 -38q45 -34 84 -61t75 -48z
" />
    <glyph glyph-name="guillemotright" unicode="&#xbb;" horiz-adv-x="686" 
d="M93 444l7 12l7 13l7 12l12 -7q38 -22 78.5 -50t85.5 -63q16 -12 39.5 -32t45.5 -42q25 -25 40 -46q19 -27 19 -43q0 -19 -19 -45q-11 -18 -35 -45q-21 -23 -41.5 -43t-30.5 -28q-8 -7 -15.5 -13.5t-15.5 -13.5q-27 -23 -54.5 -46t-56.5 -43q-1 -1 -2 -1q-2 -2 -5 -4
t-7 -4l-13 -6l-6 13l-6 14l-6 13l13 5l6 4l2 1q28 19 54 41t52 45q8 7 16 13.5t16 13.5q9 8 28.5 26.5t39.5 41.5q29 32 35.5 45.5t6.5 15.5t-6.5 13.5t-33.5 39.5q-18 19 -40.5 39t-45.5 37q-88 67 -159 110zM260 444l7 12l7 13l7 12l12 -7q38 -22 78.5 -50t85.5 -63
q16 -12 39.5 -32t45.5 -42q25 -25 40 -46q19 -27 19 -43q0 -19 -19 -45q-11 -18 -35 -45q-21 -23 -41.5 -43t-30.5 -28q-8 -7 -15.5 -13.5t-15.5 -13.5q-27 -23 -54.5 -46t-56.5 -43q-1 -1 -2 -1q-2 -2 -5 -4t-7 -4l-13 -6l-6 13l-6 14l-6 13l13 5l3 1.5t3 2.5l2 1
q28 19 54 41t52 45q8 7 16 13.5t16 13.5q9 8 28.5 26.5t39.5 41.5q29 32 35.5 45.5t7.5 15.5q-1 2 -7.5 13.5t-33.5 39.5q-18 19 -40.5 39t-45.5 37q-88 67 -159 110z" />
    <glyph glyph-name="guillemotleft" unicode="&#xab;" horiz-adv-x="664" 
d="M595 -56l-8 -13l-7 -12l-7 -13l-12 8q-38 22 -78.5 49.5t-85.5 62.5q-16 13 -39.5 33t-45.5 42q-13 13 -22.5 24t-17.5 21q-18 27 -18 44q0 9 4 20t14 25q12 19 35 44q21 24 41.5 43.5t31.5 28.5q8 7 15.5 13.5t15.5 13.5q26 23 53.5 46t56.5 43q1 0 1 0.5t1 0.5
q2 2 5 3.5l7 3.5l13 6l6 -13l6 -13l6 -13l-13 -6q-1 0 -2 -1t-3 -2q-1 -1 -1.5 -1t-1.5 -1q-28 -19 -54 -41l-52 -44l-16 -14l-16 -14q-9 -8 -28.5 -26.5t-39.5 -40.5q-29 -32 -35.5 -45.5t-6.5 -15.5t6.5 -13.5t33.5 -39.5q18 -19 40.5 -39t45.5 -38q45 -34 84 -61t75 -48z
M428 -56l-8 -13l-7 -12l-7 -13l-12 8q-38 22 -78.5 49.5t-85.5 62.5q-16 13 -39.5 33t-45.5 42q-13 13 -22.5 24t-17.5 21q-18 27 -18 44q0 9 4 20t14 25q12 19 35 44q21 24 41.5 43.5t30.5 28.5q8 7 16 13.5t16 13.5q26 23 53.5 46t56.5 43q1 0 1 0.5t1 0.5q2 2 5 3.5
l7 3.5l13 6l6 -13l6 -13l6 -13l-13 -6q-1 0 -2.5 -1t-3.5 -2l-2 -2q-28 -19 -54 -41l-52 -44v-1q-8 -6 -16 -13l-16 -14q-9 -8 -28.5 -26.5t-39.5 -40.5q-29 -32 -35.5 -45.5t-6.5 -15.5t6.5 -13.5t33.5 -39.5q18 -19 40.5 -39t45.5 -38q45 -34 84 -61t75 -48z" />
    <glyph glyph-name="dotlessi" unicode="&#x131;" horiz-adv-x="614" 
d="M365 -12l-14 -1l-15 -2l-14 -1l-1 14q-7 65 -9 160.5t0 222.5q1 43 2 83t2 74t2 60t2 42q-13 2 -32.5 2.5t-42.5 0.5t-43.5 -1t-37.5 -4l-14 -2l-2 14l-2 15l-2 14l14 2q19 3 41 4t46 1q42 0 70.5 -2.5t29.5 -2.5l7 -1l13 -1l-1 -13v-7q0 -1 -1.5 -35t-3.5 -89t-3.5 -125
t-1.5 -142.5t2 -142t8 -123.5z" />
    <glyph glyph-name="uni00A0" unicode="&#xa0;" horiz-adv-x="0" 
 />
    <glyph glyph-name="periodcentered" unicode="&#xb7;" horiz-adv-x="246" 
d="M157 417q11 -11 11 -28q-2 -18 -15 -31t-31 -13q-9 0 -19 5q-15 7 -18 26q-1 11 3 21.5t12 18.5l1 1v1q17 10 30 10q15 0 26 -11z" />
    <glyph glyph-name="paragraph" unicode="&#xb6;" horiz-adv-x="800" 
d="M598 738v-14v-8q0 -89 -0.5 -181t-1 -196.5t-1 -227.5t-0.5 -274v-14h-14h-15h-14v14v165v1v1q0 53 0.5 116t1 129t0.5 132t0.5 125t0.5 108v81h-34t-30 -1v-82t-0.5 -108t-0.5 -125t-0.5 -131.5t-1 -128.5t-0.5 -116v-62t-0.5 -51.5t-0.5 -36.5v-16v-14h-14h-15h-14v14
v49.5t1 116.5v5v86.5t1 93.5q-31 0 -58.5 1.5t-53.5 7.5q-31 8 -59 22.5t-55 38.5q-40 34 -58 88q-17 51 -14 109q3 67 30 121q26 57 71 88q38 28 71.5 42.5t71.5 22.5q37 7 80 8t105 1h7h14z" />
    <glyph glyph-name="mu" unicode="&#xb5;" horiz-adv-x="774" 
d="M739 -21l-14 -2q-5 0 -10.5 -0.5t-10.5 -0.5q-74 0 -124 45q-29 28 -41 63q-11 -18 -26 -31q-49 -46 -119 -66q-19 -5 -37 -7.5t-35 -2.5q-29 0 -58 8q-37 11 -60 34q-12 11 -22 27q-5 -60 -5 -132.5t2 -164.5q3 -113 3 -259v-14h-14h-15h-14v14q0 56 -2 121t-3 133
t-1 135.5t4.5 128.5t14 113.5t26.5 90.5q8 16 14.5 28.5t15.5 26.5q23 35 55 64q14 12 27 22t24 16l13 6l6 -13l7 -13l6 -13l-12 -6q-18 -9 -44 -32.5t-47 -54.5q-18 -27 -31.5 -66.5t-2.5 -83.5q13 -51 67 -67q21 -6 45 -6q44 0 87.5 17.5t74.5 46.5q26 24 38.5 53.5
t20.5 59.5q6 21 9.5 35t11.5 38l13 -3l15 -4l13 -4q-6 -23 -11 -38t-10 -34q-5 -15 -6 -30t-1 -29q0 -45 33 -75q37 -34 95 -34q5 0 9 0.5t8 0.5l14 2l2 -14l1 -15z" />
    <glyph glyph-name="quotedblleft" unicode="&#x201c;" horiz-adv-x="375" 
d="M173 648q8 -17 0 -32q-11 -16 -33 -16q-8 0 -17 3q-15 6 -27 17.5t-18 22.5q-11 22 -14.5 43t-3.5 37q2 35 13 61q14 30 41 49l12 7l8 -11l8 -13l8 -12l-12 -7q-16 -11 -24.5 -30t-10.5 -45q0 -9 1.5 -19t5.5 -18q3 -8 6 -11.5t4 -4.5q16 -1 31 -4.5t22 -16.5zM313 648
q8 -17 0 -32q-11 -16 -33 -16q-8 0 -17 3q-15 6 -27 17.5t-18 22.5q-11 22 -14.5 43t-3.5 37q2 35 13 61q14 30 41 49l12 7l8 -11l8 -13l8 -12l-12 -7q-16 -11 -24.5 -30t-10.5 -45q0 -9 1.5 -19t5.5 -18q3 -8 6 -11.5t4 -4.5q16 -1 31 -4.5t22 -16.5z" />
    <glyph glyph-name="quotedblright" unicode="&#x201d;" horiz-adv-x="352" 
d="M148 792q11 -22 14.5 -43t3.5 -36q0 -33 -13 -62q-15 -32 -41 -49l-12 -7l-8 12l-8 12l-7 12l11 7q33 22 35 76q0 19 -6 36q-7 16 -11 16q-16 2 -31 5t-22 16q-8 18 0 32q11 16 33 16q8 0 17 -3q15 -6 27 -17.5t18 -22.5zM278 792q11 -22 14.5 -43t3.5 -36q0 -33 -13 -62
q-15 -32 -41 -49l-12 -7l-8 12l-8 12l-7 12l11 7q33 22 35 76q0 19 -6 36q-7 16 -11 16q-16 2 -31 5t-22 16q-8 18 0 32q11 16 33 16q8 0 17 -3q15 -6 27 -17.5t18 -22.5z" />
    <glyph glyph-name="quoteleft" unicode="&#x2018;" horiz-adv-x="291" 
d="M206 648q8 -17 0 -32q-11 -16 -33 -16q-8 0 -17 3q-15 6 -27 17.5t-18 22.5q-11 22 -14.5 43t-3.5 37q2 35 13 61q14 30 41 49l12 7l8 -11l8 -13l8 -12l-12 -7q-16 -11 -24.5 -30t-10.5 -45q0 -9 1.5 -19t5.5 -18q3 -8 6 -11.5t4 -4.5q16 -1 31 -4.5t22 -16.5z" />
    <glyph glyph-name="quoteright" unicode="&#x2019;" horiz-adv-x="265" 
d="M173 792q11 -22 14.5 -43t3.5 -36q0 -33 -13 -62q-15 -32 -41 -49l-12 -7l-8 12l-8 12l-7 12l11 7q33 22 35 76q0 19 -6 36q-7 16 -11 16q-16 2 -31 5t-22 16q-8 18 0 32q11 16 33 16q8 0 17 -3q15 -6 27 -17.5t18 -22.5z" />
    <glyph glyph-name="quotedblbase" unicode="&#x201e;" horiz-adv-x="300" 
d="M127 86q11 -22 14.5 -43t3.5 -36q0 -33 -13 -62q-15 -32 -41 -49l-12 -7l-8 12l-8 12l-7 12l11 7q33 22 35 76q0 19 -6 36q-7 16 -11 16q-16 2 -31 5t-22 16q-8 18 0 32q11 16 33 16q8 0 17 -3q15 -6 27 -17.5t18 -22.5zM257 86q11 -22 14.5 -43t3.5 -36q0 -33 -13 -62
q-15 -32 -41 -49l-12 -7l-8 12l-8 12l-7 12l11 7q33 22 35 76q0 19 -6 36q-7 16 -11 16q-16 2 -31 5t-22 16q-8 18 0 32q11 16 33 16q8 0 17 -3q15 -6 27 -17.5t18 -22.5z" />
    <glyph glyph-name="quotesinglbase" unicode="&#x201a;" horiz-adv-x="237" 
d="M167 86q11 -22 14.5 -43t3.5 -36q0 -33 -13 -62q-15 -32 -41 -49l-12 -7l-8 12l-8 12l-7 12l11 7q33 22 35 76q0 19 -6 36q-7 16 -11 16q-16 2 -31 5t-22 16q-8 18 0 32q11 16 33 16q8 0 17 -3q15 -6 27 -17.5t18 -22.5z" />
    <glyph glyph-name="quotesingle" unicode="'" horiz-adv-x="269" 
d="M162 609h-14l-15 -1h-14v14q-3 99 -3 185v14h14h15h14v-14q0 -85 3 -184v-14z" />
    <glyph glyph-name="quotedbl" unicode="&#x22;" horiz-adv-x="324" 
d="M126 609h-14l-15 -1h-14v14q-3 99 -3 185v14h14h15h14v-14q0 -85 3 -184v-14zM224 609h-14l-15 -1h-14v14q-3 99 -3 185v14h14h15h14v-14q0 -85 3 -184v-14z" />
    <glyph glyph-name="dotaccent" unicode="&#x2d9;" horiz-adv-x="257" 
d="M99 622q14 10 26.5 11.5t21.5 -3t14 -13.5t5 -21q0 -11 -6 -20.5t-16 -16t-21.5 -8t-23.5 4.5q-8 5 -11.5 13.5t-3.5 18t4 19t11 15.5z" />
    <glyph glyph-name="hungarumlaut" unicode="&#x2dd;" horiz-adv-x="539" 
d="M296 784l-24.5 -49t-21 -40t-22 -37t-25.5 -40l-8 -12l-36 24l8 12q14 21 25 38.5t21 35.5t20.5 38.5t23.5 47.5l6 13l39 -19zM393 796l-6 -12l-24.5 -49t-21 -40t-21.5 -37t-26 -40l-7 -12l-36 24l7 12q14 21 25 38.5t21 35.5t20.5 38.5t23.5 47.5l6 13z" />
    <glyph glyph-name="florin" unicode="&#x192;" horiz-adv-x="806" 
d="M694 1062l-4 -13l-4 -15l-4 -13l-13 4q-57 16 -103 16q-57 0 -93 -27q-20 -16 -35.5 -41t-25.5 -61q-11 -36 -15.5 -83t-4.5 -107q0 -73 1 -166t3 -189h61h71l14 -1v-14l-1 -15v-14l-14 1h-70h-60v-11q2 -110 4 -217t2 -190v-18t1 -21q1 -45 0.5 -108.5t-8.5 -129.5
q-5 -36 -12 -68t-17 -58q-24 -65 -63 -101q-47 -45 -116 -45h-10t-10 1l-14 1l1 14l2 15l1 14l14 -1q4 -1 8 -1h8q51 0 87 33q58 55 78 202q8 63 8.5 124.5t-0.5 106.5q-1 11 -1 21.5v18.5q0 41 -0.5 89.5t-1.5 100.5t-2 107t-2 109v12q-22 -1 -37.5 -1h-23.5l-14 -1v14
l-1 15v14l14 1h25t36 1q-2 96 -3 189t-1 166q0 65 5.5 115.5t17.5 90.5q23 80 75 121q24 18 54 27q30 8 65 8q51 0 114 -18z" />
    <glyph glyph-name="fi" unicode="&#xfb01;" horiz-adv-x="3688" 
d="M850 -804h-8q-39 5 -64 50.5t-30 122.5q-3 47 -6.5 127t-2.5 189t7.5 244t23.5 291q-17 24 -28 43.5t-13 33.5q-3 19 0 32.5t8.5 22t12 13t11.5 6.5q10 5 27 5q3 20 5.5 39t5.5 39v1q-63 -45 -137.5 -87t-159.5 -74q-54 -21 -115 -43t-125.5 -44t-131 -43t-130.5 -40
l-12 42q64 19 129.5 40t130 42.5t125 43t113.5 42.5q95 37 176.5 85t147.5 98q13 68 34.5 153.5t50.5 172.5q87 259 176 319q21 14 36.5 12t23.5 -6q20 -11 31.5 -38t11.5 -65q0 -51 -8.5 -98.5t-26.5 -96t-46 -99.5t-68 -107q-23 -32 -67.5 -77t-107.5 -94q-2 -12 -4 -23
l-4 -22q-3 -22 -6 -43t-5 -43q20 -11 35 -30q35 -46 63.5 -108t49.5 -139q10 -7 20 -11q26 -13 54.5 -20.5t58 -11.5t58.5 -5t55 -1q38 -1 109 6.5t164 23.5t201.5 40.5t222.5 59.5l13 -41q-117 -36 -227.5 -61.5t-204.5 -41.5t-166.5 -23.5t-112.5 -6.5q-54 2 -114.5 7
t-117.5 30q10 -45 16.5 -91.5t11.5 -96.5q6 -66 6.5 -132.5t-4 -128t-13 -115.5t-21.5 -95q-26 -85 -62 -129.5t-76 -44.5zM809 173q-14 -147 -20 -274t-6.5 -229t3 -177.5t6.5 -120.5q5 -66 21.5 -98t33.5 -34q20 -2 47 31.5t52 111.5q16 51 25.5 128.5t10 168.5t-9 188.5
t-31.5 188.5q-36 23 -69.5 53.5t-62.5 62.5zM815 233q20 -26 47.5 -53.5t58.5 -53.5q-17 52 -39 97t-51 82q-2 3 -7 8q-2 -20 -4.5 -40t-4.5 -40zM783 332q-4 0 -5 -1q-6 -2 -6 -12.5t1 -15.5q0 -4 5 -14q1 11 2 21.5t3 21.5zM1107 1130q-4 0 -12 -5q-23 -16 -46 -49.5
t-45 -79t-42.5 -100t-38.5 -112t-33.5 -115t-26.5 -109.5q45 38 76.5 71t49.5 59q38 54 65 101.5t44 92.5t24.5 89.5t7.5 91.5q0 26 -6 43t-13 21q-1 1 -4 1zM3702 122q-18 -5 -36 -10.5t-36 -11.5q-68 -20 -137 -40t-135.5 -37t-130.5 -29.5t-122 -18.5q-5 -1 -15.5 -1.5
t-24.5 -0.5q-21 0 -47.5 2.5t-55 10t-56.5 21t-50 36.5q-65 65 -54 176q3 31 9 59t12 51q-106 -6 -198.5 -20t-179.5 -34t-171 -45t-172 -53q-44 -14 -88.5 -27.5t-92.5 -27.5l-13 42q48 14 92.5 27.5t88.5 27.5q92 29 180 55t179.5 47t190 35t212.5 18l31 1
q-4 -14 -6.5 -22.5t-5.5 -19.5q-6 -22 -13.5 -53t-10.5 -65q-9 -91 41 -141q25 -26 60 -38t67 -16t56.5 -3t30.5 1q56 6 118.5 18.5t128.5 29.5t134 37l136 40l72 21zM3039 792q-12 0 -23 5.5t-17 15.5q-13 21 -2 42q5 12 16 19t25 7q21 0 33 -14q12 -15 10 -33
q-2 -22 -15 -32t-27 -10z" />
    <glyph glyph-name="fl" unicode="&#xfb02;" horiz-adv-x="3842" 
d="M850 -804h-8q-39 5 -64 50.5t-30 122.5q-3 47 -6.5 127t-2.5 189t7.5 244t23.5 291q-17 24 -28 43.5t-13 33.5q-3 19 0 32.5t8.5 22t12 13t11.5 6.5q10 5 27 5q3 20 5.5 39t5.5 39v1q-63 -45 -137.5 -87t-159.5 -74q-54 -21 -115 -43t-125.5 -44t-131 -43t-130.5 -40
l-12 42q64 19 129.5 40t130 42.5t125 43t113.5 42.5q95 37 176.5 85t147.5 98q13 68 34.5 153.5t50.5 172.5q87 259 176 319q21 14 36.5 12t23.5 -6q20 -11 31.5 -38t11.5 -65q0 -51 -8.5 -98.5t-26.5 -96t-46 -99.5t-68 -107q-23 -32 -67.5 -77t-107.5 -94q-2 -12 -4 -23
l-4 -22q-3 -22 -6 -43t-5 -43q20 -11 35 -30q35 -46 63.5 -108t49.5 -139q10 -7 20 -11q26 -13 54.5 -20.5t58 -11.5t58.5 -5t55 -1q38 -1 109 6.5t164 23.5t201.5 40.5t222.5 59.5l13 -41q-117 -36 -227.5 -61.5t-204.5 -41.5t-166.5 -23.5t-112.5 -6.5q-54 2 -114.5 7
t-117.5 30q10 -45 16.5 -91.5t11.5 -96.5q6 -66 6.5 -132.5t-4 -128t-13 -115.5t-21.5 -95q-26 -85 -62 -129.5t-76 -44.5zM809 173q-14 -147 -20 -274t-6.5 -229t3 -177.5t6.5 -120.5q5 -66 21.5 -98t33.5 -34q20 -2 47 31.5t52 111.5q16 51 25.5 128.5t10 168.5t-9 188.5
t-31.5 188.5q-36 23 -69.5 53.5t-62.5 62.5zM815 233q20 -26 47.5 -53.5t58.5 -53.5q-17 52 -39 97t-51 82q-2 3 -7 8q-2 -20 -4.5 -40t-4.5 -40zM783 332q-4 0 -5 -1q-6 -2 -6 -12.5t1 -15.5q0 -4 5 -14q1 11 2 21.5t3 21.5zM1107 1130q-4 0 -12 -5q-23 -16 -46 -49.5
t-45 -79t-42.5 -100t-38.5 -112t-33.5 -115t-26.5 -109.5q45 38 76.5 71t49.5 59q38 54 65 101.5t44 92.5t24.5 89.5t7.5 91.5q0 26 -6 43t-13 21q-1 1 -4 1zM3070 -26q-30 0 -61 7t-59 21t-51 35.5t-37 50.5q-15 33 -21 75.5t-5 92t7 103.5t15 110q-69 -40 -142 -69
t-155 -58q-33 -12 -67.5 -24.5t-71.5 -26.5q-53 -21 -114 -42.5t-125.5 -43.5t-131 -43t-130.5 -40l-13 42q64 19 130 39.5t130.5 42.5t125 43.5t113.5 42.5q36 14 71 26.5t68 24.5q90 32 169 64.5t152 79.5q9 47 23 106.5t32.5 123t41 126.5t48 118t54.5 96.5t60 62.5
q21 14 37 12t24 -6q20 -11 31 -38t11 -65q0 -114 -36 -211t-114 -191q-42 -51 -84.5 -90t-87.5 -70q-1 -5 -1.5 -10t-1.5 -10q-6 -35 -13 -84.5t-10 -102.5t1 -103t20 -84q12 -25 33 -43t47 -29t54.5 -15t54.5 -1q45 4 104 12.5t126.5 20t138.5 25t139.5 28t131 30
t112.5 29.5l13 -42q-50 -15 -113.5 -30t-133 -30t-141.5 -28.5t-140 -25t-128 -20t-105 -13.5q-6 0 -12 -0.5t-13 -0.5zM3162 1128q-4 0 -11 -5q-23 -15 -46 -47.5t-45.5 -76.5t-42.5 -97.5t-38.5 -110.5t-33.5 -115t-26 -112q32 26 63.5 56.5t62.5 68.5q73 88 107 178
t34 196q0 26 -6 43t-14 21q-1 1 -4 1z" />
    <glyph glyph-name="Lslash" unicode="&#x141;" horiz-adv-x="728" 
d="M652 21v-14v-15v-14h-14h-445h-6h-11l-2 10l-2 6q-5 17 -6.5 97.5t-1.5 237.5h-25q-21 0 -35.5 -0.5t-25.5 -0.5l-14 -1l-1 14l-1 15l-1 14l14 1q11 0 26.5 0.5t37.5 0.5h25q1 57 1 114.5t1 111.5v94.5v82.5v64.5v41.5l-1 14l14 1h15l14 1l1 -14v-42v-65.5v-83v-94.5
q-1 -53 -1 -111t-1 -116h58q38 0 82.5 1t80.5 5l14 1l1 -14l2 -15l1 -14l-14 -1q-38 -4 -83 -5t-84 -1h-58q0 -125 1.5 -200.5t3.5 -106.5h426h14z" />
    <glyph glyph-name="lslash" unicode="&#x142;" horiz-adv-x="458" 
d="M383 16l-11 -8q-47 -36 -99 -36q-23 0 -41 9t-30 27q-13 20 -13 54v35t0.5 62.5t1 81t0.5 90.5q-13 -2 -24.5 -3.5t-21.5 -3.5l-14 -3l-3 13l-4 15l-3 14l14 3q12 3 26 4.5t31 3.5v43.5t1 43.5v1q0 63 0.5 122.5t1 107t1 79.5t0.5 41q0 45 -8 60.5t-13 18.5q-3 3 -8 3
q-6 0 -18 -5l-12 -6l-7 12l-6 14l-6 12l12 7q19 9 37 9q17 0 31 -9q22 -14 32 -45q9 -27 9 -71q0 -9 -0.5 -41t-1 -80t-1 -107.5t-0.5 -122.5v-1l-1 -10v-72q28 2 53.5 5.5t43.5 11.5l13 5l5 -13l6 -14l6 -13l-13 -5q-23 -10 -53 -14t-62 -6q0 -47 -0.5 -92t-1 -82.5
t-0.5 -63.5v-35q0 -25 7.5 -32.5t11.5 -9.5q10 -5 22 -5q17 0 36.5 7t36.5 20l11 9l8 -11l9 -12z" />
    <glyph glyph-name="glyph231" horiz-adv-x="669" 
d="M541 422q21 -22 19 -57q-2 -27 -17 -49q-16 -22 -40 -34q-14 -7 -31 -7q-11 0 -28 5q9 -37 0 -66q-9 -25 -28 -38q-20 -14 -47 -14q-2 -1 -5 -1q-41 0 -62 26q-18 21 -22 51q-1 5 -1 9.5t-1 9.5q-38 -33 -80 -33q-29 0 -54 15q-29 17 -34 50q-2 22 5 39q7 19 21 33
q11 10 22.5 18.5t25.5 15.5q-40 20 -57 59q-7 14 -8.5 28t0.5 28q6 32 32 50q29 20 60 20q27 0 53 -15q27 -15 44 -38q4 -4 10 -12q8 23 19 38q27 40 75 47q10 2 16 2q34 0 56 -25q24 -24 22 -64q-3 -32 -31 -63q44 -5 66 -28zM379 361q15 -13 31 -23q14 -8 30.5 -15
t31.5 -5q4 1 6.5 1t5.5 2q30 15 33 47q0 17 -7 25q-7 7 -17 14t-33 9q-12 1 -24 -1t-21 -5q-11 -4 -20 -8l-13 22q22 13 40 28q15 13 27.5 29t13.5 35q0 21 -10 32q-9 11 -25 11q-2 0 -4 -0.5t-4 -0.5q-26 -2 -43 -22t-26 -43q-11 -27 -16 -60l-14 -2l-11 -1l-4 10
q-10 26 -23.5 49.5t-39.5 38.5q-17 9 -32 9q-9 0 -18 -2t-17 -10q-13 -14 -12.5 -29.5t4.5 -29.5q7 -23 24 -35t34 -17q20 -6 44 -5l3 -26l-11 -3q-32 -9 -55 -21t-41 -29q-7 -7 -9.5 -19t-0.5 -21q5 -18 24 -25.5t36 -3.5q21 5 36.5 19t25.5 30q11 18 20 41l22 -10
q-2 -29 -1 -54q1 -21 4 -42t11 -30q3 -3 9.5 -7t20.5 -4h3q20 2 27 9t9 15q3 9 1.5 20.5t-3.5 25.5q-3 11 -9 24t-13 24q-8 12 -16 25z" />
    <glyph glyph-name="glyph232" horiz-adv-x="707" 
d="M583 473q11 -43 -2 -86q-6 -23 -19.5 -46.5t-30.5 -46.5t-36 -44t-37 -38q-20 -21 -38 -37t-30 -26q-18 -17 -29 -24q-7 -5 -17 -6q-9 0 -14.5 5.5t-9.5 12.5q-3 5 -7 10.5t-9 13.5q-9 16 -20.5 35.5t-23.5 41.5q-6 10 -17 30.5t-23 43.5t-22.5 46t-16.5 39
q-5 17 -7.5 41.5t3.5 50.5q4 15 10 28t16 24q18 22 47 33q13 6 29 6q17 0 33.5 -6t29.5 -17q34 -28 46 -73q4 5 8 9t8 9q12 12 25.5 19.5t26 11t23.5 4.5t17 1q5 0 10.5 -0.5t10.5 -1.5q23 -4 41 -21t25 -42zM279 537q-7 0 -14 -3q-37 -14 -46 -55q-5 -20 -3.5 -38t6.5 -30
q6 -18 23.5 -53.5t43.5 -83.5q17 -31 33 -59t27 -45q13 11 34.5 30t47.5 45q16 16 33 34.5t32 39t26.5 41t17.5 39.5q9 35 2 63q-4 12 -12.5 21t-19.5 11q-5 1 -14 1t-27 -3.5t-34 -19.5q-26 -28 -42 -55l-6 -9l-10 2l-14 4l-10 3v10q-1 67 -38 96q-16 14 -36 14z" />
    <glyph glyph-name="glyph233" horiz-adv-x="726" 
d="M588 369v-14l-1 -15v-14h-14l-159 5q7 -17 14.5 -38.5t15 -43.5t14 -42t11.5 -35l5 -13l-14 -5l-14 -4l-13 -5l-4 14q-5 16 -11.5 35.5t-13.5 39.5t-14 39.5t-13 35.5l-82 -128l-7 -12l-12 8l-13 8l-12 7l8 12l85 134q-18 3 -40.5 7.5l-45 9t-43.5 9t-36 8.5l-14 3l3 13
l4 15l3 14l13 -3q16 -4 36.5 -8t41.5 -8.5t41 -8.5t37 -7l-70 131l-7 12l13 7l13 7l12 6l7 -12l74 -140l27 31.5t30 34.5t29 33t25 28l10 11l10 -10l11 -10l10 -9l-9 -11q-23 -25 -51.5 -58t-51.5 -59l148 -5h14z" />
    <glyph glyph-name="glyph234" horiz-adv-x="749" 
d="M592 216q1 -14 1 -23.5v-14.5q-1 -13 -1.5 -18t-3.5 -9q-5 -8 -12 -9t-15 -2q-38 -6 -76 -8t-78 -2t-83 1.5t-90 1.5h-42.5t-23.5 0.5t-10 1t-3 0.5l-5 1l-13 15v5q2 34 2 76.5t1.5 86.5t5.5 86t14 75q12 40 30 68q21 35 53 60q49 38 103 41q25 0 49 -3.5t50 -17.5
q37 -19 69 -55q18 -21 29.5 -50t19.5 -61.5t12.5 -65.5t7.5 -62q5 -38 6.5 -69.5t2.5 -48.5zM359 607q-46 0 -90 -33q-41 -31 -58 -74.5t-22.5 -95.5t-4.5 -109.5t-3 -117.5h183.5t185.5 5q0 20 -2 61t-8 92q-9 79 -24 133t-35 77q-53 62 -122 62zM240 460q13 0 20 -10
q2 -3 3.5 -9t-2.5 -14q-5 -14 -20 -14q-14 0 -20 11q-8 11 -1 24q7 12 20 12zM468 413q-12 0 -20 11q-6 11 0 24q5 12 20 12q12 0 19 -10q2 -3 4 -9t-2 -14q-6 -14 -21 -14z" />
    <glyph glyph-name="glyph235" horiz-adv-x="747" 
d="M634 455q20 -74 12 -136q-6 -56 -37 -103q-29 -44 -78.5 -71t-112.5 -35q-6 -2 -13.5 -2h-16.5t-24 1t-34 4t-41.5 8.5t-44.5 15.5q-46 19 -79 53q-32 33 -45 78q-22 70 -10 140q5 32 17.5 61.5t32.5 55.5q39 54 97.5 84t123.5 30h13q57 -2 99.5 -17t72.5 -42
q24 -22 40.5 -51.5t27.5 -73.5zM388 151q9 0 15 0.5t10 0.5q54 7 95.5 29.5t65.5 58.5q52 78 19 204q-9 33 -22.5 60.5t-36.5 47t-57 31t-85 13.5h-11q-54 0 -103.5 -25.5t-82.5 -70.5q-35 -47 -43.5 -104t9.5 -115q10 -31 28.5 -52.5t41 -36t47 -23t46.5 -12.5t39 -5t25 -1
v-7v7zM283 278q15 0 23 -12q2 -3 4 -9.5t-2 -16.5q-6 -16 -24 -16q-15 0 -23 13q-8 12 -1 27q6 14 23 14zM492 224q-15 0 -23 13q-8 12 -1 27q6 14 23 14q15 0 23 -12q2 -3 4 -9.5t-2 -16.5q-6 -16 -24 -16z" />
    <glyph glyph-name="glyph236" horiz-adv-x="705" 
d="M580 565q0 -23 0.5 -52.5t0.5 -62v-66.5v-66q0 -72 -3 -111q-1 -11 -2 -20t-2 -16l-2 -8t-3 -8q-4 -8 -9 -10.5t-9 -3.5q-6 -2 -30 -2.5t-57 -1t-71.5 -1t-75 0t-67 0.5t-46.5 1q-31 2 -42 3t-15 3l-4 1l-2 4l-5 7l-2 4v5q1 16 1.5 35.5t0.5 55.5t-0.5 95.5t-0.5 154.5
q1 41 1.5 65.5t2.5 37.5t4 18.5t7 9.5q6 5 20 6q9 1 26 1.5t43 0.5q33 1 73 1.5t81 0.5h44.5t49.5 -0.5t44.5 -1.5t29.5 -2h6l3 -5l7 -7l3 -4v-6v-56zM539 328v64t-0.5 64t-1 59t-0.5 49v1v37q-21 1 -58 1.5t-86 0.5q-33 0 -65.5 -0.5t-61 -1t-50.5 -1t-35 -0.5
q-1 -11 -1.5 -34t-1.5 -68q0 -79 1 -157.5t-2 -159.5q88 -6 176.5 -4t178.5 4q1 5 1.5 14.5t2.5 23.5q1 40 3 108zM269 571q2 -4 4 -10.5t-2 -15.5q-8 -17 -24 -17q-15 0 -23 13q-8 14 -1 27q6 14 23 14q15 0 23 -11zM471 582q16 0 22 -11q2 -4 4 -10.5t-2 -15.5
q-6 -17 -24 -17q-15 0 -23 13t0 27q6 14 23 14zM437 501q3 -19 -9 -33q-4 -5 -11.5 -11t-22.5 -8q-7 -2 -15 1q-8 2 -13 7.5t-7 11.5q-3 -8 -12.5 -16t-21.5 -7h-4q-17 1 -30 14q-11 13 -11 31l1 14l14 -1l7 -1q1 -6 4 -10q2 -4 5.5 -7t8.5 -4q10 -1 14.5 2t8.5 8q2 3 5 5.5
t8 3.5q4 2 8 0q6 -3 12.5 -11.5t20.5 -4.5q10 3 16 14q3 5 3 12l9 2l9 2z" />
    <glyph glyph-name="glyph237" horiz-adv-x="731" 
d="M604 309q34 -82 30 -106l-1 -5l-15 -13l-5 -1q-35 -2 -87 -3.5t-108.5 -3t-112 -2.5t-98.5 -1q-29 0 -48.5 0.5t-28.5 1.5q-8 1 -14.5 7t-7.5 18q0 2 0.5 7.5t5.5 19t15 37.5t30 62q20 39 38.5 74t26.5 50q23 42 45.5 79.5t41.5 66.5q10 16 18.5 28.5t15.5 21.5
q11 14 18.5 19.5t15.5 7.5h5q16 0 34 -21q12 -15 28.5 -40.5t34.5 -57t36 -66t34 -66.5q11 -22 25.5 -52t27.5 -62zM587 227q-4 15 -12 36.5t-20 48.5t-27 58t-31 64q-20 40 -40.5 76t-37.5 63q-13 22 -21.5 34t-13.5 18q-5 -6 -14.5 -19t-24.5 -37q-18 -28 -40 -65t-45 -79
t-43 -80t-35 -70q-10 -20 -15.5 -34t-9.5 -22q10 0 22.5 -0.5t27.5 -0.5q39 0 89.5 1t102.5 2t101.5 2.5t86.5 3.5zM271 310q14 0 23 -12q8 -12 2 -27q-7 -17 -24 -17q-15 0 -23 14q-9 12 -1 27q7 15 23 15zM456 295q7 15 23 15q14 0 23 -12q8 -12 2 -27q-7 -17 -24 -17
q-15 0 -23 14q-9 12 -1 27z" />
    <glyph glyph-name="ogonek" unicode="&#x2db;" horiz-adv-x="833" 
d="M442 -126l-12 -6q-11 -5 -29.5 -11t-38.5 -6q-25 0 -38 12t-15 32q0 18 7 39q9 26 34 51t50 34l13 5l28 -33l-27 -12q-8 -3 -16.5 -9.5t-16.5 -15t-14.5 -18t-9.5 -17.5q-5 -11 -5 -16.5t1 -7.5q0 -1 2 -1q1 -1 7 -1q21 0 49 14l13 6l6 -12l6 -14z" />
    <glyph glyph-name="zero" unicode="0" horiz-adv-x="833" 
d="M773 637q7 -53 7 -108.5t-5 -110.5q-6 -57 -18 -110t-29 -101q-19 -51 -55 -98q-35 -42 -81 -75q-46 -32 -98 -48.5t-105 -16.5q-62 0 -119 26q-59 27 -102 80q-69 85 -96 208q-21 103 -14 222q3 54 10.5 102.5t17 89t19 71t16.5 47.5q23 54 55 95.5t75 69.5
q77 49 170 49q52 0 102.5 -15.5t92.5 -44.5q66 -46 106 -137q37 -82 51 -195zM389 12q48 0 94.5 15.5t86.5 43.5t70 66.5t47 84.5q33 91 44.5 199t-0.5 211q-10 76 -30.5 137.5t-51.5 105.5q-12 -18 -29 -46t-38 -62.5t-44 -73t-47 -77.5q-24 -41 -49.5 -84t-51 -85
t-50.5 -82.5t-47 -76.5q-25 -40 -43 -68t-31 -47t-21 -30.5t-14 -17.5q5 -6 8.5 -12t8.5 -11q35 -44 83 -67t105 -23v-7v7zM455 638q69 116 108 180.5t57 91.5q-12 12 -29 24q-35 25 -79.5 38.5t-90.5 13.5q-88 0 -156 -49t-104 -138q-5 -13 -14 -41t-18 -67t-17 -87
t-11 -101q-2 -35 -1.5 -77t6.5 -86t19 -89t35 -87q5 5 9.5 12t10.5 16q15 22 34 51.5t43 67.5q22 36 46.5 76.5t50 82.5t51.5 84.5t50 83.5z" />
  </font>
</defs>
</svg>
